G04 start of page 2 for group 0 idx 0 *
G04 Title: (unknown), component *
G04 Creator: pcb 20100929 *
G04 CreationDate: Fri Apr  4 23:49:54 2014 UTC *
G04 For: xpi *
G04 Format: Gerber/RS-274X *
G04 PCB-Dimensions: 200000 100000 *
G04 PCB-Coordinate-Origin: lower left *
%MOIN*%
%FSLAX25Y25*%
%LNFRONT*%
%ADD11C,0.0200*%
%ADD12C,0.0100*%
%ADD13C,0.0250*%
%ADD14C,0.0070*%
%ADD15C,0.0600*%
%ADD16C,0.0240*%
%ADD17C,0.0360*%
%ADD18R,0.0130X0.0130*%
%ADD19R,0.0197X0.0197*%
%ADD20R,0.0295X0.0295*%
%ADD21R,0.0512X0.0512*%
%ADD22C,0.0280*%
%ADD23C,0.0380*%
%ADD24C,0.0150*%
%ADD33C,0.0010*%
G54D11*G36*
X81000Y41500D02*X104000D01*
X96000Y33500D01*
X81000D01*
Y41500D01*
G37*
G36*
X49500Y58500D02*X46000D01*
Y78000D01*
X49500D01*
Y58500D01*
G37*
G36*
X54500Y71500D02*X46000D01*
Y94500D01*
X54500D01*
Y71500D01*
G37*
G54D12*X28000Y59000D02*X35000D01*
X31000D02*Y62000D01*
X33000Y64000D01*
X38500D01*
X40000Y56000D02*Y62500D01*
X38500Y64000D01*
X42000Y57500D02*Y65000D01*
X28000Y29000D02*X34000D01*
X30000D02*Y32000D01*
X32000Y34000D01*
X46000D02*X48000Y36000D01*
X32000Y34000D02*X46000D01*
X69000Y35500D02*X76500Y28000D01*
X71500Y35500D02*X77000Y30000D01*
X63500Y35500D02*X75000Y24000D01*
X61000Y35500D02*X74500Y22000D01*
X66500Y35500D02*X76000Y26000D01*
G54D13*X80500Y5500D02*X36500D01*
X17500Y24500D01*
Y33000D01*
G54D12*X74000Y35500D02*X77500Y32000D01*
X27000Y39000D02*X34000D01*
X31000D02*Y42000D01*
X33000Y44000D01*
X28000Y49000D02*X34000D01*
X31000D02*Y52000D01*
X33000Y54000D01*
G54D13*X10000Y40000D02*Y73500D01*
X17500Y33000D02*X10500Y40000D01*
X10000Y73500D02*X32000Y95500D01*
G54D12*X33000Y44000D02*X51000D01*
X53452Y47018D02*X40000Y47000D01*
X33000Y54000D02*X39000D01*
X40000Y53000D02*X39000Y54000D01*
X40000Y47000D02*Y53000D01*
X42500Y49500D02*Y53500D01*
X40000Y56000D01*
X45000Y54500D02*X42000Y57500D01*
X44000D02*X47500Y54000D01*
X51000Y44000D02*Y41000D01*
X53498Y40992D02*Y46992D01*
X56000Y41000D02*Y49500D01*
X42500D01*
X57500Y52000D02*X45000D01*
X47500Y54000D02*X57000D01*
X45000Y52000D02*Y54500D01*
G54D14*X53500Y59000D02*Y58000D01*
X54500Y57000D01*
G54D12*X33000Y84000D02*X39000D01*
G54D13*X32000Y95500D02*X80500D01*
G54D12*X77500Y87000D02*X69500D01*
X56000Y64000D02*Y92500D01*
G54D13*X50000Y95500D02*Y69500D01*
G54D14*X61000Y64500D02*Y80500D01*
X68500Y88000D01*
G54D12*X28000Y69000D02*X34000D01*
X28000Y79000D02*X34000D01*
X31000Y69000D02*Y72000D01*
X33000Y74000D01*
X39000D01*
X31000Y79000D02*Y82000D01*
X33000Y84000D01*
X42000Y65000D02*X40500Y66500D01*
Y72500D01*
X39000Y74000D01*
X44000Y79000D02*Y57500D01*
G54D14*X51000Y59000D02*Y58500D01*
X50000Y57500D01*
G54D12*X39000Y84000D02*X44000Y79000D01*
X58500Y41000D02*Y51000D01*
X57500Y52000D01*
X57000Y54000D02*X58500Y55500D01*
Y59000D01*
X64000Y52000D02*Y59000D01*
X87000Y61500D02*X103500D01*
X109000Y56000D01*
X81500Y63500D02*X154500D01*
X80500Y66000D02*X150000D01*
X154500Y63500D02*X160000Y58000D01*
X80000Y68000D02*X140000D01*
X79500Y70000D02*X130000D01*
X79000Y72000D02*X120000D01*
X82000Y52000D02*X64000D01*
X82000Y54000D02*X66500D01*
Y59000D01*
X81500Y56000D02*X71500D01*
X69000Y58500D01*
X98500Y56500D02*X98000D01*
X95000Y59500D01*
X87500D01*
X82000Y54000D01*
X81500Y56000D02*X87000Y61500D01*
X79000Y64500D02*X80500Y66000D01*
X76500Y64500D02*X80000Y68000D01*
X74000Y64500D02*X79500Y70000D01*
X71500Y64500D02*X79000Y72000D01*
X83500Y52000D02*X87500Y56000D01*
X98500Y47500D02*X96500Y49500D01*
X88500D01*
X82500Y52000D02*X83500D01*
X79000Y41500D02*X80500Y43000D01*
X89500D01*
X88500Y49500D02*X84000Y45000D01*
X80000D01*
X76500Y41500D01*
X77500Y32000D02*X97000D01*
X110000Y45000D01*
X77000Y30000D02*X105000D01*
X76500Y28000D02*X113000D01*
X76000Y26000D02*X121000D01*
X75000Y24000D02*X129000D01*
X74500Y22000D02*X137000D01*
X105000Y30000D02*X120000Y45000D01*
X113000Y28000D02*X130000Y45000D01*
X121000Y26000D02*X140000Y45000D01*
X129000Y24000D02*X150000Y45000D01*
X137000Y22000D02*X160000Y45000D01*
X90000Y87500D02*Y93000D01*
X100000Y87000D02*Y93500D01*
X110000Y87000D02*Y93500D01*
X120000Y87000D02*Y94500D01*
X130000Y86500D02*Y94000D01*
X140000Y87000D02*Y93500D01*
X150000Y87000D02*Y93000D01*
X160000Y86500D02*Y93000D01*
X159500Y93500D01*
X170000Y87000D02*Y93500D01*
X180000Y87000D02*Y94000D01*
X180500Y7000D02*Y14500D01*
X170500Y6500D02*Y14500D01*
X160000Y6000D02*Y14500D01*
X150500Y6000D02*Y14000D01*
X140000Y5500D02*Y15000D01*
X130000Y6000D02*Y15000D01*
X120500Y6000D02*Y15500D01*
X110000Y5500D02*Y15000D01*
X100000Y6000D02*Y15000D01*
X90000Y5500D02*Y15000D01*
G54D15*X160000D03*
X170000D03*
Y85000D03*
Y55000D03*
X180000Y15000D03*
G54D11*G36*
X177000Y88000D02*Y82000D01*
X183000D01*
Y88000D01*
X177000D01*
G37*
G54D15*X180000Y55000D03*
Y45000D03*
X170000D03*
X160000D03*
Y55000D03*
X120000Y15000D03*
X130000D03*
X140000D03*
X150000D03*
G54D11*G36*
X87000Y18000D02*Y12000D01*
X93000D01*
Y18000D01*
X87000D01*
G37*
G54D15*X100000Y15000D03*
X110000D03*
X150000Y45000D03*
X140000D03*
X130000D03*
X120000D03*
X110000D03*
X100000D03*
X90000D03*
Y55000D03*
X100000D03*
X110000D03*
X160000Y85000D03*
X150000D03*
X140000D03*
X130000D03*
X120000D03*
X110000D03*
X100000D03*
X90000D03*
X120000Y55000D03*
X130000D03*
X140000D03*
X150000D03*
X190000Y10000D03*
Y90000D03*
X180000Y95000D03*
X10000Y90000D03*
Y10000D03*
Y20000D03*
Y30000D03*
Y40000D03*
X25500Y89000D03*
X35500D03*
X25500Y79000D03*
X35500D03*
X25500Y69000D03*
X35500D03*
X50000Y69500D03*
X25500Y59000D03*
Y49000D03*
X35500Y59000D03*
Y49000D03*
G54D16*X54000Y56500D03*
X50000Y57000D03*
G54D15*X25500Y39000D03*
Y29000D03*
X35500D03*
Y39000D03*
X170000Y95000D03*
X160000D03*
X150000D03*
X140000D03*
X130000D03*
X120000D03*
X110000D03*
X100000D03*
X90000D03*
X80000D03*
X86000Y38500D03*
G54D17*X79000Y87500D03*
X150000Y67500D03*
X140000Y69000D03*
X130000Y71500D03*
X120000Y73500D03*
G54D15*X180500Y5500D03*
X170500D03*
X160500D03*
X150500D03*
X140500D03*
X130500D03*
X120500D03*
X110500D03*
X100500D03*
X90500D03*
X80500D03*
G54D18*X68838Y40689D02*Y36083D01*
G54D33*X68339Y36234D02*X69214D01*
X69339Y36359D01*
Y37109D02*Y36734D01*
X69214Y36609D02*X69339Y36734D01*
X68964Y36609D02*X69214D01*
X68964D02*X68839Y36734D01*
Y36984D02*Y36734D01*
Y36984D02*X68964Y37109D01*
X69089D02*Y36609D01*
X68964Y37109D02*X69089D01*
X68339Y37909D02*X69339D01*
Y37784D02*X69214Y37909D01*
X69339Y37784D02*Y37534D01*
X69214Y37409D02*X69339Y37534D01*
X68964Y37409D02*X69214D01*
X68964D02*X68839Y37534D01*
Y37784D02*Y37534D01*
Y37784D02*X68964Y37909D01*
X68464Y38209D02*X68339Y38334D01*
Y38584D02*Y38334D01*
Y38584D02*X68464Y38709D01*
X69214D01*
X69339Y38584D02*X69214Y38709D01*
X69339Y38584D02*Y38334D01*
X69214Y38209D02*X69339Y38334D01*
X68839Y38709D02*Y38334D01*
G54D18*X71397Y40689D02*Y36083D01*
G54D33*X70898Y36234D02*X71773D01*
X71898Y36359D01*
Y37109D02*Y36734D01*
X71773Y36609D02*X71898Y36734D01*
X71523Y36609D02*X71773D01*
X71523D02*X71398Y36734D01*
Y36984D02*Y36734D01*
Y36984D02*X71523Y37109D01*
X71648D02*Y36609D01*
X71523Y37109D02*X71648D01*
X70898Y37909D02*X71898D01*
Y37784D02*X71773Y37909D01*
X71898Y37784D02*Y37534D01*
X71773Y37409D02*X71898Y37534D01*
X71523Y37409D02*X71773D01*
X71523D02*X71398Y37534D01*
Y37784D02*Y37534D01*
Y37784D02*X71523Y37909D01*
X71398Y38209D02*X70898Y38709D01*
X71398Y38834D02*Y38209D01*
X70898Y38709D02*X71898D01*
G54D18*X73956Y40689D02*Y36083D01*
G54D33*X73457Y36234D02*X74332D01*
X74457Y36359D01*
Y37109D02*Y36734D01*
X74332Y36609D02*X74457Y36734D01*
X74082Y36609D02*X74332D01*
X74082D02*X73957Y36734D01*
Y36984D02*Y36734D01*
Y36984D02*X74082Y37109D01*
X74207D02*Y36609D01*
X74082Y37109D02*X74207D01*
X73457Y37909D02*X74457D01*
Y37784D02*X74332Y37909D01*
X74457Y37784D02*Y37534D01*
X74332Y37409D02*X74457Y37534D01*
X74082Y37409D02*X74332D01*
X74082D02*X73957Y37534D01*
Y37784D02*Y37534D01*
Y37784D02*X74082Y37909D01*
X73457Y38709D02*Y38209D01*
X73957D01*
X73832Y38334D01*
Y38584D02*Y38334D01*
Y38584D02*X73957Y38709D01*
X74332D01*
X74457Y38584D02*X74332Y38709D01*
X74457Y38584D02*Y38334D01*
X74332Y38209D02*X74457Y38334D01*
G54D18*X76515Y40689D02*Y36083D01*
G54D33*X76016Y36234D02*X76891D01*
X77016Y36359D01*
Y37109D02*Y36734D01*
X76891Y36609D02*X77016Y36734D01*
X76641Y36609D02*X76891D01*
X76641D02*X76516Y36734D01*
Y36984D02*Y36734D01*
Y36984D02*X76641Y37109D01*
X76766D02*Y36609D01*
X76641Y37109D02*X76766D01*
X76016Y37909D02*X77016D01*
Y37784D02*X76891Y37909D01*
X77016Y37784D02*Y37534D01*
X76891Y37409D02*X77016Y37534D01*
X76641Y37409D02*X76891D01*
X76641D02*X76516Y37534D01*
Y37784D02*Y37534D01*
Y37784D02*X76641Y37909D01*
X76016Y38584D02*X76141Y38709D01*
X76016Y38584D02*Y38334D01*
X76141Y38209D02*X76016Y38334D01*
X76141Y38209D02*X76891D01*
X77016Y38334D01*
X76516Y38584D02*X76641Y38709D01*
X76516Y38584D02*Y38209D01*
X77016Y38584D02*Y38334D01*
Y38584D02*X76891Y38709D01*
X76641D02*X76891D01*
G54D18*X79074Y40689D02*Y36083D01*
G54D33*X78575Y36234D02*X79450D01*
X79575Y36359D01*
Y37109D02*Y36734D01*
X79450Y36609D02*X79575Y36734D01*
X79200Y36609D02*X79450D01*
X79200D02*X79075Y36734D01*
Y36984D02*Y36734D01*
Y36984D02*X79200Y37109D01*
X79325D02*Y36609D01*
X79200Y37109D02*X79325D01*
X78575Y37909D02*X79575D01*
Y37784D02*X79450Y37909D01*
X79575Y37784D02*Y37534D01*
X79450Y37409D02*X79575Y37534D01*
X79200Y37409D02*X79450D01*
X79200D02*X79075Y37534D01*
Y37784D02*Y37534D01*
Y37784D02*X79200Y37909D01*
X79575Y38209D02*X78950Y38834D01*
X78575D02*X78950D01*
X78575D02*Y38209D01*
G54D18*X81633Y40689D02*Y36083D01*
G54D33*X81634Y36234D02*X81884D01*
X82134Y36484D01*
X81884Y36734D01*
X81634D02*X81884D01*
X82134Y37534D02*Y37159D01*
Y37534D02*X82009Y37659D01*
X81884Y37534D02*X82009Y37659D01*
X81884Y37534D02*Y37159D01*
X81759Y37034D02*X81884Y37159D01*
X81759Y37034D02*X81634Y37159D01*
Y37534D02*Y37159D01*
Y37534D02*X81759Y37659D01*
X82009Y37034D02*X82134Y37159D01*
Y38459D02*Y38084D01*
Y38459D02*X82009Y38584D01*
X81884Y38459D02*X82009Y38584D01*
X81884Y38459D02*Y38084D01*
X81759Y37959D02*X81884Y38084D01*
X81759Y37959D02*X81634Y38084D01*
Y38459D02*Y38084D01*
Y38459D02*X81759Y38584D01*
X82009Y37959D02*X82134Y38084D01*
G54D18*X56044Y40689D02*Y36083D01*
G54D33*X56045Y36609D02*X56170Y36734D01*
X56045Y36609D02*Y36359D01*
X56170Y36234D02*X56045Y36359D01*
X56170Y36234D02*X56420D01*
X56545Y36359D01*
X56045Y36734D02*X56420D01*
X56545Y36859D01*
Y36609D02*Y36359D01*
Y36609D02*X56420Y36734D01*
X55670Y37159D02*X55545Y37284D01*
Y37534D02*Y37284D01*
Y37534D02*X55670Y37659D01*
X56420D01*
X56545Y37534D02*X56420Y37659D01*
X56545Y37534D02*Y37284D01*
X56420Y37159D02*X56545Y37284D01*
X56045Y37659D02*Y37284D01*
G54D18*X58603Y40689D02*Y36083D01*
G54D33*X58604Y36609D02*X58729Y36734D01*
X58604Y36609D02*Y36359D01*
X58729Y36234D02*X58604Y36359D01*
X58729Y36234D02*X58979D01*
X59104Y36359D01*
X58604Y36734D02*X58979D01*
X59104Y36859D01*
Y36609D02*Y36359D01*
Y36609D02*X58979Y36734D01*
X58604Y37159D02*X58104Y37659D01*
X58604Y37784D02*Y37159D01*
X58104Y37659D02*X59104D01*
G54D18*X61162Y40689D02*Y36083D01*
G54D33*X60663Y36234D02*X61538D01*
X61663Y36359D01*
Y37109D02*Y36734D01*
X61538Y36609D02*X61663Y36734D01*
X61288Y36609D02*X61538D01*
X61288D02*X61163Y36734D01*
Y36984D02*Y36734D01*
Y36984D02*X61288Y37109D01*
X61413D02*Y36609D01*
X61288Y37109D02*X61413D01*
X60663Y37909D02*X61663D01*
Y37784D02*X61538Y37909D01*
X61663Y37784D02*Y37534D01*
X61538Y37409D02*X61663Y37534D01*
X61288Y37409D02*X61538D01*
X61288D02*X61163Y37534D01*
Y37784D02*Y37534D01*
Y37784D02*X61288Y37909D01*
X61538Y38209D02*X61663Y38334D01*
X60788Y38209D02*X61538D01*
X60788D02*X60663Y38334D01*
Y38584D02*Y38334D01*
Y38584D02*X60788Y38709D01*
X61538D01*
X61663Y38584D02*X61538Y38709D01*
X61663Y38584D02*Y38334D01*
X61413Y38209D02*X60913Y38709D01*
G54D18*X63721Y40689D02*Y36083D01*
G54D33*X63222Y36234D02*X64097D01*
X64222Y36359D01*
Y37109D02*Y36734D01*
X64097Y36609D02*X64222Y36734D01*
X63847Y36609D02*X64097D01*
X63847D02*X63722Y36734D01*
Y36984D02*Y36734D01*
Y36984D02*X63847Y37109D01*
X63972D02*Y36609D01*
X63847Y37109D02*X63972D01*
X63222Y37909D02*X64222D01*
Y37784D02*X64097Y37909D01*
X64222Y37784D02*Y37534D01*
X64097Y37409D02*X64222Y37534D01*
X63847Y37409D02*X64097D01*
X63847D02*X63722Y37534D01*
Y37784D02*Y37534D01*
Y37784D02*X63847Y37909D01*
X64222Y38584D02*Y38334D01*
X63222Y38459D02*X64222D01*
X63472Y38209D02*X63222Y38459D01*
G54D18*X48367Y40689D02*Y36083D01*
G54D33*X48368Y36609D02*X48493Y36734D01*
X48368Y36609D02*Y36359D01*
X48493Y36234D02*X48368Y36359D01*
X48493Y36234D02*X48743D01*
X48868Y36359D01*
X48368Y36734D02*X48743D01*
X48868Y36859D01*
Y36609D02*Y36359D01*
Y36609D02*X48743Y36734D01*
Y37159D02*X48868Y37284D01*
X47993Y37159D02*X48743D01*
X47993D02*X47868Y37284D01*
Y37534D02*Y37284D01*
Y37534D02*X47993Y37659D01*
X48743D01*
X48868Y37534D02*X48743Y37659D01*
X48868Y37534D02*Y37284D01*
X48618Y37159D02*X48118Y37659D01*
G54D18*X50926Y40689D02*Y36083D01*
G54D33*X50927Y36609D02*X51052Y36734D01*
X50927Y36609D02*Y36359D01*
X51052Y36234D02*X50927Y36359D01*
X51052Y36234D02*X51302D01*
X51427Y36359D01*
X50927Y36734D02*X51302D01*
X51427Y36859D01*
Y36609D02*Y36359D01*
Y36609D02*X51302Y36734D01*
X51427Y37534D02*Y37284D01*
X50427Y37409D02*X51427D01*
X50677Y37159D02*X50427Y37409D01*
G54D18*X53485Y40689D02*Y36083D01*
G54D33*X53486Y36609D02*X53611Y36734D01*
X53486Y36609D02*Y36359D01*
X53611Y36234D02*X53486Y36359D01*
X53611Y36234D02*X53861D01*
X53986Y36359D01*
X53486Y36734D02*X53861D01*
X53986Y36859D01*
Y36609D02*Y36359D01*
Y36609D02*X53861Y36734D01*
X53111Y37159D02*X52986Y37284D01*
Y37659D02*Y37284D01*
Y37659D02*X53111Y37784D01*
X53361D01*
X53986Y37159D02*X53361Y37784D01*
X53986D02*Y37159D01*
G54D18*X66279Y40689D02*Y36083D01*
G54D33*X65780Y36234D02*X66655D01*
X66780Y36359D01*
Y37109D02*Y36734D01*
X66655Y36609D02*X66780Y36734D01*
X66405Y36609D02*X66655D01*
X66405D02*X66280Y36734D01*
Y36984D02*Y36734D01*
Y36984D02*X66405Y37109D01*
X66530D02*Y36609D01*
X66405Y37109D02*X66530D01*
X65780Y37909D02*X66780D01*
Y37784D02*X66655Y37909D01*
X66780Y37784D02*Y37534D01*
X66655Y37409D02*X66780Y37534D01*
X66405Y37409D02*X66655D01*
X66405D02*X66280Y37534D01*
Y37784D02*Y37534D01*
Y37784D02*X66405Y37909D01*
X65905Y38209D02*X65780Y38334D01*
Y38709D02*Y38334D01*
Y38709D02*X65905Y38834D01*
X66155D01*
X66780Y38209D02*X66155Y38834D01*
X66780D02*Y38209D01*
G54D18*X81633Y63917D02*Y59311D01*
G54D33*X81134Y59462D02*X82009D01*
X82134Y59587D01*
Y60337D02*Y59962D01*
X82009Y59837D02*X82134Y59962D01*
X81759Y59837D02*X82009D01*
X81759D02*X81634Y59962D01*
Y60212D02*Y59962D01*
Y60212D02*X81759Y60337D01*
X81884D02*Y59837D01*
X81759Y60337D02*X81884D01*
X81134Y61137D02*X82134D01*
Y61012D02*X82009Y61137D01*
X82134Y61012D02*Y60762D01*
X82009Y60637D02*X82134Y60762D01*
X81759Y60637D02*X82009D01*
X81759D02*X81634Y60762D01*
Y61012D02*Y60762D01*
Y61012D02*X81759Y61137D01*
X82009Y61437D02*X82134Y61562D01*
X81759Y61437D02*X82009D01*
X81759D02*X81634Y61562D01*
Y61812D02*Y61562D01*
Y61812D02*X81759Y61937D01*
X82009D01*
X82134Y61812D02*X82009Y61937D01*
X82134Y61812D02*Y61562D01*
X81509Y61437D02*X81634Y61562D01*
X81259Y61437D02*X81509D01*
X81259D02*X81134Y61562D01*
Y61812D02*Y61562D01*
Y61812D02*X81259Y61937D01*
X81509D01*
X81634Y61812D02*X81509Y61937D01*
G54D18*X79074Y63917D02*Y59311D01*
G54D33*X78575Y59462D02*X79450D01*
X79575Y59587D01*
Y60337D02*Y59962D01*
X79450Y59837D02*X79575Y59962D01*
X79200Y59837D02*X79450D01*
X79200D02*X79075Y59962D01*
Y60212D02*Y59962D01*
Y60212D02*X79200Y60337D01*
X79325D02*Y59837D01*
X79200Y60337D02*X79325D01*
X78575Y61137D02*X79575D01*
Y61012D02*X79450Y61137D01*
X79575Y61012D02*Y60762D01*
X79450Y60637D02*X79575Y60762D01*
X79200Y60637D02*X79450D01*
X79200D02*X79075Y60762D01*
Y61012D02*Y60762D01*
Y61012D02*X79200Y61137D01*
X79575Y61437D02*X79075Y61937D01*
X78700D02*X79075D01*
X78575Y61812D02*X78700Y61937D01*
X78575Y61812D02*Y61562D01*
X78700Y61437D02*X78575Y61562D01*
X78700Y61437D02*X78950D01*
X79075Y61562D01*
Y61937D02*Y61562D01*
G54D18*X76515Y63917D02*Y59311D01*
G54D33*X76016Y59462D02*X76891D01*
X77016Y59587D01*
Y60337D02*Y59962D01*
X76891Y59837D02*X77016Y59962D01*
X76641Y59837D02*X76891D01*
X76641D02*X76516Y59962D01*
Y60212D02*Y59962D01*
Y60212D02*X76641Y60337D01*
X76766D02*Y59837D01*
X76641Y60337D02*X76766D01*
X76016Y61137D02*X77016D01*
Y61012D02*X76891Y61137D01*
X77016Y61012D02*Y60762D01*
X76891Y60637D02*X77016Y60762D01*
X76641Y60637D02*X76891D01*
X76641D02*X76516Y60762D01*
Y61012D02*Y60762D01*
Y61012D02*X76641Y61137D01*
X77016Y61812D02*Y61562D01*
X76016Y61687D02*X77016D01*
X76266Y61437D02*X76016Y61687D01*
X76891Y62113D02*X77016Y62238D01*
X76141Y62113D02*X76891D01*
X76141D02*X76016Y62238D01*
Y62488D02*Y62238D01*
Y62488D02*X76141Y62613D01*
X76891D01*
X77016Y62488D02*X76891Y62613D01*
X77016Y62488D02*Y62238D01*
X76766Y62113D02*X76266Y62613D01*
G54D18*X73956Y63917D02*Y59311D01*
G54D33*X73457Y59462D02*X74332D01*
X74457Y59587D01*
Y60337D02*Y59962D01*
X74332Y59837D02*X74457Y59962D01*
X74082Y59837D02*X74332D01*
X74082D02*X73957Y59962D01*
Y60212D02*Y59962D01*
Y60212D02*X74082Y60337D01*
X74207D02*Y59837D01*
X74082Y60337D02*X74207D01*
X73457Y61137D02*X74457D01*
Y61012D02*X74332Y61137D01*
X74457Y61012D02*Y60762D01*
X74332Y60637D02*X74457Y60762D01*
X74082Y60637D02*X74332D01*
X74082D02*X73957Y60762D01*
Y61012D02*Y60762D01*
Y61012D02*X74082Y61137D01*
X74457Y61812D02*Y61562D01*
X73457Y61687D02*X74457D01*
X73707Y61437D02*X73457Y61687D01*
X74457Y62488D02*Y62238D01*
X73457Y62363D02*X74457D01*
X73707Y62113D02*X73457Y62363D01*
G54D18*X71397Y63917D02*Y59311D01*
G54D33*X70898Y59462D02*X71773D01*
X71898Y59587D01*
Y60337D02*Y59962D01*
X71773Y59837D02*X71898Y59962D01*
X71523Y59837D02*X71773D01*
X71523D02*X71398Y59962D01*
Y60212D02*Y59962D01*
Y60212D02*X71523Y60337D01*
X71648D02*Y59837D01*
X71523Y60337D02*X71648D01*
X70898Y61137D02*X71898D01*
Y61012D02*X71773Y61137D01*
X71898Y61012D02*Y60762D01*
X71773Y60637D02*X71898Y60762D01*
X71523Y60637D02*X71773D01*
X71523D02*X71398Y60762D01*
Y61012D02*Y60762D01*
Y61012D02*X71523Y61137D01*
X71898Y61812D02*Y61562D01*
X70898Y61687D02*X71898D01*
X71148Y61437D02*X70898Y61687D01*
X71023Y62113D02*X70898Y62238D01*
Y62613D02*Y62238D01*
Y62613D02*X71023Y62738D01*
X71273D01*
X71898Y62113D02*X71273Y62738D01*
X71898D02*Y62113D01*
G54D18*X68838Y63917D02*Y59311D01*
G54D33*X68339Y59462D02*X69214D01*
X69339Y59587D01*
Y60337D02*Y59962D01*
X69214Y59837D02*X69339Y59962D01*
X68964Y59837D02*X69214D01*
X68964D02*X68839Y59962D01*
Y60212D02*Y59962D01*
Y60212D02*X68964Y60337D01*
X69089D02*Y59837D01*
X68964Y60337D02*X69089D01*
X68339Y61137D02*X69339D01*
Y61012D02*X69214Y61137D01*
X69339Y61012D02*Y60762D01*
X69214Y60637D02*X69339Y60762D01*
X68964Y60637D02*X69214D01*
X68964D02*X68839Y60762D01*
Y61012D02*Y60762D01*
Y61012D02*X68964Y61137D01*
X69339Y61812D02*Y61562D01*
X68339Y61687D02*X69339D01*
X68589Y61437D02*X68339Y61687D01*
X68464Y62113D02*X68339Y62238D01*
Y62488D02*Y62238D01*
Y62488D02*X68464Y62613D01*
X69214D01*
X69339Y62488D02*X69214Y62613D01*
X69339Y62488D02*Y62238D01*
X69214Y62113D02*X69339Y62238D01*
X68839Y62613D02*Y62238D01*
G54D18*X66279Y63917D02*Y59311D01*
G54D33*X65780Y59462D02*X66655D01*
X66780Y59587D01*
Y60337D02*Y59962D01*
X66655Y59837D02*X66780Y59962D01*
X66405Y59837D02*X66655D01*
X66405D02*X66280Y59962D01*
Y60212D02*Y59962D01*
Y60212D02*X66405Y60337D01*
X66530D02*Y59837D01*
X66405Y60337D02*X66530D01*
X65780Y61137D02*X66780D01*
Y61012D02*X66655Y61137D01*
X66780Y61012D02*Y60762D01*
X66655Y60637D02*X66780Y60762D01*
X66405Y60637D02*X66655D01*
X66405D02*X66280Y60762D01*
Y61012D02*Y60762D01*
Y61012D02*X66405Y61137D01*
X66780Y61812D02*Y61562D01*
X65780Y61687D02*X66780D01*
X66030Y61437D02*X65780Y61687D01*
X66280Y62113D02*X65780Y62613D01*
X66280Y62738D02*Y62113D01*
X65780Y62613D02*X66780D01*
G54D18*X63721Y63917D02*Y59311D01*
G54D33*X63222Y59462D02*X64097D01*
X64222Y59587D01*
Y60337D02*Y59962D01*
X64097Y59837D02*X64222Y59962D01*
X63847Y59837D02*X64097D01*
X63847D02*X63722Y59962D01*
Y60212D02*Y59962D01*
Y60212D02*X63847Y60337D01*
X63972D02*Y59837D01*
X63847Y60337D02*X63972D01*
X63222Y61137D02*X64222D01*
Y61012D02*X64097Y61137D01*
X64222Y61012D02*Y60762D01*
X64097Y60637D02*X64222Y60762D01*
X63847Y60637D02*X64097D01*
X63847D02*X63722Y60762D01*
Y61012D02*Y60762D01*
Y61012D02*X63847Y61137D01*
X64222Y61812D02*Y61562D01*
X63222Y61687D02*X64222D01*
X63472Y61437D02*X63222Y61687D01*
Y62613D02*Y62113D01*
X63722D01*
X63597Y62238D01*
Y62488D02*Y62238D01*
Y62488D02*X63722Y62613D01*
X64097D01*
X64222Y62488D02*X64097Y62613D01*
X64222Y62488D02*Y62238D01*
X64097Y62113D02*X64222Y62238D01*
G54D18*X61162Y63917D02*Y59311D01*
G54D33*X61288Y59462D02*X61538D01*
X61288D02*X61163Y59587D01*
Y59837D02*Y59587D01*
Y59837D02*X61288Y59962D01*
X61538D01*
X61663Y59837D02*X61538Y59962D01*
X61663Y59837D02*Y59587D01*
X61538Y59462D02*X61663Y59587D01*
Y60762D02*Y60387D01*
X61538Y60262D02*X61663Y60387D01*
X61288Y60262D02*X61538D01*
X61288D02*X61163Y60387D01*
Y60637D02*Y60387D01*
Y60637D02*X61288Y60762D01*
X61413D02*Y60262D01*
X61288Y60762D02*X61413D01*
G54D18*X58603Y63917D02*Y59311D01*
G54D33*X58604Y59837D02*X58729Y59962D01*
X58604Y59837D02*Y59587D01*
X58729Y59462D02*X58604Y59587D01*
X58729Y59462D02*X58979D01*
X59104Y59587D01*
X58604Y59962D02*X58979D01*
X59104Y60087D01*
Y59837D02*Y59587D01*
Y59837D02*X58979Y59962D01*
X58104Y60887D02*Y60387D01*
X58604D01*
X58479Y60512D01*
Y60762D02*Y60512D01*
Y60762D02*X58604Y60887D01*
X58979D01*
X59104Y60762D02*X58979Y60887D01*
X59104Y60762D02*Y60512D01*
X58979Y60387D02*X59104Y60512D01*
G54D18*X56044Y63917D02*Y59311D01*
G54D33*X56545Y59962D02*Y59587D01*
X56420Y59462D02*X56545Y59587D01*
X56170Y59462D02*X56420D01*
X56170D02*X56045Y59587D01*
Y59837D02*Y59587D01*
Y59837D02*X56170Y59962D01*
X56295D02*Y59462D01*
X56170Y59962D02*X56295D01*
X56045Y60262D02*X56545Y60762D01*
Y60262D02*X56045Y60762D01*
X55545Y61187D02*X56420D01*
X56545Y61312D01*
X55920D02*Y61062D01*
X56045Y62062D02*Y61687D01*
X56170Y61562D02*X56045Y61687D01*
X56170Y61562D02*X56420D01*
X56545Y61687D01*
Y62062D02*Y61687D01*
X55545Y62363D02*X56420D01*
X56545Y62488D01*
X55545Y62738D02*X56545D01*
X56170D02*X56545Y63113D01*
X56170Y62738D02*X55920Y62988D01*
X56420Y63413D02*X55670Y64163D01*
X56045Y64838D02*X56170Y64963D01*
X56045Y64838D02*Y64588D01*
X56170Y64463D02*X56045Y64588D01*
X56170Y64463D02*X56420D01*
X56545Y64588D01*
X56045Y64963D02*X56420D01*
X56545Y65088D01*
Y64838D02*Y64588D01*
Y64838D02*X56420Y64963D01*
X55545Y65764D02*X55670Y65889D01*
X55545Y65764D02*Y65514D01*
X55670Y65389D02*X55545Y65514D01*
X55670Y65389D02*X56420D01*
X56545Y65514D01*
X56045Y65764D02*X56170Y65889D01*
X56045Y65764D02*Y65389D01*
X56545Y65764D02*Y65514D01*
Y65764D02*X56420Y65889D01*
X56170D02*X56420D01*
G54D18*X53485Y63917D02*Y59311D01*
G54D33*X53986Y59962D02*Y59587D01*
Y59962D02*X53861Y60087D01*
X53736Y59962D02*X53861Y60087D01*
X53736Y59962D02*Y59587D01*
X53611Y59462D02*X53736Y59587D01*
X53611Y59462D02*X53486Y59587D01*
Y59962D02*Y59587D01*
Y59962D02*X53611Y60087D01*
X53861Y59462D02*X53986Y59587D01*
X53486Y60887D02*Y60512D01*
X53611Y60387D02*X53486Y60512D01*
X53611Y60387D02*X53861D01*
X53986Y60512D01*
Y60887D02*Y60512D01*
X52986Y61187D02*X53861D01*
X53986Y61312D01*
G54D18*X50926Y63917D02*Y59311D01*
G54D33*X51427Y59962D02*Y59587D01*
Y59962D02*X51302Y60087D01*
X51177Y59962D02*X51302Y60087D01*
X51177Y59962D02*Y59587D01*
X51052Y59462D02*X51177Y59587D01*
X51052Y59462D02*X50927Y59587D01*
Y59962D02*Y59587D01*
Y59962D02*X51052Y60087D01*
X51302Y59462D02*X51427Y59587D01*
X50427Y60887D02*X51427D01*
Y60762D02*X51302Y60887D01*
X51427Y60762D02*Y60512D01*
X51302Y60387D02*X51427Y60512D01*
X51052Y60387D02*X51302D01*
X51052D02*X50927Y60512D01*
Y60762D02*Y60512D01*
Y60762D02*X51052Y60887D01*
X50927Y61562D02*X51052Y61687D01*
X50927Y61562D02*Y61312D01*
X51052Y61187D02*X50927Y61312D01*
X51052Y61187D02*X51302D01*
X51427Y61312D01*
X50927Y61687D02*X51302D01*
X51427Y61812D01*
Y61562D02*Y61312D01*
Y61562D02*X51302Y61687D01*
G54D18*X48367Y63917D02*Y59311D01*
G54D33*X48368Y59462D02*X48618D01*
X48868Y59712D01*
X48618Y59962D01*
X48368D02*X48618D01*
X47868Y60762D02*X48868D01*
Y60637D02*X48743Y60762D01*
X48868Y60637D02*Y60387D01*
X48743Y60262D02*X48868Y60387D01*
X48493Y60262D02*X48743D01*
X48493D02*X48368Y60387D01*
Y60637D02*Y60387D01*
Y60637D02*X48493Y60762D01*
X47868Y61562D02*X48868D01*
Y61437D02*X48743Y61562D01*
X48868Y61437D02*Y61187D01*
X48743Y61062D02*X48868Y61187D01*
X48493Y61062D02*X48743D01*
X48493D02*X48368Y61187D01*
Y61437D02*Y61187D01*
Y61437D02*X48493Y61562D01*
G54D19*X62926Y89893D02*Y89107D01*
G54D20*X61941Y89992D02*Y89008D01*
G54D21*X58595Y90681D02*Y88319D01*
G54D19*X66074Y89893D02*Y89107D01*
G54D20*X67059Y89992D02*Y89008D01*
G54D21*X70405Y90681D02*Y88319D01*
G54D22*G54D23*G54D24*G54D23*G54D11*G54D23*M02*
