G04 start of page 6 for group -4062 idx -4062 *
G04 Title: (unknown), soldermask *
G04 Creator: pcb 20100929 *
G04 CreationDate: Fri Apr  4 23:49:54 2014 UTC *
G04 For: xpi *
G04 Format: Gerber/RS-274X *
G04 PCB-Dimensions: 200000 100000 *
G04 PCB-Coordinate-Origin: lower left *
%MOIN*%
%FSLAX25Y25*%
%LNBACKMASK*%
%ADD11C,0.0200*%
%ADD26C,0.0660*%
%ADD28R,0.0257X0.0257*%
%ADD29R,0.0355X0.0355*%
%ADD30R,0.0572X0.0572*%
G54D26*X160000Y15000D03*
X170000D03*
Y85000D03*
Y55000D03*
X180000Y15000D03*
G54D11*G36*
X176700Y88300D02*Y81700D01*
X183300D01*
Y88300D01*
X176700D01*
G37*
G54D26*X180000Y55000D03*
Y45000D03*
X170000D03*
X160000D03*
Y55000D03*
X120000Y15000D03*
X130000D03*
X140000D03*
X150000D03*
G54D11*G36*
X86700Y18300D02*Y11700D01*
X93300D01*
Y18300D01*
X86700D01*
G37*
G54D26*X100000Y15000D03*
X110000D03*
X150000Y45000D03*
X140000D03*
X130000D03*
X120000D03*
X110000D03*
X100000D03*
X90000D03*
Y55000D03*
X100000D03*
X110000D03*
X160000Y85000D03*
X150000D03*
X140000D03*
X130000D03*
X120000D03*
X110000D03*
X100000D03*
X90000D03*
X120000Y55000D03*
X130000D03*
X140000D03*
X150000D03*
X190000Y10000D03*
Y90000D03*
X180000Y95000D03*
X10000Y90000D03*
Y10000D03*
Y20000D03*
Y30000D03*
Y40000D03*
X25500Y89000D03*
X35500D03*
X25500Y79000D03*
X35500D03*
X25500Y69000D03*
X35500D03*
X50000Y69500D03*
X25500Y59000D03*
Y49000D03*
X35500Y59000D03*
Y49000D03*
X25500Y39000D03*
Y29000D03*
X35500D03*
Y39000D03*
X170000Y95000D03*
X160000D03*
X150000D03*
X140000D03*
X130000D03*
X120000D03*
X110000D03*
X100000D03*
X90000D03*
X80000D03*
X86000Y38500D03*
X180500Y5500D03*
X170500D03*
X160500D03*
X150500D03*
X140500D03*
X130500D03*
X120500D03*
X110500D03*
X100500D03*
X90500D03*
X80500D03*
G54D28*X70607Y15074D02*X71393D01*
X70607Y11926D02*X71393D01*
G54D29*X70508Y10941D02*X71492D01*
G54D30*X69819Y7595D02*X72181D01*
G54D29*X70508Y16059D02*X71492D01*
G54D30*X69819Y19405D02*X72181D01*
G54D28*X53426Y83893D02*Y83107D01*
X56574Y83893D02*Y83107D01*
G54D29*X52441Y83992D02*Y83008D01*
X57559Y83992D02*Y83008D01*
G54D30*X49095Y84681D02*Y82319D01*
X60905Y84681D02*Y82319D01*
M02*
