M48
INCH
T11C0.020
T22C0.028
T23C0.038
T24C0.015
%
T24
X005000Y005700
X005400Y005650
T11
X015000Y006750
X014000Y006900
X013000Y007150
X007900Y008750
X012000Y007350
T22
X009000Y001500
X010000Y001500
X011000Y001500
X015000Y004500
X014000Y004500
X013000Y004500
X012000Y004500
X011000Y004500
X010000Y004500
X009000Y004500
X009000Y005500
X010000Y005500
X011000Y005500
X016000Y008500
X015000Y008500
X014000Y008500
X013000Y008500
X012000Y008500
X011000Y008500
X010000Y008500
X009000Y008500
X012000Y005500
X013000Y005500
X014000Y005500
X015000Y005500
X017000Y001500
X017000Y008500
X017000Y005500
X018000Y001500
X018000Y008500
X016000Y001500
X018000Y005500
X017000Y004500
X018000Y004500
X016000Y004500
X016000Y005500
X012000Y001500
X013000Y001500
X014000Y001500
X015000Y001500
T23
X008050Y000550
X019000Y001000
X019000Y009000
X018000Y009500
X001000Y009000
X001000Y001000
X001000Y002000
X001000Y003000
X001000Y004000
X002550Y008900
X003550Y008900
X002550Y007900
X003550Y007900
X002550Y006900
X003550Y006900
X005000Y006950
X002550Y005900
X002550Y004900
X003550Y005900
X003550Y004900
X002550Y003900
X002550Y002900
X003550Y002900
X003550Y003900
X017000Y009500
X016000Y009500
X015000Y009500
X014000Y009500
X013000Y009500
X012000Y009500
X011000Y009500
X010000Y009500
X009000Y009500
X008000Y009500
X008600Y003850
X018050Y000550
X017050Y000550
X016050Y000550
X015050Y000550
X014050Y000550
X013050Y000550
X012050Y000550
X011050Y000550
X010050Y000550
X009050Y000550
M30
