G04 start of page 7 for group -4079 idx -4079 *
G04 Title: (unknown), topsilk *
G04 Creator: pcb 20100929 *
G04 CreationDate: Fri Apr  4 23:49:54 2014 UTC *
G04 For: xpi *
G04 Format: Gerber/RS-274X *
G04 PCB-Dimensions: 200000 100000 *
G04 PCB-Coordinate-Origin: lower left *
%MOIN*%
%FSLAX25Y25*%
%LNFRONTSILK*%
%ADD12C,0.0100*%
%ADD14C,0.0070*%
G54D12*X175000Y90000D02*X185000D01*
Y98000D02*Y90000D01*
X185500Y8500D02*Y500D01*
X139500Y80000D02*Y72500D01*
X136500Y75000D02*X142500D01*
X136500Y77500D02*X139500Y74500D01*
Y75000D01*
X142000Y77500D01*
X137000D01*
X164500Y64500D02*Y34000D01*
G54D14*X36500Y94500D02*X37500D01*
X31000Y96000D02*Y26000D01*
X25500Y95500D02*Y93500D01*
X26500Y94500D02*X24500D01*
X36000Y95500D02*X38000D01*
X13500Y10500D02*X18500D01*
X14500Y9000D02*X17500D01*
G54D12*X85500Y8500D02*Y500D01*
X75500Y8500D02*Y500D01*
G54D14*X16000Y40000D02*X14000D01*
X15000Y41000D02*Y39000D01*
G54D12*X75000Y98000D02*Y90000D01*
X85000Y98000D02*Y90000D01*
X164500Y64500D02*X85000D01*
X140000Y39000D02*Y21500D01*
X137000Y30500D02*X143500D01*
X140000D02*X137500Y28000D01*
X143000D01*
X140500Y30500D01*
X164500Y34000D02*X85500D01*
X40500Y37000D02*X41500D01*
X41000Y41000D02*Y37000D01*
X40000Y40000D02*X41000Y41000D01*
X39500Y50500D02*X40000Y51000D01*
X41500D01*
X42000Y50500D01*
Y49500D01*
X39500Y47000D02*X42000Y49500D01*
X39500Y47000D02*X42000D01*
X40000Y27500D02*X40500Y27000D01*
X40000Y30500D02*Y27500D01*
Y30500D02*X40500Y31000D01*
X41500D01*
X42000Y30500D01*
Y27500D01*
X41500Y27000D02*X42000Y27500D01*
X40500Y27000D02*X41500D01*
X40000Y28000D02*X42000Y30000D01*
X25000Y24000D02*X25500Y23500D01*
X24000Y24000D02*X25000D01*
X23500Y23500D02*X24000Y24000D01*
X23500Y23500D02*Y22500D01*
X24000Y22000D01*
X25500Y24000D02*Y22500D01*
X26000Y22000D01*
X24000D02*X25000D01*
X25500Y22500D01*
X29201Y26000D02*Y22000D01*
X28701D02*X29201Y22500D01*
X27701Y22000D02*X28701D01*
X27201Y22500D02*X27701Y22000D01*
X27201Y23500D02*Y22500D01*
Y23500D02*X27701Y24000D01*
X28701D01*
X29201Y23500D01*
X32402Y26000D02*Y22000D01*
X31902D02*X32402Y22500D01*
X30902Y22000D02*X31902D01*
X30402Y22500D02*X30902Y22000D01*
X30402Y23500D02*Y22500D01*
Y23500D02*X30902Y24000D01*
X31902D01*
X32402Y23500D01*
X34103D02*Y22000D01*
Y23500D02*X34603Y24000D01*
X35603D01*
X33603D02*X34103Y23500D01*
X37304Y22000D02*X38804D01*
X36804Y22500D02*X37304Y22000D01*
X36804Y23500D02*Y22500D01*
Y23500D02*X37304Y24000D01*
X38304D01*
X38804Y23500D01*
X36804Y23000D02*X38804D01*
Y23500D02*Y23000D01*
X40505Y22000D02*X42005D01*
X42505Y22500D01*
X42005Y23000D02*X42505Y22500D01*
X40505Y23000D02*X42005D01*
X40005Y23500D02*X40505Y23000D01*
X40005Y23500D02*X40505Y24000D01*
X42005D01*
X42505Y23500D01*
X40005Y22500D02*X40505Y22000D01*
X44206D02*X45706D01*
X46206Y22500D01*
X45706Y23000D02*X46206Y22500D01*
X44206Y23000D02*X45706D01*
X43706Y23500D02*X44206Y23000D01*
X43706Y23500D02*X44206Y24000D01*
X45706D01*
X46206Y23500D01*
X43706Y22500D02*X44206Y22000D01*
X40000Y81000D02*X42000D01*
X40000D02*Y79000D01*
X40500Y79500D01*
X41500D01*
X42000Y79000D01*
Y77500D01*
X41500Y77000D02*X42000Y77500D01*
X40500Y77000D02*X41500D01*
X40000Y77500D02*X40500Y77000D01*
X39500Y60000D02*X40000Y60500D01*
X41000D01*
X41500Y60000D01*
Y57000D01*
X41000Y56500D02*X41500Y57000D01*
X40000Y56500D02*X41000D01*
X39500Y57000D02*X40000Y56500D01*
Y58500D02*X41500D01*
X39500Y69000D02*X41500Y71000D01*
X39500Y69000D02*X42000D01*
X41500Y71000D02*Y67000D01*
X16500Y32000D02*Y28000D01*
X16000D02*X16500Y28500D01*
X15000Y28000D02*X16000D01*
X14500Y28500D02*X15000Y28000D01*
X14500Y29500D02*Y28500D01*
Y29500D02*X15000Y30000D01*
X16000D01*
X16500Y29500D01*
X15000Y20000D02*X16500D01*
X14500Y19500D02*X15000Y20000D01*
X14500Y19500D02*Y18500D01*
X15000Y18000D01*
X16500D01*
X159000Y36000D02*X159500Y35500D01*
X159000Y39000D02*Y36000D01*
Y39000D02*X159500Y39500D01*
X160500D01*
X161000Y39000D01*
Y36000D01*
X160500Y35500D02*X161000Y36000D01*
X159500Y35500D02*X160500D01*
X159000Y36500D02*X161000Y38500D01*
X159000Y60000D02*X159500Y59500D01*
X159000Y61000D02*Y60000D01*
Y61000D02*X159500Y61500D01*
X160500D01*
X161000Y61000D01*
Y60000D01*
X160500Y59500D02*X161000Y60000D01*
X159500Y59500D02*X160500D01*
X159000Y62000D02*X159500Y61500D01*
X159000Y63000D02*Y62000D01*
Y63000D02*X159500Y63500D01*
X160500D01*
X161000Y63000D01*
Y62000D01*
X160500Y61500D02*X161000Y62000D01*
X90000Y36500D02*X92500Y39000D01*
Y40500D02*Y39000D01*
X90000Y40500D02*X92500D01*
X88000Y60000D02*X89000D01*
X88500Y64000D02*Y60000D01*
X87500Y63000D02*X88500Y64000D01*
X90201D02*X92201D01*
X90201D02*Y62000D01*
X90701Y62500D01*
X91701D01*
X92201Y62000D01*
Y60500D01*
X91701Y60000D02*X92201Y60500D01*
X90701Y60000D02*X91701D01*
X90201Y60500D02*X90701Y60000D01*
X85000Y90000D02*X185000D01*
X85000D02*Y50000D01*
X185000D01*
Y90000D02*Y75000D01*
Y65000D02*Y50000D01*
Y75000D02*G75*G03X185000Y65000I0J-5000D01*G01*
X79805Y82103D02*Y76103D01*
X65305Y75103D02*Y76103D01*
X77805Y79103D02*Y77603D01*
X61805Y79603D02*X63305Y78103D01*
X71805D02*X72305Y77603D01*
X74805Y80603D02*X73805D01*
Y79103D01*
X64805Y79603D02*X66305Y78103D01*
X79805Y76103D02*X68305D01*
X63305Y79603D02*X61805Y78103D01*
X76805Y79103D02*X77805D01*
X73805D02*X74805D01*
X69305Y82103D02*X79805D01*
X70805Y78103D02*Y79103D01*
X71805D01*
X62305Y76103D02*X66805D01*
X62305D02*Y75103D01*
X71805Y79103D02*Y78103D01*
X69305Y76603D02*Y82103D01*
X74805Y77603D02*X73805D01*
X74805Y79103D02*Y77603D01*
X66305Y79603D02*X64805Y78103D01*
X76305Y80603D02*Y77603D01*
X46717Y34434D02*X83283D01*
Y65566D02*Y34434D01*
X46717Y65566D02*X83283D01*
X46717Y47500D02*Y34434D01*
Y65566D02*Y52500D01*
Y47500D02*G75*G03X46717Y52500I0J2500D01*G01*
X85000Y10000D02*X185000D01*
Y50000D02*Y10000D01*
X85000Y50000D02*X185000D01*
X85000Y25000D02*Y10000D01*
Y50000D02*Y35000D01*
Y25000D02*G75*G03X85000Y35000I0J5000D01*G01*
M02*
