G04 start of page 11 for group -3984 idx -3984 *
G04 Title: (unknown), fab *
G04 Creator: pcb 20100929 *
G04 CreationDate: Fri Apr  4 23:49:54 2014 UTC *
G04 For: xpi *
G04 Format: Gerber/RS-274X *
G04 PCB-Dimensions: 200000 100000 *
G04 PCB-Coordinate-Origin: lower left *
%MOIN*%
%FSLAX25Y25*%
%LNFAB*%
%ADD12C,0.0100*%
%ADD31R,0.0080X0.0080*%
%ADD32C,0.0060*%
G54D31*X9200Y90000D02*G75*G03X10800Y90000I800J0D01*G01*
G75*G03X9200Y90000I-800J0D01*G01*
Y10000D02*G75*G03X10800Y10000I800J0D01*G01*
G75*G03X9200Y10000I-800J0D01*G01*
X189200D02*G75*G03X190800Y10000I800J0D01*G01*
G75*G03X189200Y10000I-800J0D01*G01*
Y90000D02*G75*G03X190800Y90000I800J0D01*G01*
G75*G03X189200Y90000I-800J0D01*G01*
X9200Y20000D02*G75*G03X10800Y20000I800J0D01*G01*
G75*G03X9200Y20000I-800J0D01*G01*
Y30000D02*G75*G03X10800Y30000I800J0D01*G01*
G75*G03X9200Y30000I-800J0D01*G01*
Y40000D02*G75*G03X10800Y40000I800J0D01*G01*
G75*G03X9200Y40000I-800J0D01*G01*
X24700Y89000D02*G75*G03X26300Y89000I800J0D01*G01*
G75*G03X24700Y89000I-800J0D01*G01*
Y79000D02*G75*G03X26300Y79000I800J0D01*G01*
G75*G03X24700Y79000I-800J0D01*G01*
Y69000D02*G75*G03X26300Y69000I800J0D01*G01*
G75*G03X24700Y69000I-800J0D01*G01*
Y59000D02*G75*G03X26300Y59000I800J0D01*G01*
G75*G03X24700Y59000I-800J0D01*G01*
Y49000D02*G75*G03X26300Y49000I800J0D01*G01*
G75*G03X24700Y49000I-800J0D01*G01*
Y39000D02*G75*G03X26300Y39000I800J0D01*G01*
G75*G03X24700Y39000I-800J0D01*G01*
Y29000D02*G75*G03X26300Y29000I800J0D01*G01*
G75*G03X24700Y29000I-800J0D01*G01*
X34700D02*G75*G03X36300Y29000I800J0D01*G01*
G75*G03X34700Y29000I-800J0D01*G01*
Y39000D02*G75*G03X36300Y39000I800J0D01*G01*
G75*G03X34700Y39000I-800J0D01*G01*
Y89000D02*G75*G03X36300Y89000I800J0D01*G01*
G75*G03X34700Y89000I-800J0D01*G01*
Y79000D02*G75*G03X36300Y79000I800J0D01*G01*
G75*G03X34700Y79000I-800J0D01*G01*
Y69000D02*G75*G03X36300Y69000I800J0D01*G01*
G75*G03X34700Y69000I-800J0D01*G01*
Y59000D02*G75*G03X36300Y59000I800J0D01*G01*
G75*G03X34700Y59000I-800J0D01*G01*
Y49000D02*G75*G03X36300Y49000I800J0D01*G01*
G75*G03X34700Y49000I-800J0D01*G01*
X179200Y95000D02*G75*G03X180800Y95000I800J0D01*G01*
G75*G03X179200Y95000I-800J0D01*G01*
X169200D02*G75*G03X170800Y95000I800J0D01*G01*
G75*G03X169200Y95000I-800J0D01*G01*
X159200D02*G75*G03X160800Y95000I800J0D01*G01*
G75*G03X159200Y95000I-800J0D01*G01*
X149200D02*G75*G03X150800Y95000I800J0D01*G01*
G75*G03X149200Y95000I-800J0D01*G01*
X139200D02*G75*G03X140800Y95000I800J0D01*G01*
G75*G03X139200Y95000I-800J0D01*G01*
X129200D02*G75*G03X130800Y95000I800J0D01*G01*
G75*G03X129200Y95000I-800J0D01*G01*
X119200D02*G75*G03X120800Y95000I800J0D01*G01*
G75*G03X119200Y95000I-800J0D01*G01*
X109200D02*G75*G03X110800Y95000I800J0D01*G01*
G75*G03X109200Y95000I-800J0D01*G01*
X99200D02*G75*G03X100800Y95000I800J0D01*G01*
G75*G03X99200Y95000I-800J0D01*G01*
X89200D02*G75*G03X90800Y95000I800J0D01*G01*
G75*G03X89200Y95000I-800J0D01*G01*
X79200D02*G75*G03X80800Y95000I800J0D01*G01*
G75*G03X79200Y95000I-800J0D01*G01*
X85200Y38500D02*G75*G03X86800Y38500I800J0D01*G01*
G75*G03X85200Y38500I-800J0D01*G01*
X49200Y69500D02*G75*G03X50800Y69500I800J0D01*G01*
G75*G03X49200Y69500I-800J0D01*G01*
X179700Y5500D02*G75*G03X181300Y5500I800J0D01*G01*
G75*G03X179700Y5500I-800J0D01*G01*
X169700D02*G75*G03X171300Y5500I800J0D01*G01*
G75*G03X169700Y5500I-800J0D01*G01*
X159700D02*G75*G03X161300Y5500I800J0D01*G01*
G75*G03X159700Y5500I-800J0D01*G01*
X149700D02*G75*G03X151300Y5500I800J0D01*G01*
G75*G03X149700Y5500I-800J0D01*G01*
X139700D02*G75*G03X141300Y5500I800J0D01*G01*
G75*G03X139700Y5500I-800J0D01*G01*
X129700D02*G75*G03X131300Y5500I800J0D01*G01*
G75*G03X129700Y5500I-800J0D01*G01*
X119700D02*G75*G03X121300Y5500I800J0D01*G01*
G75*G03X119700Y5500I-800J0D01*G01*
X109700D02*G75*G03X111300Y5500I800J0D01*G01*
G75*G03X109700Y5500I-800J0D01*G01*
X99700D02*G75*G03X101300Y5500I800J0D01*G01*
G75*G03X99700Y5500I-800J0D01*G01*
X89700D02*G75*G03X91300Y5500I800J0D01*G01*
G75*G03X89700Y5500I-800J0D01*G01*
X79700D02*G75*G03X81300Y5500I800J0D01*G01*
G75*G03X79700Y5500I-800J0D01*G01*
X14200Y111250D02*G75*G03X15800Y111250I800J0D01*G01*
G75*G03X14200Y111250I-800J0D01*G01*
G54D32*X135000Y113500D02*Y112750D01*
X136500Y111250D01*
X138000Y112750D01*
Y113500D02*Y112750D01*
X136500Y111250D02*Y107500D01*
X139801Y110500D02*X142051D01*
X139801Y107500D02*X142801D01*
X139801Y113500D02*Y107500D01*
Y113500D02*X142801D01*
X147603D02*X148353Y112750D01*
X145353Y113500D02*X147603D01*
X144603Y112750D02*X145353Y113500D01*
X144603Y112750D02*Y111250D01*
X145353Y110500D01*
X147603D01*
X148353Y109750D01*
Y108250D01*
X147603Y107500D02*X148353Y108250D01*
X145353Y107500D02*X147603D01*
X144603Y108250D02*X145353Y107500D01*
X135000Y104249D02*X150154D01*
X98000Y110500D02*X101000Y113500D01*
X98000Y110500D02*X101750D01*
X101000Y113500D02*Y107500D01*
X103551Y113500D02*X106551D01*
X103551D02*Y110500D01*
X104301Y111250D01*
X105801D01*
X106551Y110500D01*
Y108250D01*
X105801Y107500D02*X106551Y108250D01*
X104301Y107500D02*X105801D01*
X103551Y108250D02*X104301Y107500D01*
X98000Y104249D02*X108353D01*
X45000Y108250D02*X45750Y107500D01*
X45000Y112750D02*Y108250D01*
Y112750D02*X45750Y113500D01*
X47250D01*
X48000Y112750D01*
Y108250D01*
X47250Y107500D02*X48000Y108250D01*
X45750Y107500D02*X47250D01*
X45000Y109000D02*X48000Y112000D01*
X49801Y107500D02*X50551D01*
X52353Y108250D02*X53103Y107500D01*
X52353Y112750D02*Y108250D01*
Y112750D02*X53103Y113500D01*
X54603D01*
X55353Y112750D01*
Y108250D01*
X54603Y107500D02*X55353Y108250D01*
X53103Y107500D02*X54603D01*
X52353Y109000D02*X55353Y112000D01*
X57154Y112750D02*X57904Y113500D01*
X59404D01*
X60154Y112750D01*
Y108250D01*
X59404Y107500D02*X60154Y108250D01*
X57904Y107500D02*X59404D01*
X57154Y108250D02*X57904Y107500D01*
Y110500D02*X60154D01*
X61956Y108250D02*X62706Y107500D01*
X61956Y109750D02*Y108250D01*
Y109750D02*X62706Y110500D01*
X64206D01*
X64956Y109750D01*
Y108250D01*
X64206Y107500D02*X64956Y108250D01*
X62706Y107500D02*X64206D01*
X61956Y111250D02*X62706Y110500D01*
X61956Y112750D02*Y111250D01*
Y112750D02*X62706Y113500D01*
X64206D01*
X64956Y112750D01*
Y111250D01*
X64206Y110500D02*X64956Y111250D01*
X45000Y104249D02*X66757D01*
X178800Y86200D02*X181200Y83800D01*
X178800D02*X181200Y86200D01*
X168800D02*X171200Y83800D01*
X168800D02*X171200Y86200D01*
X158800D02*X161200Y83800D01*
X158800D02*X161200Y86200D01*
X148800D02*X151200Y83800D01*
X148800D02*X151200Y86200D01*
X138800D02*X141200Y83800D01*
X138800D02*X141200Y86200D01*
X128800D02*X131200Y83800D01*
X128800D02*X131200Y86200D01*
X118800D02*X121200Y83800D01*
X118800D02*X121200Y86200D01*
X108800D02*X111200Y83800D01*
X108800D02*X111200Y86200D01*
X98800D02*X101200Y83800D01*
X98800D02*X101200Y86200D01*
X88800D02*X91200Y83800D01*
X88800D02*X91200Y86200D01*
X88800Y56200D02*X91200Y53800D01*
X88800D02*X91200Y56200D01*
X98800D02*X101200Y53800D01*
X98800D02*X101200Y56200D01*
X108800D02*X111200Y53800D01*
X108800D02*X111200Y56200D01*
X118800D02*X121200Y53800D01*
X118800D02*X121200Y56200D01*
X128800D02*X131200Y53800D01*
X128800D02*X131200Y56200D01*
X138800D02*X141200Y53800D01*
X138800D02*X141200Y56200D01*
X148800D02*X151200Y53800D01*
X148800D02*X151200Y56200D01*
X158800D02*X161200Y53800D01*
X158800D02*X161200Y56200D01*
X168800D02*X171200Y53800D01*
X168800D02*X171200Y56200D01*
X178800D02*X181200Y53800D01*
X178800D02*X181200Y56200D01*
X88800Y16200D02*X91200Y13800D01*
X88800D02*X91200Y16200D01*
X98800D02*X101200Y13800D01*
X98800D02*X101200Y16200D01*
X108800D02*X111200Y13800D01*
X108800D02*X111200Y16200D01*
X118800D02*X121200Y13800D01*
X118800D02*X121200Y16200D01*
X128800D02*X131200Y13800D01*
X128800D02*X131200Y16200D01*
X138800D02*X141200Y13800D01*
X138800D02*X141200Y16200D01*
X148800D02*X151200Y13800D01*
X148800D02*X151200Y16200D01*
X158800D02*X161200Y13800D01*
X158800D02*X161200Y16200D01*
X168800D02*X171200Y13800D01*
X168800D02*X171200Y16200D01*
X178800D02*X181200Y13800D01*
X178800D02*X181200Y16200D01*
X178800Y46200D02*X181200Y43800D01*
X178800D02*X181200Y46200D01*
X168800D02*X171200Y43800D01*
X168800D02*X171200Y46200D01*
X158800D02*X161200Y43800D01*
X158800D02*X161200Y46200D01*
X148800D02*X151200Y43800D01*
X148800D02*X151200Y46200D01*
X138800D02*X141200Y43800D01*
X138800D02*X141200Y46200D01*
X128800D02*X131200Y43800D01*
X128800D02*X131200Y46200D01*
X118800D02*X121200Y43800D01*
X118800D02*X121200Y46200D01*
X108800D02*X111200Y43800D01*
X108800D02*X111200Y46200D01*
X98800D02*X101200Y43800D01*
X98800D02*X101200Y46200D01*
X88800D02*X91200Y43800D01*
X88800D02*X91200Y46200D01*
X13800Y127450D02*X16200Y125050D01*
X13800D02*X16200Y127450D01*
X135000Y128500D02*Y127750D01*
X136500Y126250D01*
X138000Y127750D01*
Y128500D02*Y127750D01*
X136500Y126250D02*Y122500D01*
X139801Y125500D02*X142051D01*
X139801Y122500D02*X142801D01*
X139801Y128500D02*Y122500D01*
Y128500D02*X142801D01*
X147603D02*X148353Y127750D01*
X145353Y128500D02*X147603D01*
X144603Y127750D02*X145353Y128500D01*
X144603Y127750D02*Y126250D01*
X145353Y125500D01*
X147603D01*
X148353Y124750D01*
Y123250D01*
X147603Y122500D02*X148353Y123250D01*
X145353Y122500D02*X147603D01*
X144603Y123250D02*X145353Y122500D01*
X135000Y119249D02*X150154D01*
X98000Y125500D02*X101000Y128500D01*
X98000Y125500D02*X101750D01*
X101000Y128500D02*Y122500D01*
X103551Y123250D02*X104301Y122500D01*
X103551Y127750D02*Y123250D01*
Y127750D02*X104301Y128500D01*
X105801D01*
X106551Y127750D01*
Y123250D01*
X105801Y122500D02*X106551Y123250D01*
X104301Y122500D02*X105801D01*
X103551Y124000D02*X106551Y127000D01*
X98000Y119249D02*X108353D01*
X45000Y123250D02*X45750Y122500D01*
X45000Y127750D02*Y123250D01*
Y127750D02*X45750Y128500D01*
X47250D01*
X48000Y127750D01*
Y123250D01*
X47250Y122500D02*X48000Y123250D01*
X45750Y122500D02*X47250D01*
X45000Y124000D02*X48000Y127000D01*
X49801Y122500D02*X50551D01*
X52353Y123250D02*X53103Y122500D01*
X52353Y127750D02*Y123250D01*
Y127750D02*X53103Y128500D01*
X54603D01*
X55353Y127750D01*
Y123250D01*
X54603Y122500D02*X55353Y123250D01*
X53103Y122500D02*X54603D01*
X52353Y124000D02*X55353Y127000D01*
X57154Y127750D02*X57904Y128500D01*
X60154D01*
X60904Y127750D01*
Y126250D01*
X57154Y122500D02*X60904Y126250D01*
X57154Y122500D02*X60904D01*
X62706Y123250D02*X63456Y122500D01*
X62706Y124750D02*Y123250D01*
Y124750D02*X63456Y125500D01*
X64956D01*
X65706Y124750D01*
Y123250D01*
X64956Y122500D02*X65706Y123250D01*
X63456Y122500D02*X64956D01*
X62706Y126250D02*X63456Y125500D01*
X62706Y127750D02*Y126250D01*
Y127750D02*X63456Y128500D01*
X64956D01*
X65706Y127750D01*
Y126250D01*
X64956Y125500D02*X65706Y126250D01*
X45000Y119249D02*X67507D01*
X150000Y69100D02*Y65900D01*
X148400Y67500D02*X151600D01*
X140000Y70600D02*Y67400D01*
X138400Y69000D02*X141600D01*
X130000Y73100D02*Y69900D01*
X128400Y71500D02*X131600D01*
X120000Y75100D02*Y71900D01*
X118400Y73500D02*X121600D01*
X79000Y89100D02*Y85900D01*
X77400Y87500D02*X80600D01*
X15000Y142850D02*Y139650D01*
X13400Y141250D02*X16600D01*
X135000Y143500D02*Y142750D01*
X136500Y141250D01*
X138000Y142750D01*
Y143500D02*Y142750D01*
X136500Y141250D02*Y137500D01*
X139801Y140500D02*X142051D01*
X139801Y137500D02*X142801D01*
X139801Y143500D02*Y137500D01*
Y143500D02*X142801D01*
X147603D02*X148353Y142750D01*
X145353Y143500D02*X147603D01*
X144603Y142750D02*X145353Y143500D01*
X144603Y142750D02*Y141250D01*
X145353Y140500D01*
X147603D01*
X148353Y139750D01*
Y138250D01*
X147603Y137500D02*X148353Y138250D01*
X145353Y137500D02*X147603D01*
X144603Y138250D02*X145353Y137500D01*
X135000Y134249D02*X150154D01*
X98000Y143500D02*X101000D01*
X98000D02*Y140500D01*
X98750Y141250D01*
X100250D01*
X101000Y140500D01*
Y138250D01*
X100250Y137500D02*X101000Y138250D01*
X98750Y137500D02*X100250D01*
X98000Y138250D02*X98750Y137500D01*
X98000Y134249D02*X102801D01*
X45000Y138250D02*X45750Y137500D01*
X45000Y142750D02*Y138250D01*
Y142750D02*X45750Y143500D01*
X47250D01*
X48000Y142750D01*
Y138250D01*
X47250Y137500D02*X48000Y138250D01*
X45750Y137500D02*X47250D01*
X45000Y139000D02*X48000Y142000D01*
X49801Y137500D02*X50551D01*
X52353Y138250D02*X53103Y137500D01*
X52353Y142750D02*Y138250D01*
Y142750D02*X53103Y143500D01*
X54603D01*
X55353Y142750D01*
Y138250D01*
X54603Y137500D02*X55353Y138250D01*
X53103Y137500D02*X54603D01*
X52353Y139000D02*X55353Y142000D01*
X57154Y142750D02*X57904Y143500D01*
X60154D01*
X60904Y142750D01*
Y141250D01*
X57154Y137500D02*X60904Y141250D01*
X57154Y137500D02*X60904D01*
X62706Y138250D02*X63456Y137500D01*
X62706Y142750D02*Y138250D01*
Y142750D02*X63456Y143500D01*
X64956D01*
X65706Y142750D01*
Y138250D01*
X64956Y137500D02*X65706Y138250D01*
X63456Y137500D02*X64956D01*
X62706Y139000D02*X65706Y142000D01*
X45000Y134249D02*X67507D01*
X54000Y56500D02*Y54900D01*
Y56500D02*X55386Y57300D01*
X54000Y56500D02*X52614Y57300D01*
X50000Y57000D02*Y55400D01*
Y57000D02*X51386Y57800D01*
X50000Y57000D02*X48614Y57800D01*
X15000Y156250D02*Y154650D01*
Y156250D02*X16386Y157050D01*
X15000Y156250D02*X13614Y157050D01*
X135000Y158500D02*Y157750D01*
X136500Y156250D01*
X138000Y157750D01*
Y158500D02*Y157750D01*
X136500Y156250D02*Y152500D01*
X139801Y155500D02*X142051D01*
X139801Y152500D02*X142801D01*
X139801Y158500D02*Y152500D01*
Y158500D02*X142801D01*
X147603D02*X148353Y157750D01*
X145353Y158500D02*X147603D01*
X144603Y157750D02*X145353Y158500D01*
X144603Y157750D02*Y156250D01*
X145353Y155500D01*
X147603D01*
X148353Y154750D01*
Y153250D01*
X147603Y152500D02*X148353Y153250D01*
X145353Y152500D02*X147603D01*
X144603Y153250D02*X145353Y152500D01*
X135000Y149249D02*X150154D01*
X98000Y157750D02*X98750Y158500D01*
X101000D01*
X101750Y157750D01*
Y156250D01*
X98000Y152500D02*X101750Y156250D01*
X98000Y152500D02*X101750D01*
X98000Y149249D02*X103551D01*
X45000Y153250D02*X45750Y152500D01*
X45000Y157750D02*Y153250D01*
Y157750D02*X45750Y158500D01*
X47250D01*
X48000Y157750D01*
Y153250D01*
X47250Y152500D02*X48000Y153250D01*
X45750Y152500D02*X47250D01*
X45000Y154000D02*X48000Y157000D01*
X49801Y152500D02*X50551D01*
X52353Y153250D02*X53103Y152500D01*
X52353Y157750D02*Y153250D01*
Y157750D02*X53103Y158500D01*
X54603D01*
X55353Y157750D01*
Y153250D01*
X54603Y152500D02*X55353Y153250D01*
X53103Y152500D02*X54603D01*
X52353Y154000D02*X55353Y157000D01*
X57904Y152500D02*X59404D01*
X58654Y158500D02*Y152500D01*
X57154Y157000D02*X58654Y158500D01*
X61206D02*X64206D01*
X61206D02*Y155500D01*
X61956Y156250D01*
X63456D01*
X64206Y155500D01*
Y153250D01*
X63456Y152500D02*X64206Y153250D01*
X61956Y152500D02*X63456D01*
X61206Y153250D02*X61956Y152500D01*
X45000Y149249D02*X66007D01*
X3000Y173500D02*X3750Y172750D01*
X750Y173500D02*X3000D01*
X0Y172750D02*X750Y173500D01*
X0Y172750D02*Y171250D01*
X750Y170500D01*
X3000D01*
X3750Y169750D01*
Y168250D01*
X3000Y167500D02*X3750Y168250D01*
X750Y167500D02*X3000D01*
X0Y168250D02*X750Y167500D01*
X5551Y170500D02*Y168250D01*
X6301Y167500D01*
X8551Y170500D02*Y166000D01*
X7801Y165250D02*X8551Y166000D01*
X6301Y165250D02*X7801D01*
X5551Y166000D02*X6301Y165250D01*
Y167500D02*X7801D01*
X8551Y168250D01*
X11103Y169750D02*Y167500D01*
Y169750D02*X11853Y170500D01*
X12603D01*
X13353Y169750D01*
Y167500D01*
Y169750D02*X14103Y170500D01*
X14853D01*
X15603Y169750D01*
Y167500D01*
X10353Y170500D02*X11103Y169750D01*
X17404Y173500D02*Y167500D01*
Y168250D02*X18154Y167500D01*
X19654D01*
X20404Y168250D01*
Y169750D02*Y168250D01*
X19654Y170500D02*X20404Y169750D01*
X18154Y170500D02*X19654D01*
X17404Y169750D02*X18154Y170500D01*
X22206Y169750D02*Y168250D01*
Y169750D02*X22956Y170500D01*
X24456D01*
X25206Y169750D01*
Y168250D01*
X24456Y167500D02*X25206Y168250D01*
X22956Y167500D02*X24456D01*
X22206Y168250D02*X22956Y167500D01*
X27007Y173500D02*Y168250D01*
X27757Y167500D01*
X41750Y173500D02*Y167500D01*
X44000Y173500D02*X44750Y172750D01*
Y168250D01*
X44000Y167500D02*X44750Y168250D01*
X41000Y167500D02*X44000D01*
X41000Y173500D02*X44000D01*
X46551Y172000D02*Y171250D01*
Y169750D02*Y167500D01*
X50303Y170500D02*X51053Y169750D01*
X48803Y170500D02*X50303D01*
X48053Y169750D02*X48803Y170500D01*
X48053Y169750D02*Y168250D01*
X48803Y167500D01*
X51053Y170500D02*Y168250D01*
X51803Y167500D01*
X48803D02*X50303D01*
X51053Y168250D01*
X54354Y169750D02*Y167500D01*
Y169750D02*X55104Y170500D01*
X55854D01*
X56604Y169750D01*
Y167500D01*
Y169750D02*X57354Y170500D01*
X58104D01*
X58854Y169750D01*
Y167500D01*
X53604Y170500D02*X54354Y169750D01*
X60656Y167500D02*X61406D01*
X65907Y168250D02*X66657Y167500D01*
X65907Y172750D02*X66657Y173500D01*
X65907Y172750D02*Y168250D01*
X68459Y173500D02*X69959D01*
X69209D02*Y167500D01*
X68459D02*X69959D01*
X72510Y169750D02*Y167500D01*
Y169750D02*X73260Y170500D01*
X74010D01*
X74760Y169750D01*
Y167500D01*
X71760Y170500D02*X72510Y169750D01*
X77312Y170500D02*X79562D01*
X76562Y169750D02*X77312Y170500D01*
X76562Y169750D02*Y168250D01*
X77312Y167500D01*
X79562D01*
X81363Y173500D02*Y167500D01*
Y169750D02*X82113Y170500D01*
X83613D01*
X84363Y169750D01*
Y167500D01*
X86165Y173500D02*X86915Y172750D01*
Y168250D01*
X86165Y167500D02*X86915Y168250D01*
X95750Y167500D02*X98000D01*
X95000Y168250D02*X95750Y167500D01*
X95000Y172750D02*Y168250D01*
Y172750D02*X95750Y173500D01*
X98000D01*
X99801Y169750D02*Y168250D01*
Y169750D02*X100551Y170500D01*
X102051D01*
X102801Y169750D01*
Y168250D01*
X102051Y167500D02*X102801Y168250D01*
X100551Y167500D02*X102051D01*
X99801Y168250D02*X100551Y167500D01*
X104603Y170500D02*Y168250D01*
X105353Y167500D01*
X106853D01*
X107603Y168250D01*
Y170500D02*Y168250D01*
X110154Y169750D02*Y167500D01*
Y169750D02*X110904Y170500D01*
X111654D01*
X112404Y169750D01*
Y167500D01*
X109404Y170500D02*X110154Y169750D01*
X114956Y173500D02*Y168250D01*
X115706Y167500D01*
X114206Y171250D02*X115706D01*
X130750Y173500D02*Y167500D01*
X130000Y173500D02*X133000D01*
X133750Y172750D01*
Y171250D01*
X133000Y170500D02*X133750Y171250D01*
X130750Y170500D02*X133000D01*
X135551Y173500D02*Y168250D01*
X136301Y167500D01*
X140053Y170500D02*X140803Y169750D01*
X138553Y170500D02*X140053D01*
X137803Y169750D02*X138553Y170500D01*
X137803Y169750D02*Y168250D01*
X138553Y167500D01*
X140803Y170500D02*Y168250D01*
X141553Y167500D01*
X138553D02*X140053D01*
X140803Y168250D01*
X144104Y173500D02*Y168250D01*
X144854Y167500D01*
X143354Y171250D02*X144854D01*
X147106Y167500D02*X149356D01*
X146356Y168250D02*X147106Y167500D01*
X146356Y169750D02*Y168250D01*
Y169750D02*X147106Y170500D01*
X148606D01*
X149356Y169750D01*
X146356Y169000D02*X149356D01*
Y169750D02*Y169000D01*
X154157Y173500D02*Y167500D01*
X153407D02*X154157Y168250D01*
X151907Y167500D02*X153407D01*
X151157Y168250D02*X151907Y167500D01*
X151157Y169750D02*Y168250D01*
Y169750D02*X151907Y170500D01*
X153407D01*
X154157Y169750D01*
X157459Y170500D02*Y169750D01*
Y168250D02*Y167500D01*
X155959Y172750D02*Y172000D01*
Y172750D02*X156709Y173500D01*
X158209D01*
X158959Y172750D01*
Y172000D01*
X157459Y170500D02*X158959Y172000D01*
X0Y188500D02*X3000D01*
X1500D02*Y182500D01*
X4801Y188500D02*Y182500D01*
Y184750D02*X5551Y185500D01*
X7051D01*
X7801Y184750D01*
Y182500D01*
X10353D02*X12603D01*
X9603Y183250D02*X10353Y182500D01*
X9603Y184750D02*Y183250D01*
Y184750D02*X10353Y185500D01*
X11853D01*
X12603Y184750D01*
X9603Y184000D02*X12603D01*
Y184750D02*Y184000D01*
X15154Y184750D02*Y182500D01*
Y184750D02*X15904Y185500D01*
X17404D01*
X14404D02*X15154Y184750D01*
X19956Y182500D02*X22206D01*
X19206Y183250D02*X19956Y182500D01*
X19206Y184750D02*Y183250D01*
Y184750D02*X19956Y185500D01*
X21456D01*
X22206Y184750D01*
X19206Y184000D02*X22206D01*
Y184750D02*Y184000D01*
X28957Y185500D02*X29707Y184750D01*
X27457Y185500D02*X28957D01*
X26707Y184750D02*X27457Y185500D01*
X26707Y184750D02*Y183250D01*
X27457Y182500D01*
X29707Y185500D02*Y183250D01*
X30457Y182500D01*
X27457D02*X28957D01*
X29707Y183250D01*
X33009Y184750D02*Y182500D01*
Y184750D02*X33759Y185500D01*
X35259D01*
X32259D02*X33009Y184750D01*
X37810Y182500D02*X40060D01*
X37060Y183250D02*X37810Y182500D01*
X37060Y184750D02*Y183250D01*
Y184750D02*X37810Y185500D01*
X39310D01*
X40060Y184750D01*
X37060Y184000D02*X40060D01*
Y184750D02*Y184000D01*
X44562Y185500D02*X47562Y188500D01*
X44562Y185500D02*X48312D01*
X47562Y188500D02*Y182500D01*
X55813Y188500D02*Y182500D01*
X55063D02*X55813Y183250D01*
X53563Y182500D02*X55063D01*
X52813Y183250D02*X53563Y182500D01*
X52813Y184750D02*Y183250D01*
Y184750D02*X53563Y185500D01*
X55063D01*
X55813Y184750D01*
X57615Y187000D02*Y186250D01*
Y184750D02*Y182500D01*
X59866Y187750D02*Y182500D01*
Y187750D02*X60616Y188500D01*
X61366D01*
X59116Y185500D02*X60616D01*
X63618Y187750D02*Y182500D01*
Y187750D02*X64368Y188500D01*
X65118D01*
X62868Y185500D02*X64368D01*
X67369Y182500D02*X69619D01*
X66619Y183250D02*X67369Y182500D01*
X66619Y184750D02*Y183250D01*
Y184750D02*X67369Y185500D01*
X68869D01*
X69619Y184750D01*
X66619Y184000D02*X69619D01*
Y184750D02*Y184000D01*
X72171Y184750D02*Y182500D01*
Y184750D02*X72921Y185500D01*
X74421D01*
X71421D02*X72171Y184750D01*
X76972Y182500D02*X79222D01*
X76222Y183250D02*X76972Y182500D01*
X76222Y184750D02*Y183250D01*
Y184750D02*X76972Y185500D01*
X78472D01*
X79222Y184750D01*
X76222Y184000D02*X79222D01*
Y184750D02*Y184000D01*
X81774Y184750D02*Y182500D01*
Y184750D02*X82524Y185500D01*
X83274D01*
X84024Y184750D01*
Y182500D01*
X81024Y185500D02*X81774Y184750D01*
X86575Y188500D02*Y183250D01*
X87325Y182500D01*
X85825Y186250D02*X87325D01*
X94527Y188500D02*Y182500D01*
X93777D02*X94527Y183250D01*
X92277Y182500D02*X93777D01*
X91527Y183250D02*X92277Y182500D01*
X91527Y184750D02*Y183250D01*
Y184750D02*X92277Y185500D01*
X93777D01*
X94527Y184750D01*
X97078D02*Y182500D01*
Y184750D02*X97828Y185500D01*
X99328D01*
X96328D02*X97078Y184750D01*
X101130Y187000D02*Y186250D01*
Y184750D02*Y182500D01*
X102631Y188500D02*Y183250D01*
X103381Y182500D01*
X104883Y188500D02*Y183250D01*
X105633Y182500D01*
X110584D02*X112834D01*
X113584Y183250D01*
X112834Y184000D02*X113584Y183250D01*
X110584Y184000D02*X112834D01*
X109834Y184750D02*X110584Y184000D01*
X109834Y184750D02*X110584Y185500D01*
X112834D01*
X113584Y184750D01*
X109834Y183250D02*X110584Y182500D01*
X115386Y187000D02*Y186250D01*
Y184750D02*Y182500D01*
X116887Y185500D02*X119887D01*
X116887Y182500D02*X119887Y185500D01*
X116887Y182500D02*X119887D01*
X122439D02*X124689D01*
X121689Y183250D02*X122439Y182500D01*
X121689Y184750D02*Y183250D01*
Y184750D02*X122439Y185500D01*
X123939D01*
X124689Y184750D01*
X121689Y184000D02*X124689D01*
Y184750D02*Y184000D01*
X127240Y182500D02*X129490D01*
X130240Y183250D01*
X129490Y184000D02*X130240Y183250D01*
X127240Y184000D02*X129490D01*
X126490Y184750D02*X127240Y184000D01*
X126490Y184750D02*X127240Y185500D01*
X129490D01*
X130240Y184750D01*
X126490Y183250D02*X127240Y182500D01*
X134742Y185500D02*Y183250D01*
X135492Y182500D01*
X136992D01*
X137742Y183250D01*
Y185500D02*Y183250D01*
X140293Y182500D02*X142543D01*
X143293Y183250D01*
X142543Y184000D02*X143293Y183250D01*
X140293Y184000D02*X142543D01*
X139543Y184750D02*X140293Y184000D01*
X139543Y184750D02*X140293Y185500D01*
X142543D01*
X143293Y184750D01*
X139543Y183250D02*X140293Y182500D01*
X145845D02*X148095D01*
X145095Y183250D02*X145845Y182500D01*
X145095Y184750D02*Y183250D01*
Y184750D02*X145845Y185500D01*
X147345D01*
X148095Y184750D01*
X145095Y184000D02*X148095D01*
Y184750D02*Y184000D01*
X152896Y188500D02*Y182500D01*
X152146D02*X152896Y183250D01*
X150646Y182500D02*X152146D01*
X149896Y183250D02*X150646Y182500D01*
X149896Y184750D02*Y183250D01*
Y184750D02*X150646Y185500D01*
X152146D01*
X152896Y184750D01*
X157398Y187000D02*Y186250D01*
Y184750D02*Y182500D01*
X159649Y184750D02*Y182500D01*
Y184750D02*X160399Y185500D01*
X161149D01*
X161899Y184750D01*
Y182500D01*
X158899Y185500D02*X159649Y184750D01*
X167151Y188500D02*Y183250D01*
X167901Y182500D01*
X166401Y186250D02*X167901D01*
X169402Y188500D02*Y182500D01*
Y184750D02*X170152Y185500D01*
X171652D01*
X172402Y184750D01*
Y182500D01*
X174204Y187000D02*Y186250D01*
Y184750D02*Y182500D01*
X176455D02*X178705D01*
X179455Y183250D01*
X178705Y184000D02*X179455Y183250D01*
X176455Y184000D02*X178705D01*
X175705Y184750D02*X176455Y184000D01*
X175705Y184750D02*X176455Y185500D01*
X178705D01*
X179455Y184750D01*
X175705Y183250D02*X176455Y182500D01*
X183957Y188500D02*Y183250D01*
X184707Y182500D01*
X188458Y185500D02*X189208Y184750D01*
X186958Y185500D02*X188458D01*
X186208Y184750D02*X186958Y185500D01*
X186208Y184750D02*Y183250D01*
X186958Y182500D01*
X189208Y185500D02*Y183250D01*
X189958Y182500D01*
X186958D02*X188458D01*
X189208Y183250D01*
X191760Y185500D02*Y183250D01*
X192510Y182500D01*
X194760Y185500D02*Y181000D01*
X194010Y180250D02*X194760Y181000D01*
X192510Y180250D02*X194010D01*
X191760Y181000D02*X192510Y180250D01*
Y182500D02*X194010D01*
X194760Y183250D01*
X196561Y184750D02*Y183250D01*
Y184750D02*X197311Y185500D01*
X198811D01*
X199561Y184750D01*
Y183250D01*
X198811Y182500D02*X199561Y183250D01*
X197311Y182500D02*X198811D01*
X196561Y183250D02*X197311Y182500D01*
X201363Y185500D02*Y183250D01*
X202113Y182500D01*
X203613D01*
X204363Y183250D01*
Y185500D02*Y183250D01*
X206914Y188500D02*Y183250D01*
X207664Y182500D01*
X206164Y186250D02*X207664D01*
X209166Y181000D02*X210666Y182500D01*
X215167D02*X218167Y185500D01*
Y187750D02*Y185500D01*
X217417Y188500D02*X218167Y187750D01*
X215917Y188500D02*X217417D01*
X215167Y187750D02*X215917Y188500D01*
X215167Y187750D02*Y186250D01*
X215917Y185500D01*
X218167D01*
X219969Y187750D02*X220719Y188500D01*
X222969D01*
X223719Y187750D01*
Y186250D01*
X219969Y182500D02*X223719Y186250D01*
X219969Y182500D02*X223719D01*
X228220Y188500D02*Y182500D01*
Y184750D02*X228970Y185500D01*
X230470D01*
X231220Y184750D01*
Y182500D01*
X233022Y184750D02*Y183250D01*
Y184750D02*X233772Y185500D01*
X235272D01*
X236022Y184750D01*
Y183250D01*
X235272Y182500D02*X236022Y183250D01*
X233772Y182500D02*X235272D01*
X233022Y183250D02*X233772Y182500D01*
X237823Y188500D02*Y183250D01*
X238573Y182500D01*
X240825D02*X243075D01*
X240075Y183250D02*X240825Y182500D01*
X240075Y184750D02*Y183250D01*
Y184750D02*X240825Y185500D01*
X242325D01*
X243075Y184750D01*
X240075Y184000D02*X243075D01*
Y184750D02*Y184000D01*
X245626Y182500D02*X247876D01*
X248626Y183250D01*
X247876Y184000D02*X248626Y183250D01*
X245626Y184000D02*X247876D01*
X244876Y184750D02*X245626Y184000D01*
X244876Y184750D02*X245626Y185500D01*
X247876D01*
X248626Y184750D01*
X244876Y183250D02*X245626Y182500D01*
X253878Y188500D02*Y183250D01*
X254628Y182500D01*
X253128Y186250D02*X254628D01*
X256129Y184750D02*Y183250D01*
Y184750D02*X256879Y185500D01*
X258379D01*
X259129Y184750D01*
Y183250D01*
X258379Y182500D02*X259129Y183250D01*
X256879Y182500D02*X258379D01*
X256129Y183250D02*X256879Y182500D01*
X261681Y188500D02*Y183250D01*
X262431Y182500D01*
X260931Y186250D02*X262431D01*
X266182Y185500D02*X266932Y184750D01*
X264682Y185500D02*X266182D01*
X263932Y184750D02*X264682Y185500D01*
X263932Y184750D02*Y183250D01*
X264682Y182500D01*
X266932Y185500D02*Y183250D01*
X267682Y182500D01*
X264682D02*X266182D01*
X266932Y183250D01*
X269484Y188500D02*Y183250D01*
X270234Y182500D01*
G54D12*X0Y100000D02*X200000D01*
X0D02*Y0D01*
X200000Y100000D02*Y0D01*
X0D02*X200000D01*
G54D32*Y113500D02*Y107500D01*
Y113500D02*X202250Y111250D01*
X204500Y113500D01*
Y107500D01*
X208551Y110500D02*X209301Y109750D01*
X207051Y110500D02*X208551D01*
X206301Y109750D02*X207051Y110500D01*
X206301Y109750D02*Y108250D01*
X207051Y107500D01*
X209301Y110500D02*Y108250D01*
X210051Y107500D01*
X207051D02*X208551D01*
X209301Y108250D01*
X211853Y110500D02*X214853Y107500D01*
X211853D02*X214853Y110500D01*
X216654Y112000D02*Y111250D01*
Y109750D02*Y107500D01*
X218906Y109750D02*Y107500D01*
Y109750D02*X219656Y110500D01*
X220406D01*
X221156Y109750D01*
Y107500D01*
Y109750D02*X221906Y110500D01*
X222656D01*
X223406Y109750D01*
Y107500D01*
X218156Y110500D02*X218906Y109750D01*
X225207Y110500D02*Y108250D01*
X225957Y107500D01*
X227457D01*
X228207Y108250D01*
Y110500D02*Y108250D01*
X230759Y109750D02*Y107500D01*
Y109750D02*X231509Y110500D01*
X232259D01*
X233009Y109750D01*
Y107500D01*
Y109750D02*X233759Y110500D01*
X234509D01*
X235259Y109750D01*
Y107500D01*
X230009Y110500D02*X230759Y109750D01*
X240510Y113500D02*Y107500D01*
X242760Y113500D02*X243510Y112750D01*
Y108250D01*
X242760Y107500D02*X243510Y108250D01*
X239760Y107500D02*X242760D01*
X239760Y113500D02*X242760D01*
X245312Y112000D02*Y111250D01*
Y109750D02*Y107500D01*
X247563Y109750D02*Y107500D01*
Y109750D02*X248313Y110500D01*
X249063D01*
X249813Y109750D01*
Y107500D01*
Y109750D02*X250563Y110500D01*
X251313D01*
X252063Y109750D01*
Y107500D01*
X246813Y110500D02*X247563Y109750D01*
X254615Y107500D02*X256865D01*
X253865Y108250D02*X254615Y107500D01*
X253865Y109750D02*Y108250D01*
Y109750D02*X254615Y110500D01*
X256115D01*
X256865Y109750D01*
X253865Y109000D02*X256865D01*
Y109750D02*Y109000D01*
X259416Y109750D02*Y107500D01*
Y109750D02*X260166Y110500D01*
X260916D01*
X261666Y109750D01*
Y107500D01*
X258666Y110500D02*X259416Y109750D01*
X264218Y107500D02*X266468D01*
X267218Y108250D01*
X266468Y109000D02*X267218Y108250D01*
X264218Y109000D02*X266468D01*
X263468Y109750D02*X264218Y109000D01*
X263468Y109750D02*X264218Y110500D01*
X266468D01*
X267218Y109750D01*
X263468Y108250D02*X264218Y107500D01*
X269019Y112000D02*Y111250D01*
Y109750D02*Y107500D01*
X270521Y109750D02*Y108250D01*
Y109750D02*X271271Y110500D01*
X272771D01*
X273521Y109750D01*
Y108250D01*
X272771Y107500D02*X273521Y108250D01*
X271271Y107500D02*X272771D01*
X270521Y108250D02*X271271Y107500D01*
X276072Y109750D02*Y107500D01*
Y109750D02*X276822Y110500D01*
X277572D01*
X278322Y109750D01*
Y107500D01*
X275322Y110500D02*X276072Y109750D01*
X280874Y107500D02*X283124D01*
X283874Y108250D01*
X283124Y109000D02*X283874Y108250D01*
X280874Y109000D02*X283124D01*
X280124Y109750D02*X280874Y109000D01*
X280124Y109750D02*X280874Y110500D01*
X283124D01*
X283874Y109750D01*
X280124Y108250D02*X280874Y107500D01*
X285675Y111250D02*X286425D01*
X285675Y109750D02*X286425D01*
X290927Y112750D02*X291677Y113500D01*
X293927D01*
X294677Y112750D01*
Y111250D01*
X290927Y107500D02*X294677Y111250D01*
X290927Y107500D02*X294677D01*
X296478Y108250D02*X297228Y107500D01*
X296478Y112750D02*Y108250D01*
Y112750D02*X297228Y113500D01*
X298728D01*
X299478Y112750D01*
Y108250D01*
X298728Y107500D02*X299478Y108250D01*
X297228Y107500D02*X298728D01*
X296478Y109000D02*X299478Y112000D01*
X301280Y108250D02*X302030Y107500D01*
X301280Y112750D02*Y108250D01*
Y112750D02*X302030Y113500D01*
X303530D01*
X304280Y112750D01*
Y108250D01*
X303530Y107500D02*X304280Y108250D01*
X302030Y107500D02*X303530D01*
X301280Y109000D02*X304280Y112000D01*
X306081Y108250D02*X306831Y107500D01*
X306081Y112750D02*Y108250D01*
Y112750D02*X306831Y113500D01*
X308331D01*
X309081Y112750D01*
Y108250D01*
X308331Y107500D02*X309081Y108250D01*
X306831Y107500D02*X308331D01*
X306081Y109000D02*X309081Y112000D01*
X314333Y109750D02*Y107500D01*
Y109750D02*X315083Y110500D01*
X315833D01*
X316583Y109750D01*
Y107500D01*
Y109750D02*X317333Y110500D01*
X318083D01*
X318833Y109750D01*
Y107500D01*
X313583Y110500D02*X314333Y109750D01*
X320634Y112000D02*Y111250D01*
Y109750D02*Y107500D01*
X322136Y113500D02*Y108250D01*
X322886Y107500D01*
X325137D02*X327387D01*
X328137Y108250D01*
X327387Y109000D02*X328137Y108250D01*
X325137Y109000D02*X327387D01*
X324387Y109750D02*X325137Y109000D01*
X324387Y109750D02*X325137Y110500D01*
X327387D01*
X328137Y109750D01*
X324387Y108250D02*X325137Y107500D01*
X332639Y110500D02*Y108250D01*
X333389Y107500D01*
X334139D01*
X334889Y108250D01*
Y110500D02*Y108250D01*
X335639Y107500D01*
X336389D01*
X337139Y108250D01*
Y110500D02*Y108250D01*
X338940Y112000D02*Y111250D01*
Y109750D02*Y107500D01*
X343442Y113500D02*Y107500D01*
X342692D02*X343442Y108250D01*
X341192Y107500D02*X342692D01*
X340442Y108250D02*X341192Y107500D01*
X340442Y109750D02*Y108250D01*
Y109750D02*X341192Y110500D01*
X342692D01*
X343442Y109750D01*
X345993Y107500D02*X348243D01*
X345243Y108250D02*X345993Y107500D01*
X345243Y109750D02*Y108250D01*
Y109750D02*X345993Y110500D01*
X347493D01*
X348243Y109750D01*
X345243Y109000D02*X348243D01*
Y109750D02*Y109000D01*
X350045Y106000D02*X351545Y107500D01*
X356796D02*X358296D01*
X357546Y113500D02*Y107500D01*
X356046Y112000D02*X357546Y113500D01*
X360098Y108250D02*X360848Y107500D01*
X360098Y112750D02*Y108250D01*
Y112750D02*X360848Y113500D01*
X362348D01*
X363098Y112750D01*
Y108250D01*
X362348Y107500D02*X363098Y108250D01*
X360848Y107500D02*X362348D01*
X360098Y109000D02*X363098Y112000D01*
X364899Y108250D02*X365649Y107500D01*
X364899Y112750D02*Y108250D01*
Y112750D02*X365649Y113500D01*
X367149D01*
X367899Y112750D01*
Y108250D01*
X367149Y107500D02*X367899Y108250D01*
X365649Y107500D02*X367149D01*
X364899Y109000D02*X367899Y112000D01*
X369701Y108250D02*X370451Y107500D01*
X369701Y112750D02*Y108250D01*
Y112750D02*X370451Y113500D01*
X371951D01*
X372701Y112750D01*
Y108250D01*
X371951Y107500D02*X372701Y108250D01*
X370451Y107500D02*X371951D01*
X369701Y109000D02*X372701Y112000D01*
X377952Y109750D02*Y107500D01*
Y109750D02*X378702Y110500D01*
X379452D01*
X380202Y109750D01*
Y107500D01*
Y109750D02*X380952Y110500D01*
X381702D01*
X382452Y109750D01*
Y107500D01*
X377202Y110500D02*X377952Y109750D01*
X384254Y112000D02*Y111250D01*
Y109750D02*Y107500D01*
X385755Y113500D02*Y108250D01*
X386505Y107500D01*
X388757D02*X391007D01*
X391757Y108250D01*
X391007Y109000D02*X391757Y108250D01*
X388757Y109000D02*X391007D01*
X388007Y109750D02*X388757Y109000D01*
X388007Y109750D02*X388757Y110500D01*
X391007D01*
X391757Y109750D01*
X388007Y108250D02*X388757Y107500D01*
X396258Y113500D02*Y107500D01*
Y109750D02*X397008Y110500D01*
X398508D01*
X399258Y109750D01*
Y107500D01*
X401060Y112000D02*Y111250D01*
Y109750D02*Y107500D01*
X404811Y110500D02*X405561Y109750D01*
X403311Y110500D02*X404811D01*
X402561Y109750D02*X403311Y110500D01*
X402561Y109750D02*Y108250D01*
X403311Y107500D01*
X404811D01*
X405561Y108250D01*
X402561Y106000D02*X403311Y105250D01*
X404811D01*
X405561Y106000D01*
Y110500D02*Y106000D01*
X407363Y113500D02*Y107500D01*
Y109750D02*X408113Y110500D01*
X409613D01*
X410363Y109750D01*
Y107500D01*
X0Y-9500D02*X3000D01*
X3750Y-8750D01*
Y-7250D02*Y-8750D01*
X3000Y-6500D02*X3750Y-7250D01*
X750Y-6500D02*X3000D01*
X750Y-3500D02*Y-9500D01*
X0Y-3500D02*X3000D01*
X3750Y-4250D01*
Y-5750D01*
X3000Y-6500D02*X3750Y-5750D01*
X5551Y-7250D02*Y-8750D01*
Y-7250D02*X6301Y-6500D01*
X7801D01*
X8551Y-7250D01*
Y-8750D01*
X7801Y-9500D02*X8551Y-8750D01*
X6301Y-9500D02*X7801D01*
X5551Y-8750D02*X6301Y-9500D01*
X12603Y-6500D02*X13353Y-7250D01*
X11103Y-6500D02*X12603D01*
X10353Y-7250D02*X11103Y-6500D01*
X10353Y-7250D02*Y-8750D01*
X11103Y-9500D01*
X13353Y-6500D02*Y-8750D01*
X14103Y-9500D01*
X11103D02*X12603D01*
X13353Y-8750D01*
X16654Y-7250D02*Y-9500D01*
Y-7250D02*X17404Y-6500D01*
X18904D01*
X15904D02*X16654Y-7250D01*
X23706Y-3500D02*Y-9500D01*
X22956D02*X23706Y-8750D01*
X21456Y-9500D02*X22956D01*
X20706Y-8750D02*X21456Y-9500D01*
X20706Y-7250D02*Y-8750D01*
Y-7250D02*X21456Y-6500D01*
X22956D01*
X23706Y-7250D01*
X28207D02*Y-8750D01*
Y-7250D02*X28957Y-6500D01*
X30457D01*
X31207Y-7250D01*
Y-8750D01*
X30457Y-9500D02*X31207Y-8750D01*
X28957Y-9500D02*X30457D01*
X28207Y-8750D02*X28957Y-9500D01*
X33009Y-6500D02*Y-8750D01*
X33759Y-9500D01*
X35259D01*
X36009Y-8750D01*
Y-6500D02*Y-8750D01*
X38560Y-3500D02*Y-8750D01*
X39310Y-9500D01*
X37810Y-5750D02*X39310D01*
X40812Y-3500D02*Y-8750D01*
X41562Y-9500D01*
X43063Y-5000D02*Y-5750D01*
Y-7250D02*Y-9500D01*
X45315Y-7250D02*Y-9500D01*
Y-7250D02*X46065Y-6500D01*
X46815D01*
X47565Y-7250D01*
Y-9500D01*
X44565Y-6500D02*X45315Y-7250D01*
X50116Y-9500D02*X52366D01*
X49366Y-8750D02*X50116Y-9500D01*
X49366Y-7250D02*Y-8750D01*
Y-7250D02*X50116Y-6500D01*
X51616D01*
X52366Y-7250D01*
X49366Y-8000D02*X52366D01*
Y-7250D02*Y-8000D01*
X56868Y-5000D02*Y-5750D01*
Y-7250D02*Y-9500D01*
X59119D02*X61369D01*
X62119Y-8750D01*
X61369Y-8000D02*X62119Y-8750D01*
X59119Y-8000D02*X61369D01*
X58369Y-7250D02*X59119Y-8000D01*
X58369Y-7250D02*X59119Y-6500D01*
X61369D01*
X62119Y-7250D01*
X58369Y-8750D02*X59119Y-9500D01*
X67371Y-3500D02*Y-8750D01*
X68121Y-9500D01*
X66621Y-5750D02*X68121D01*
X69622Y-3500D02*Y-9500D01*
Y-7250D02*X70372Y-6500D01*
X71872D01*
X72622Y-7250D01*
Y-9500D01*
X75174D02*X77424D01*
X74424Y-8750D02*X75174Y-9500D01*
X74424Y-7250D02*Y-8750D01*
Y-7250D02*X75174Y-6500D01*
X76674D01*
X77424Y-7250D01*
X74424Y-8000D02*X77424D01*
Y-7250D02*Y-8000D01*
X82675Y-6500D02*X84925D01*
X81925Y-7250D02*X82675Y-6500D01*
X81925Y-7250D02*Y-8750D01*
X82675Y-9500D01*
X84925D01*
X87477D02*X89727D01*
X86727Y-8750D02*X87477Y-9500D01*
X86727Y-7250D02*Y-8750D01*
Y-7250D02*X87477Y-6500D01*
X88977D01*
X89727Y-7250D01*
X86727Y-8000D02*X89727D01*
Y-7250D02*Y-8000D01*
X92278Y-7250D02*Y-9500D01*
Y-7250D02*X93028Y-6500D01*
X93778D01*
X94528Y-7250D01*
Y-9500D01*
X91528Y-6500D02*X92278Y-7250D01*
X97080Y-3500D02*Y-8750D01*
X97830Y-9500D01*
X96330Y-5750D02*X97830D01*
X100081Y-9500D02*X102331D01*
X99331Y-8750D02*X100081Y-9500D01*
X99331Y-7250D02*Y-8750D01*
Y-7250D02*X100081Y-6500D01*
X101581D01*
X102331Y-7250D01*
X99331Y-8000D02*X102331D01*
Y-7250D02*Y-8000D01*
X104883Y-7250D02*Y-9500D01*
Y-7250D02*X105633Y-6500D01*
X107133D01*
X104133D02*X104883Y-7250D01*
X108934Y-3500D02*Y-8750D01*
X109684Y-9500D01*
X111186Y-5000D02*Y-5750D01*
Y-7250D02*Y-9500D01*
X113437Y-7250D02*Y-9500D01*
Y-7250D02*X114187Y-6500D01*
X114937D01*
X115687Y-7250D01*
Y-9500D01*
X112687Y-6500D02*X113437Y-7250D01*
X118239Y-9500D02*X120489D01*
X117489Y-8750D02*X118239Y-9500D01*
X117489Y-7250D02*Y-8750D01*
Y-7250D02*X118239Y-6500D01*
X119739D01*
X120489Y-7250D01*
X117489Y-8000D02*X120489D01*
Y-7250D02*Y-8000D01*
X124990Y-7250D02*Y-8750D01*
Y-7250D02*X125740Y-6500D01*
X127240D01*
X127990Y-7250D01*
Y-8750D01*
X127240Y-9500D02*X127990Y-8750D01*
X125740Y-9500D02*X127240D01*
X124990Y-8750D02*X125740Y-9500D01*
X130542Y-4250D02*Y-9500D01*
Y-4250D02*X131292Y-3500D01*
X132042D01*
X129792Y-6500D02*X131292D01*
X136993Y-3500D02*Y-8750D01*
X137743Y-9500D01*
X136243Y-5750D02*X137743D01*
X139245Y-3500D02*Y-9500D01*
Y-7250D02*X139995Y-6500D01*
X141495D01*
X142245Y-7250D01*
Y-9500D01*
X144046Y-5000D02*Y-5750D01*
Y-7250D02*Y-9500D01*
X146298D02*X148548D01*
X149298Y-8750D01*
X148548Y-8000D02*X149298Y-8750D01*
X146298Y-8000D02*X148548D01*
X145548Y-7250D02*X146298Y-8000D01*
X145548Y-7250D02*X146298Y-6500D01*
X148548D01*
X149298Y-7250D01*
X145548Y-8750D02*X146298Y-9500D01*
X154549D02*X156049D01*
X155299Y-3500D02*Y-9500D01*
X153799Y-5000D02*X155299Y-3500D01*
X157851Y-8750D02*X158601Y-9500D01*
X157851Y-4250D02*Y-8750D01*
Y-4250D02*X158601Y-3500D01*
X160101D01*
X160851Y-4250D01*
Y-8750D01*
X160101Y-9500D02*X160851Y-8750D01*
X158601Y-9500D02*X160101D01*
X157851Y-8000D02*X160851Y-5000D01*
X166102Y-7250D02*Y-9500D01*
Y-7250D02*X166852Y-6500D01*
X167602D01*
X168352Y-7250D01*
Y-9500D01*
Y-7250D02*X169102Y-6500D01*
X169852D01*
X170602Y-7250D01*
Y-9500D01*
X165352Y-6500D02*X166102Y-7250D01*
X172404Y-5000D02*Y-5750D01*
Y-7250D02*Y-9500D01*
X173905Y-3500D02*Y-8750D01*
X174655Y-9500D01*
X179607Y-7250D02*Y-9500D01*
Y-7250D02*X180357Y-6500D01*
X181857D01*
X178857D02*X179607Y-7250D01*
X184408Y-9500D02*X186658D01*
X183658Y-8750D02*X184408Y-9500D01*
X183658Y-7250D02*Y-8750D01*
Y-7250D02*X184408Y-6500D01*
X185908D01*
X186658Y-7250D01*
X183658Y-8000D02*X186658D01*
Y-7250D02*Y-8000D01*
X189210Y-6500D02*X191460D01*
X188460Y-7250D02*X189210Y-6500D01*
X188460Y-7250D02*Y-8750D01*
X189210Y-9500D01*
X191460D01*
X194011Y-3500D02*Y-8750D01*
X194761Y-9500D01*
X193261Y-5750D02*X194761D01*
X198513Y-6500D02*X199263Y-7250D01*
X197013Y-6500D02*X198513D01*
X196263Y-7250D02*X197013Y-6500D01*
X196263Y-7250D02*Y-8750D01*
X197013Y-9500D01*
X199263Y-6500D02*Y-8750D01*
X200013Y-9500D01*
X197013D02*X198513D01*
X199263Y-8750D01*
X202564Y-7250D02*Y-9500D01*
Y-7250D02*X203314Y-6500D01*
X204064D01*
X204814Y-7250D01*
Y-9500D01*
X201814Y-6500D02*X202564Y-7250D01*
X208866Y-6500D02*X209616Y-7250D01*
X207366Y-6500D02*X208866D01*
X206616Y-7250D02*X207366Y-6500D01*
X206616Y-7250D02*Y-8750D01*
X207366Y-9500D01*
X208866D01*
X209616Y-8750D01*
X206616Y-11000D02*X207366Y-11750D01*
X208866D01*
X209616Y-11000D01*
Y-6500D02*Y-11000D01*
X211417Y-3500D02*Y-8750D01*
X212167Y-9500D01*
X214419D02*X216669D01*
X213669Y-8750D02*X214419Y-9500D01*
X213669Y-7250D02*Y-8750D01*
Y-7250D02*X214419Y-6500D01*
X215919D01*
X216669Y-7250D01*
X213669Y-8000D02*X216669D01*
Y-7250D02*Y-8000D01*
X221170Y-6500D02*X224170D01*
X228672Y-8750D02*X229422Y-9500D01*
X228672Y-4250D02*Y-8750D01*
Y-4250D02*X229422Y-3500D01*
X230922D01*
X231672Y-4250D01*
Y-8750D01*
X230922Y-9500D02*X231672Y-8750D01*
X229422Y-9500D02*X230922D01*
X228672Y-8000D02*X231672Y-5000D01*
X233473Y-11000D02*X234973Y-9500D01*
X236775Y-8750D02*X237525Y-9500D01*
X236775Y-4250D02*Y-8750D01*
Y-4250D02*X237525Y-3500D01*
X239025D01*
X239775Y-4250D01*
Y-8750D01*
X239025Y-9500D02*X239775Y-8750D01*
X237525Y-9500D02*X239025D01*
X236775Y-8000D02*X239775Y-5000D01*
X245026Y-3500D02*Y-8750D01*
X245776Y-9500D01*
X244276Y-5750D02*X245776D01*
X247278Y-7250D02*Y-8750D01*
Y-7250D02*X248028Y-6500D01*
X249528D01*
X250278Y-7250D01*
Y-8750D01*
X249528Y-9500D02*X250278Y-8750D01*
X248028Y-9500D02*X249528D01*
X247278Y-8750D02*X248028Y-9500D01*
X254779Y-4250D02*X255529Y-3500D01*
X257779D01*
X258529Y-4250D01*
Y-5750D01*
X254779Y-9500D02*X258529Y-5750D01*
X254779Y-9500D02*X258529D01*
X260331Y-8750D02*X261081Y-9500D01*
X260331Y-4250D02*Y-8750D01*
Y-4250D02*X261081Y-3500D01*
X262581D01*
X263331Y-4250D01*
Y-8750D01*
X262581Y-9500D02*X263331Y-8750D01*
X261081Y-9500D02*X262581D01*
X260331Y-8000D02*X263331Y-5000D01*
X265132Y-8750D02*X265882Y-9500D01*
X265132Y-4250D02*Y-8750D01*
Y-4250D02*X265882Y-3500D01*
X267382D01*
X268132Y-4250D01*
Y-8750D01*
X267382Y-9500D02*X268132Y-8750D01*
X265882Y-9500D02*X267382D01*
X265132Y-8000D02*X268132Y-5000D01*
X269934Y-8750D02*X270684Y-9500D01*
X269934Y-4250D02*Y-8750D01*
Y-4250D02*X270684Y-3500D01*
X272184D01*
X272934Y-4250D01*
Y-8750D01*
X272184Y-9500D02*X272934Y-8750D01*
X270684Y-9500D02*X272184D01*
X269934Y-8000D02*X272934Y-5000D01*
X274735Y-11000D02*X276235Y-9500D01*
X278787D02*X280287D01*
X279537Y-3500D02*Y-9500D01*
X278037Y-5000D02*X279537Y-3500D01*
X282088Y-8750D02*X282838Y-9500D01*
X282088Y-4250D02*Y-8750D01*
Y-4250D02*X282838Y-3500D01*
X284338D01*
X285088Y-4250D01*
Y-8750D01*
X284338Y-9500D02*X285088Y-8750D01*
X282838Y-9500D02*X284338D01*
X282088Y-8000D02*X285088Y-5000D01*
X286890Y-8750D02*X287640Y-9500D01*
X286890Y-4250D02*Y-8750D01*
Y-4250D02*X287640Y-3500D01*
X289140D01*
X289890Y-4250D01*
Y-8750D01*
X289140Y-9500D02*X289890Y-8750D01*
X287640Y-9500D02*X289140D01*
X286890Y-8000D02*X289890Y-5000D01*
X291691Y-8750D02*X292441Y-9500D01*
X291691Y-4250D02*Y-8750D01*
Y-4250D02*X292441Y-3500D01*
X293941D01*
X294691Y-4250D01*
Y-8750D01*
X293941Y-9500D02*X294691Y-8750D01*
X292441Y-9500D02*X293941D01*
X291691Y-8000D02*X294691Y-5000D01*
X299943Y-7250D02*Y-9500D01*
Y-7250D02*X300693Y-6500D01*
X301443D01*
X302193Y-7250D01*
Y-9500D01*
Y-7250D02*X302943Y-6500D01*
X303693D01*
X304443Y-7250D01*
Y-9500D01*
X299193Y-6500D02*X299943Y-7250D01*
X306244Y-5000D02*Y-5750D01*
Y-7250D02*Y-9500D01*
X307746Y-3500D02*Y-8750D01*
X308496Y-9500D01*
X310747D02*X312997D01*
X313747Y-8750D01*
X312997Y-8000D02*X313747Y-8750D01*
X310747Y-8000D02*X312997D01*
X309997Y-7250D02*X310747Y-8000D01*
X309997Y-7250D02*X310747Y-6500D01*
X312997D01*
X313747Y-7250D01*
X309997Y-8750D02*X310747Y-9500D01*
X200750Y128500D02*Y122500D01*
X203000Y128500D02*X203750Y127750D01*
Y123250D01*
X203000Y122500D02*X203750Y123250D01*
X200000Y122500D02*X203000D01*
X200000Y128500D02*X203000D01*
X207801Y125500D02*X208551Y124750D01*
X206301Y125500D02*X207801D01*
X205551Y124750D02*X206301Y125500D01*
X205551Y124750D02*Y123250D01*
X206301Y122500D01*
X208551Y125500D02*Y123250D01*
X209301Y122500D01*
X206301D02*X207801D01*
X208551Y123250D01*
X211853Y128500D02*Y123250D01*
X212603Y122500D01*
X211103Y126250D02*X212603D01*
X214854Y122500D02*X217104D01*
X214104Y123250D02*X214854Y122500D01*
X214104Y124750D02*Y123250D01*
Y124750D02*X214854Y125500D01*
X216354D01*
X217104Y124750D01*
X214104Y124000D02*X217104D01*
Y124750D02*Y124000D01*
X218906Y126250D02*X219656D01*
X218906Y124750D02*X219656D01*
X224157Y128500D02*Y122500D01*
Y128500D02*X227157D01*
X224157Y125500D02*X226407D01*
X229709Y124750D02*Y122500D01*
Y124750D02*X230459Y125500D01*
X231959D01*
X228959D02*X229709Y124750D01*
X233760Y127000D02*Y126250D01*
Y124750D02*Y122500D01*
X237962Y127750D02*Y122500D01*
Y127750D02*X238712Y128500D01*
X240962D01*
X241712Y127750D01*
Y122500D01*
X237962Y125500D02*X241712D01*
X244263Y124750D02*Y120250D01*
X243513Y125500D02*X244263Y124750D01*
X245013Y125500D01*
X246513D01*
X247263Y124750D01*
Y123250D01*
X246513Y122500D02*X247263Y123250D01*
X245013Y122500D02*X246513D01*
X244263Y123250D02*X245013Y122500D01*
X249815Y124750D02*Y122500D01*
Y124750D02*X250565Y125500D01*
X252065D01*
X249065D02*X249815Y124750D01*
X259266Y125500D02*X262266Y128500D01*
X259266Y125500D02*X263016D01*
X262266Y128500D02*Y122500D01*
X267518Y127750D02*X268268Y128500D01*
X270518D01*
X271268Y127750D01*
Y126250D01*
X267518Y122500D02*X271268Y126250D01*
X267518Y122500D02*X271268D01*
X273069Y127750D02*X273819Y128500D01*
X275319D01*
X276069Y127750D01*
Y123250D01*
X275319Y122500D02*X276069Y123250D01*
X273819Y122500D02*X275319D01*
X273069Y123250D02*X273819Y122500D01*
Y125500D02*X276069D01*
X277871Y126250D02*X278621D01*
X277871Y124750D02*X278621D01*
X280422Y125500D02*X283422Y128500D01*
X280422Y125500D02*X284172D01*
X283422Y128500D02*Y122500D01*
X285974D02*X288974Y125500D01*
Y127750D02*Y125500D01*
X288224Y128500D02*X288974Y127750D01*
X286724Y128500D02*X288224D01*
X285974Y127750D02*X286724Y128500D01*
X285974Y127750D02*Y126250D01*
X286724Y125500D01*
X288974D01*
X290775Y126250D02*X291525D01*
X290775Y124750D02*X291525D01*
X293327Y128500D02*X296327D01*
X293327D02*Y125500D01*
X294077Y126250D01*
X295577D01*
X296327Y125500D01*
Y123250D01*
X295577Y122500D02*X296327Y123250D01*
X294077Y122500D02*X295577D01*
X293327Y123250D02*X294077Y122500D01*
X298128Y125500D02*X301128Y128500D01*
X298128Y125500D02*X301878D01*
X301128Y128500D02*Y122500D01*
X306380Y127750D02*X307130Y128500D01*
X309380D01*
X310130Y127750D01*
Y126250D01*
X306380Y122500D02*X310130Y126250D01*
X306380Y122500D02*X310130D01*
X311931Y123250D02*X312681Y122500D01*
X311931Y127750D02*Y123250D01*
Y127750D02*X312681Y128500D01*
X314181D01*
X314931Y127750D01*
Y123250D01*
X314181Y122500D02*X314931Y123250D01*
X312681Y122500D02*X314181D01*
X311931Y124000D02*X314931Y127000D01*
X317483Y122500D02*X318983D01*
X318233Y128500D02*Y122500D01*
X316733Y127000D02*X318233Y128500D01*
X320784Y125500D02*X323784Y128500D01*
X320784Y125500D02*X324534D01*
X323784Y128500D02*Y122500D01*
X329036Y128500D02*Y123250D01*
X329786Y122500D01*
X331286D01*
X332036Y123250D01*
Y128500D02*Y123250D01*
X333837Y128500D02*X336837D01*
X335337D02*Y122500D01*
X339389D02*X341639D01*
X338639Y123250D02*X339389Y122500D01*
X338639Y127750D02*Y123250D01*
Y127750D02*X339389Y128500D01*
X341639D01*
X200000Y142750D02*Y137500D01*
Y142750D02*X200750Y143500D01*
X203000D01*
X203750Y142750D01*
Y137500D01*
X200000Y140500D02*X203750D01*
X205551D02*Y138250D01*
X206301Y137500D01*
X207801D01*
X208551Y138250D01*
Y140500D02*Y138250D01*
X211103Y143500D02*Y138250D01*
X211853Y137500D01*
X210353Y141250D02*X211853D01*
X213354Y143500D02*Y137500D01*
Y139750D02*X214104Y140500D01*
X215604D01*
X216354Y139750D01*
Y137500D01*
X218156Y139750D02*Y138250D01*
Y139750D02*X218906Y140500D01*
X220406D01*
X221156Y139750D01*
Y138250D01*
X220406Y137500D02*X221156Y138250D01*
X218906Y137500D02*X220406D01*
X218156Y138250D02*X218906Y137500D01*
X223707Y139750D02*Y137500D01*
Y139750D02*X224457Y140500D01*
X225957D01*
X222957D02*X223707Y139750D01*
X227759Y141250D02*X228509D01*
X227759Y139750D02*X228509D01*
X233010Y142750D02*Y137500D01*
Y142750D02*X233760Y143500D01*
X236010D01*
X236760Y142750D01*
Y137500D01*
X233010Y140500D02*X236760D01*
X239312Y137500D02*X241562D01*
X242312Y138250D01*
X241562Y139000D02*X242312Y138250D01*
X239312Y139000D02*X241562D01*
X238562Y139750D02*X239312Y139000D01*
X238562Y139750D02*X239312Y140500D01*
X241562D01*
X242312Y139750D01*
X238562Y138250D02*X239312Y137500D01*
X244113Y143500D02*Y137500D01*
Y139750D02*X244863Y140500D01*
X246363D01*
X247113Y139750D01*
Y137500D01*
X254615Y143500D02*X255365Y142750D01*
X252365Y143500D02*X254615D01*
X251615Y142750D02*X252365Y143500D01*
X251615Y142750D02*Y138250D01*
X252365Y137500D01*
X254615D01*
X255365Y138250D01*
Y139750D02*Y138250D01*
X254615Y140500D02*X255365Y139750D01*
X253115Y140500D02*X254615D01*
X257166Y139750D02*Y138250D01*
Y139750D02*X257916Y140500D01*
X259416D01*
X260166Y139750D01*
Y138250D01*
X259416Y137500D02*X260166Y138250D01*
X257916Y137500D02*X259416D01*
X257166Y138250D02*X257916Y137500D01*
X261968Y143500D02*Y137500D01*
Y139750D02*X264218Y137500D01*
X261968Y139750D02*X263468Y141250D01*
X266019Y143500D02*Y137500D01*
Y139750D02*X266769Y140500D01*
X268269D01*
X269019Y139750D01*
Y137500D01*
X273071Y140500D02*X273821Y139750D01*
X271571Y140500D02*X273071D01*
X270821Y139750D02*X271571Y140500D01*
X270821Y139750D02*Y138250D01*
X271571Y137500D01*
X273821Y140500D02*Y138250D01*
X274571Y137500D01*
X271571D02*X273071D01*
X273821Y138250D01*
X276372Y143500D02*Y138250D01*
X277122Y137500D01*
X279374D02*X281624D01*
X278624Y138250D02*X279374Y137500D01*
X278624Y139750D02*Y138250D01*
Y139750D02*X279374Y140500D01*
X280874D01*
X281624Y139750D01*
X278624Y139000D02*X281624D01*
Y139750D02*Y139000D01*
X200000Y158500D02*X203000D01*
X201500D02*Y152500D01*
X204801Y157000D02*Y156250D01*
Y154750D02*Y152500D01*
X207053Y158500D02*Y153250D01*
X207803Y152500D01*
X206303Y156250D02*X207803D01*
X209304Y158500D02*Y153250D01*
X210054Y152500D01*
X212306D02*X214556D01*
X211556Y153250D02*X212306Y152500D01*
X211556Y154750D02*Y153250D01*
Y154750D02*X212306Y155500D01*
X213806D01*
X214556Y154750D01*
X211556Y154000D02*X214556D01*
Y154750D02*Y154000D01*
X216357Y156250D02*X217107D01*
X216357Y154750D02*X217107D01*
X221609Y153250D02*X222359Y152500D01*
X221609Y157750D02*X222359Y158500D01*
X221609Y157750D02*Y153250D01*
X224160Y155500D02*Y153250D01*
X224910Y152500D01*
X226410D01*
X227160Y153250D01*
Y155500D02*Y153250D01*
X229712Y154750D02*Y152500D01*
Y154750D02*X230462Y155500D01*
X231212D01*
X231962Y154750D01*
Y152500D01*
X228962Y155500D02*X229712Y154750D01*
X233763Y158500D02*Y152500D01*
Y154750D02*X236013Y152500D01*
X233763Y154750D02*X235263Y156250D01*
X238565Y154750D02*Y152500D01*
Y154750D02*X239315Y155500D01*
X240065D01*
X240815Y154750D01*
Y152500D01*
X237815Y155500D02*X238565Y154750D01*
X242616D02*Y153250D01*
Y154750D02*X243366Y155500D01*
X244866D01*
X245616Y154750D01*
Y153250D01*
X244866Y152500D02*X245616Y153250D01*
X243366Y152500D02*X244866D01*
X242616Y153250D02*X243366Y152500D01*
X247418Y155500D02*Y153250D01*
X248168Y152500D01*
X248918D01*
X249668Y153250D01*
Y155500D02*Y153250D01*
X250418Y152500D01*
X251168D01*
X251918Y153250D01*
Y155500D02*Y153250D01*
X254469Y154750D02*Y152500D01*
Y154750D02*X255219Y155500D01*
X255969D01*
X256719Y154750D01*
Y152500D01*
X253719Y155500D02*X254469Y154750D01*
X258521Y158500D02*X259271Y157750D01*
Y153250D01*
X258521Y152500D02*X259271Y153250D01*
X263772Y155500D02*X266772D01*
X271274Y158500D02*Y152500D01*
Y158500D02*X274274D01*
X271274Y155500D02*X273524D01*
X278325D02*X279075Y154750D01*
X276825Y155500D02*X278325D01*
X276075Y154750D02*X276825Y155500D01*
X276075Y154750D02*Y153250D01*
X276825Y152500D01*
X279075Y155500D02*Y153250D01*
X279825Y152500D01*
X276825D02*X278325D01*
X279075Y153250D01*
X281627Y158500D02*Y152500D01*
Y153250D02*X282377Y152500D01*
X283877D01*
X284627Y153250D01*
Y154750D02*Y153250D01*
X283877Y155500D02*X284627Y154750D01*
X282377Y155500D02*X283877D01*
X281627Y154750D02*X282377Y155500D01*
X287178Y154750D02*Y152500D01*
Y154750D02*X287928Y155500D01*
X289428D01*
X286428D02*X287178Y154750D01*
X291230Y157000D02*Y156250D01*
Y154750D02*Y152500D01*
X293481Y155500D02*X295731D01*
X292731Y154750D02*X293481Y155500D01*
X292731Y154750D02*Y153250D01*
X293481Y152500D01*
X295731D01*
X299783Y155500D02*X300533Y154750D01*
X298283Y155500D02*X299783D01*
X297533Y154750D02*X298283Y155500D01*
X297533Y154750D02*Y153250D01*
X298283Y152500D01*
X300533Y155500D02*Y153250D01*
X301283Y152500D01*
X298283D02*X299783D01*
X300533Y153250D01*
X303834Y158500D02*Y153250D01*
X304584Y152500D01*
X303084Y156250D02*X304584D01*
X306086Y157000D02*Y156250D01*
Y154750D02*Y152500D01*
X307587Y154750D02*Y153250D01*
Y154750D02*X308337Y155500D01*
X309837D01*
X310587Y154750D01*
Y153250D01*
X309837Y152500D02*X310587Y153250D01*
X308337Y152500D02*X309837D01*
X307587Y153250D02*X308337Y152500D01*
X313139Y154750D02*Y152500D01*
Y154750D02*X313889Y155500D01*
X314639D01*
X315389Y154750D01*
Y152500D01*
X312389Y155500D02*X313139Y154750D01*
X320640Y158500D02*Y152500D01*
X322890Y158500D02*X323640Y157750D01*
Y153250D01*
X322890Y152500D02*X323640Y153250D01*
X319890Y152500D02*X322890D01*
X319890Y158500D02*X322890D01*
X326192Y154750D02*Y152500D01*
Y154750D02*X326942Y155500D01*
X328442D01*
X325442D02*X326192Y154750D01*
X332493Y155500D02*X333243Y154750D01*
X330993Y155500D02*X332493D01*
X330243Y154750D02*X330993Y155500D01*
X330243Y154750D02*Y153250D01*
X330993Y152500D01*
X333243Y155500D02*Y153250D01*
X333993Y152500D01*
X330993D02*X332493D01*
X333243Y153250D01*
X335795Y155500D02*Y153250D01*
X336545Y152500D01*
X337295D01*
X338045Y153250D01*
Y155500D02*Y153250D01*
X338795Y152500D01*
X339545D01*
X340295Y153250D01*
Y155500D02*Y153250D01*
X342096Y157000D02*Y156250D01*
Y154750D02*Y152500D01*
X344348Y154750D02*Y152500D01*
Y154750D02*X345098Y155500D01*
X345848D01*
X346598Y154750D01*
Y152500D01*
X343598Y155500D02*X344348Y154750D01*
X350649Y155500D02*X351399Y154750D01*
X349149Y155500D02*X350649D01*
X348399Y154750D02*X349149Y155500D01*
X348399Y154750D02*Y153250D01*
X349149Y152500D01*
X350649D01*
X351399Y153250D01*
X348399Y151000D02*X349149Y150250D01*
X350649D01*
X351399Y151000D01*
Y155500D02*Y151000D01*
M02*
