G04 start of page 2 for group 0 idx 0 *
G04 Title: (unknown), component *
G04 Creator: pcb 20100929 *
G04 CreationDate: Mon Apr 28 19:31:08 2014 UTC *
G04 For: xpi *
G04 Format: Gerber/RS-274X *
G04 PCB-Dimensions: 400000 200000 *
G04 PCB-Coordinate-Origin: lower left *
%MOIN*%
%FSLAX25Y25*%
%LNFRONT*%
%ADD11C,0.0200*%
%ADD12C,0.0100*%
%ADD13C,0.1100*%
%ADD14C,0.0400*%
%ADD15C,0.0650*%
%ADD16C,0.0250*%
%ADD17C,0.0600*%
%ADD18C,0.0360*%
%ADD19R,0.0197X0.0197*%
%ADD20R,0.0295X0.0295*%
%ADD21R,0.0512X0.0512*%
%ADD22C,0.0380*%
%ADD23C,0.0280*%
%ADD24C,0.0320*%
G54D11*G36*
X500Y7500D02*X399000D01*
Y500D01*
X500D01*
Y7500D01*
G37*
G36*
X46500Y151000D02*Y144000D01*
X1000D01*
Y151000D01*
X46500D01*
G37*
G36*
X392500Y199500D02*X399500D01*
Y1000D01*
X392500D01*
Y199500D01*
G37*
G36*
X8000Y199000D02*Y6000D01*
X0D01*
Y199000D01*
X8000D01*
G37*
G36*
X196000Y34000D02*X228000D01*
Y4000D01*
X196000D01*
Y34000D01*
G37*
G36*
X399000Y193500D02*X2000D01*
X3500Y200000D01*
X399000D01*
Y193500D01*
G37*
G54D12*X289677Y100866D02*Y98866D01*
X280000Y120000D02*Y130000D01*
X290000D01*
Y120000D02*X310000D01*
X299000Y121000D02*X295000Y125000D01*
X198677Y70366D02*X199677Y71366D01*
X289677Y60366D02*X288677D01*
X290000Y60000D02*X310000D01*
X290000Y50000D02*X310000D01*
X289645Y40365D02*X289145D01*
X290000Y40000D02*X310000D01*
X290000Y30000D02*Y20000D01*
X300000D01*
X280000Y30000D02*Y20000D01*
X270000Y32000D02*Y20000D01*
G54D13*X371000Y8000D02*Y37000D01*
G54D12*X372000Y7000D02*X371000Y8000D01*
G54D14*X373000Y123000D02*Y4000D01*
G54D12*X200177Y79866D02*X200677Y80366D01*
X210000Y120000D02*X211000Y121000D01*
Y141000D01*
X220000Y120000D02*Y140000D01*
X240000Y175000D02*X239000Y176000D01*
Y186000D01*
X250000D02*Y174000D01*
X259000Y188000D02*Y174000D01*
G54D14*X376000Y139000D02*X375000Y140000D01*
Y183000D01*
Y125000D02*X373000Y123000D01*
G54D12*X270000Y186000D02*Y175000D01*
X280000Y186000D02*Y175000D01*
X290000Y187000D02*Y175000D01*
X300000Y187000D02*X301000Y186000D01*
Y174000D01*
X310000Y187000D02*Y175000D01*
X320000D02*Y187000D01*
X330000Y175000D02*Y186000D01*
X280000Y130000D02*X279000Y131000D01*
Y145000D01*
X295000Y125000D02*Y134000D01*
X290000Y139000D01*
Y144000D01*
X114500Y106000D02*X136000Y127500D01*
Y140500D01*
X135500Y75000D02*Y59000D01*
X123000Y111000D02*X144000Y132000D01*
X123000Y103000D02*Y111000D01*
X123500Y98000D02*X124500Y97000D01*
X122000Y96000D02*X124000Y94000D01*
X120000D02*X124000Y90000D01*
X116500Y83000D02*Y69500D01*
X116000Y141000D02*X115000Y142000D01*
X146000Y130000D02*X160000Y144000D01*
Y154000D01*
X124500Y97000D02*X146500D01*
X124000Y94000D02*X144000D01*
X147000Y91000D01*
X124000Y90000D02*X135000D01*
X145500Y79500D01*
X118500Y92000D02*X135500Y75000D01*
X116000Y90500D02*X123500Y83000D01*
X114500Y88500D02*X119000Y84000D01*
X113500Y82500D02*Y75500D01*
X123500Y83000D02*Y59000D01*
X119000Y84000D02*Y59500D01*
X117500Y58000D01*
X112000Y87500D02*X116500Y83000D01*
X78000Y28000D02*X90000D01*
X86000Y36000D02*X78000Y28000D01*
G54D15*X62000Y20000D02*Y40000D01*
G54D12*X90000Y28000D02*X92000Y26000D01*
X110000D02*X112000Y28000D01*
X92000Y18000D02*X100000Y26000D01*
X104000Y24000D02*X110000D01*
X112000Y26000D01*
X78000Y18000D02*X92000D01*
X110000Y16000D02*X112000Y18000D01*
X100000Y40000D02*X96000Y44000D01*
Y58000D01*
X86000D02*Y36000D01*
X100000Y26000D02*Y40000D01*
X104000Y24000D02*Y56000D01*
X106000Y58000D01*
X134000Y28000D02*X146000D01*
X132000D02*X124000D01*
X132000Y16000D02*X144000D01*
X146000Y18000D01*
X112000D02*X120000D01*
X122000Y16000D01*
Y40000D01*
X118000Y44000D01*
Y58000D01*
X124000Y28000D02*Y56000D01*
X126000Y58000D01*
X136000Y50000D02*Y58000D01*
X145931Y18062D02*X152000Y24131D01*
Y34000D01*
X136000Y50000D01*
X95500Y79000D02*X66000D01*
G54D16*X86500Y97000D02*X79000Y89500D01*
G54D12*X87000Y101500D02*X85500Y103000D01*
X82000Y99500D01*
X89000Y103000D02*X85000Y107000D01*
G54D16*X79000Y89500D02*X66000D01*
G54D12*X82000Y99500D02*X65500D01*
X64000Y89000D02*X63000Y90000D01*
X199677Y60366D03*
Y89866D02*X200177Y89366D01*
X200000Y90000D02*X188000D01*
X184000Y80000D02*X200000D01*
X200677Y60366D02*X199677Y59366D01*
G54D16*X199645Y29865D02*X200145Y29365D01*
G54D12*X200000Y50000D02*X190000D01*
X200000Y60000D02*X190000D01*
X200000Y70000D02*X190000D01*
Y40000D02*Y50000D01*
X188000Y90000D02*X164000Y66000D01*
X172000Y68000D02*X184000Y80000D01*
X164000Y66000D02*X156000D01*
Y36000D01*
X164000D01*
Y46000D02*X172000D01*
Y68000D01*
X168000Y120000D02*X148000Y100000D01*
Y90000D02*X168000Y110000D01*
X198000Y120000D02*X168000D01*
Y110000D02*X200000D01*
X192500Y128000D02*X192000D01*
X171500Y148500D01*
X192500Y135500D02*Y136000D01*
X169500Y159000D01*
X189000Y158500D02*X186500D01*
X166500Y178500D01*
X116500Y69500D02*X106000Y59000D01*
X113500Y75500D02*X96500Y58500D01*
X111500Y78500D02*X96500Y63500D01*
X104000Y81000D02*X92000Y69000D01*
X111000Y85000D02*X113500Y82500D01*
X109500Y83000D02*X111500Y81000D01*
Y78500D01*
X96500Y63500D02*X90000D01*
X86000Y59500D01*
X92000Y69000D02*X66000D01*
X64000Y68000D02*X56000Y60000D01*
X22000D01*
X104000Y84500D02*X102500Y86000D01*
X95500Y79000D01*
X66000Y80000D02*X62000D01*
X60000Y82000D01*
X34000D01*
X32000Y84000D01*
G54D14*X63000Y90000D02*X4000D01*
G54D12*X24000Y72000D02*Y64000D01*
X22000Y62000D01*
X32000Y82000D02*Y72000D01*
X52000Y142000D02*X26000D01*
X20000Y136000D01*
X32000Y134000D02*Y124000D01*
X22000Y136000D02*Y124000D01*
X48000Y136000D02*X32000D01*
X58000Y114000D02*X22000D01*
Y106000D01*
X32000Y94000D02*Y104000D01*
X56000Y94000D02*X32000D01*
X107000Y114000D02*X109000Y112000D01*
X105000Y112500D02*X111500Y106000D01*
X114500D01*
X105500Y119500D02*Y131000D01*
X115000Y140500D01*
X109000Y112000D02*X125500Y128500D01*
Y139500D01*
X126000Y157000D02*Y140000D01*
X115000Y157000D02*X126000D01*
X115000Y142000D02*Y157000D01*
X85000Y107000D02*X64500D01*
X64000Y110000D02*X62000D01*
X58000Y114000D01*
X64000Y100000D02*X62000D01*
X56000Y94000D01*
X91000Y105000D02*X78500Y117500D01*
X92500Y107000D02*X70500Y129000D01*
X94500Y108500D02*X75500Y127500D01*
X96500Y110500D02*X85000Y122000D01*
X78500Y117500D02*X64500D01*
X70500Y129000D02*X65000D01*
X64500Y129500D01*
X75500Y127500D02*Y139500D01*
X85000Y122000D02*Y140000D01*
X64000Y130000D02*X52000Y142000D01*
X64000Y120000D02*X48000Y136000D01*
X98000Y112500D02*X91000Y119500D01*
Y136000D01*
X100000Y114500D02*X94500Y120000D01*
Y130000D01*
X91000Y136000D02*X95500Y140500D01*
X94500Y130000D02*X105500Y141000D01*
X86000Y140000D02*Y144000D01*
X90000Y148000D01*
X76000Y142000D02*Y144000D01*
X72000Y148000D01*
Y158000D01*
X80000Y166000D01*
Y175000D02*X64000D01*
X80000Y165000D02*X64000D01*
X106000Y142000D02*Y144000D01*
X96000Y142000D02*Y162000D01*
X100000Y166000D01*
X90000Y148000D02*Y168000D01*
X91000Y174000D02*X101000Y164000D01*
X106000Y144000D02*X110000Y148000D01*
X169000Y142000D02*Y149500D01*
X110000Y148000D02*Y168000D01*
X102000Y176000D01*
X90000Y168000D02*X82000Y176000D01*
X115000Y168000D02*X110000D01*
X126000Y157000D02*X138000Y169000D01*
Y176500D01*
X166000Y171500D02*Y179000D01*
X500Y198500D02*X398500D01*
G54D17*X112500Y7000D03*
X132500D03*
X372000Y5500D03*
X164000Y6000D03*
G54D11*G36*
X369000Y38500D02*Y32500D01*
X375000D01*
Y38500D01*
X369000D01*
G37*
G54D17*X372000Y25500D03*
Y15500D03*
X164000Y16000D03*
G54D11*G36*
X372000Y182500D02*Y176500D01*
X378000D01*
Y182500D01*
X372000D01*
G37*
G54D17*X375000Y169500D03*
Y159500D03*
Y149500D03*
G54D11*G36*
X327000Y178000D02*Y172000D01*
X333000D01*
Y178000D01*
X327000D01*
G37*
G54D17*X320000Y175000D03*
X310000D03*
Y145000D03*
X320000D03*
X330000D03*
X300000Y175000D03*
X290000D03*
X280000D03*
X270000Y145000D03*
X280000D03*
X290000D03*
X300000D03*
X280000Y187000D03*
X290000D03*
X300000D03*
X310000D03*
X320000D03*
X330000D03*
X270000Y175000D03*
X260000D03*
Y187000D03*
X270000D03*
X240000Y175000D03*
Y145000D03*
X250000D03*
X260000D03*
X250000Y175000D03*
G54D11*G36*
X227000Y190000D02*Y184000D01*
X233000D01*
Y190000D01*
X227000D01*
G37*
G54D17*X240000Y187000D03*
X250000D03*
G54D11*G36*
X9500Y108000D02*Y102000D01*
X15500D01*
Y108000D01*
X9500D01*
G37*
G36*
Y128000D02*Y122000D01*
X15500D01*
Y128000D01*
X9500D01*
G37*
G54D17*X22500Y105000D03*
Y125000D03*
X32500Y105000D03*
Y125000D03*
X42500Y105000D03*
Y125000D03*
G54D11*G36*
X9500Y76000D02*Y70000D01*
X15500D01*
Y76000D01*
X9500D01*
G37*
G54D17*X22500Y73000D03*
X32500D03*
X42500D03*
X101000Y165000D03*
Y155000D03*
G54D11*G36*
X77500Y188500D02*Y182500D01*
X83500D01*
Y188500D01*
X77500D01*
G37*
G54D17*X80500Y175500D03*
G54D11*G36*
X98000Y188000D02*Y182000D01*
X104000D01*
Y188000D01*
X98000D01*
G37*
G54D17*X101000Y175000D03*
X80500Y165500D03*
Y155500D03*
G54D11*G36*
X73000Y144000D02*Y138000D01*
X79000D01*
Y144000D01*
X73000D01*
G37*
G54D17*X86000Y141000D03*
X96000D03*
X106000D03*
X116000D03*
X126000D03*
X136000D03*
G54D11*G36*
X143500Y132500D02*Y126500D01*
X149500D01*
Y132500D01*
X143500D01*
G37*
G54D17*X146500Y119500D03*
Y109500D03*
Y99500D03*
G54D11*G36*
X61500Y132500D02*Y126500D01*
X67500D01*
Y132500D01*
X61500D01*
G37*
G54D17*X64500Y119500D03*
Y109500D03*
Y99500D03*
Y89500D03*
Y79500D03*
Y69500D03*
G54D11*G36*
X72500Y61500D02*Y55500D01*
X78500D01*
Y61500D01*
X72500D01*
G37*
G54D17*X85500Y58500D03*
X95500D03*
G54D11*G36*
X89500Y40000D02*Y34000D01*
X95500D01*
Y40000D01*
X89500D01*
G37*
G54D17*X92500Y27000D03*
Y17000D03*
Y7000D03*
X146500Y89500D03*
Y79500D03*
G54D11*G36*
X161000Y59000D02*Y53000D01*
X167000D01*
Y59000D01*
X161000D01*
G37*
G54D17*X164000Y46000D03*
X146500Y69500D03*
X125500Y58500D03*
X135500D03*
G54D11*G36*
X129500Y40000D02*Y34000D01*
X135500D01*
Y40000D01*
X129500D01*
G37*
G54D17*X132500Y27000D03*
X105500Y58500D03*
X115500D03*
G54D11*G36*
X109500Y40000D02*Y34000D01*
X115500D01*
Y40000D01*
X109500D01*
G37*
G54D17*X112500Y27000D03*
Y17000D03*
X132500D03*
X164000Y36000D03*
Y26000D03*
X396254Y197196D03*
Y4696D03*
X2754Y3196D03*
Y197196D03*
X21938Y135931D03*
X23414Y155636D03*
X31938Y135931D03*
X30485Y162707D03*
X22000Y114000D03*
X32000Y96000D03*
Y84000D03*
X21938Y61931D03*
X21151Y38627D03*
X30222Y38556D03*
X104000Y24000D03*
X122000Y16000D03*
X145931Y28062D03*
Y18062D03*
X77931Y28062D03*
Y18062D03*
X46000Y38500D03*
G54D18*X62000Y38000D03*
G54D17*X141151Y184627D03*
G54D18*X43000Y148000D03*
G54D17*X289931Y110062D03*
Y100062D03*
Y120062D03*
Y130062D03*
X279931D03*
Y120062D03*
X269931D03*
X299931D03*
X309931D03*
X240000Y133000D03*
X270000D03*
X260000D03*
X250000D03*
X330000D03*
X320000D03*
X310000D03*
X300000D03*
X299931Y50062D03*
X289931Y60062D03*
X309931Y50062D03*
Y60062D03*
X299931D03*
X269899Y31061D03*
X269931Y20062D03*
X279899Y31061D03*
X289931Y50062D03*
X299931Y40062D03*
X309931D03*
X289899Y31061D03*
Y40061D03*
X289931Y20062D03*
X299931D03*
X279931D03*
X38500Y38500D03*
X199884Y29948D03*
X199899Y40061D03*
X189899D03*
X199931Y90062D03*
Y80062D03*
Y60062D03*
Y70062D03*
X199965Y50038D03*
X189931Y60062D03*
Y70062D03*
X189965Y50038D03*
X91000Y175000D03*
X63931Y176062D03*
Y166062D03*
X37556Y169778D03*
X44627Y176849D03*
X115000Y168000D03*
X160364Y155414D03*
X153293Y162485D03*
X162364Y163414D03*
X170151Y149627D03*
X179222Y150556D03*
X172151Y157627D03*
X146222Y169556D03*
X139151Y176627D03*
X155293Y170485D03*
X148222Y177556D03*
X188364Y157914D03*
X181293Y164985D03*
X190364Y165914D03*
X183293Y172985D03*
X174222Y172056D03*
X167151Y179127D03*
X176222Y180056D03*
X169151Y187127D03*
X209931Y120062D03*
X199931D03*
Y110062D03*
X219931Y120062D03*
X179931D03*
X199931Y100062D03*
X179931Y110062D03*
X191364Y128414D03*
X184293Y135485D03*
X193364Y136414D03*
X209931Y130062D03*
X219931D03*
X209931Y140062D03*
X219931D03*
X177222Y142556D03*
X186293Y143485D03*
G54D11*G36*
X91136Y105737D02*X95311Y101561D01*
X94393Y100643D01*
X90217Y104818D01*
X91136Y105737D01*
G37*
G36*
X89326Y103927D02*X93502Y99753D01*
X92584Y98834D01*
X88408Y103008D01*
X89326Y103927D01*
G37*
G36*
X87517Y102118D02*X91692Y97942D01*
X90774Y97024D01*
X86598Y101199D01*
X87517Y102118D01*
G37*
G36*
X85707Y100308D02*X89883Y96134D01*
X88965Y95215D01*
X84789Y99389D01*
X85707Y100308D01*
G37*
G54D19*X61607Y12426D02*X62393D01*
X61607Y15574D02*X62393D01*
G54D20*X61508Y16559D02*X62492D01*
G54D21*X60819Y19905D02*X63181D01*
G54D20*X61508Y11441D02*X62492D01*
G54D21*X60819Y8095D02*X63181D01*
G54D11*G36*
X100183Y114784D02*X104358Y110608D01*
X103440Y109690D01*
X99264Y113865D01*
X100183Y114784D01*
G37*
G36*
X98374Y112974D02*X102549Y108798D01*
X101631Y107880D01*
X97455Y112055D01*
X98374Y112974D01*
G37*
G36*
X96564Y111165D02*X100739Y106989D01*
X99821Y106071D01*
X95645Y110246D01*
X96564Y111165D01*
G37*
G36*
X94755Y109356D02*X98930Y105180D01*
X98012Y104262D01*
X93836Y108437D01*
X94755Y109356D01*
G37*
G36*
X105612Y120212D02*X109786Y116036D01*
X108867Y115118D01*
X104693Y119294D01*
X105612Y120212D01*
G37*
G36*
X103802Y118403D02*X107977Y114227D01*
X107059Y113309D01*
X102883Y117484D01*
X103802Y118403D01*
G37*
G36*
X101993Y116593D02*X106167Y112417D01*
X105248Y111499D01*
X101074Y115675D01*
X101993Y116593D01*
G37*
G36*
X92946Y107546D02*X97121Y103370D01*
X96203Y102452D01*
X92027Y106627D01*
X92946Y107546D01*
G37*
G54D19*X374607Y130426D02*X375393D01*
X374607Y133574D02*X375393D01*
G54D20*X374508Y134559D02*X375492D01*
G54D21*X373819Y137905D02*X376181D01*
G54D20*X374508Y129441D02*X375492D01*
G54D21*X373819Y126095D02*X376181D01*
G54D11*G36*
X102133Y83884D02*X106307Y79708D01*
X105388Y78790D01*
X101214Y82966D01*
X102133Y83884D01*
G37*
G36*
X103942Y85693D02*X108117Y81517D01*
X107199Y80599D01*
X103023Y84774D01*
X103942Y85693D01*
G37*
G36*
X105752Y87503D02*X109926Y83327D01*
X109007Y82409D01*
X104833Y86585D01*
X105752Y87503D01*
G37*
G36*
X107561Y89312D02*X111736Y85136D01*
X110818Y84218D01*
X106642Y88393D01*
X107561Y89312D01*
G37*
G36*
X109370Y91122D02*X113545Y86946D01*
X112627Y86028D01*
X108451Y90203D01*
X109370Y91122D01*
G37*
G36*
X111180Y92931D02*X115355Y88755D01*
X114437Y87837D01*
X110261Y92012D01*
X111180Y92931D01*
G37*
G36*
X112989Y94740D02*X117164Y90564D01*
X116246Y89646D01*
X112070Y93821D01*
X112989Y94740D01*
G37*
G36*
X114798Y96550D02*X118973Y92374D01*
X118055Y91456D01*
X113879Y95631D01*
X114798Y96550D01*
G37*
G36*
X116608Y98359D02*X120783Y94183D01*
X119865Y93265D01*
X115689Y97440D01*
X116608Y98359D01*
G37*
G36*
X118416Y100168D02*X122592Y95994D01*
X121674Y95075D01*
X117498Y99249D01*
X118416Y100168D01*
G37*
G36*
X120227Y101978D02*X124402Y97802D01*
X123484Y96884D01*
X119308Y101059D01*
X120227Y101978D01*
G37*
G36*
X122035Y103787D02*X126211Y99613D01*
X125293Y98694D01*
X121117Y102868D01*
X122035Y103787D01*
G37*
G54D22*G54D23*G54D22*G54D23*G54D22*G54D23*G54D22*G54D24*G54D22*G54D24*G54D22*G54D24*G54D22*G54D24*G54D22*G54D11*G54D22*G54D11*G54D24*G54D22*G54D24*G54D22*G54D24*G54D22*G54D24*G54D22*G54D24*G54D22*G54D24*G54D22*M02*
