G04 start of page 6 for group -4063 idx -4063 *
G04 Title: (unknown), componentmask *
G04 Creator: pcb 20100929 *
G04 CreationDate: Mon Apr 28 19:31:08 2014 UTC *
G04 For: xpi *
G04 Format: Gerber/RS-274X *
G04 PCB-Dimensions: 400000 200000 *
G04 PCB-Coordinate-Origin: lower left *
%MOIN*%
%FSLAX25Y25*%
%LNFRONTMASK*%
%ADD11C,0.0200*%
%ADD28C,0.0660*%
%ADD29R,0.0257X0.0257*%
%ADD30R,0.0355X0.0355*%
%ADD31R,0.0572X0.0572*%
G54D28*X112500Y7000D03*
X132500D03*
X372000Y5500D03*
X164000Y6000D03*
G54D11*G36*
X368700Y38800D02*Y32200D01*
X375300D01*
Y38800D01*
X368700D01*
G37*
G54D28*X372000Y25500D03*
Y15500D03*
X164000Y16000D03*
G54D11*G36*
X371700Y182800D02*Y176200D01*
X378300D01*
Y182800D01*
X371700D01*
G37*
G54D28*X375000Y169500D03*
Y159500D03*
Y149500D03*
G54D11*G36*
X326700Y178300D02*Y171700D01*
X333300D01*
Y178300D01*
X326700D01*
G37*
G54D28*X320000Y175000D03*
X310000D03*
Y145000D03*
X320000D03*
X330000D03*
X300000Y175000D03*
X290000D03*
X280000D03*
X270000Y145000D03*
X280000D03*
X290000D03*
X300000D03*
X280000Y187000D03*
X290000D03*
X300000D03*
X310000D03*
X320000D03*
X330000D03*
X270000Y175000D03*
X260000D03*
Y187000D03*
X270000D03*
X240000Y175000D03*
Y145000D03*
X250000D03*
X260000D03*
X250000Y175000D03*
G54D11*G36*
X226700Y190300D02*Y183700D01*
X233300D01*
Y190300D01*
X226700D01*
G37*
G54D28*X240000Y187000D03*
X250000D03*
G54D11*G36*
X9200Y108300D02*Y101700D01*
X15800D01*
Y108300D01*
X9200D01*
G37*
G36*
Y128300D02*Y121700D01*
X15800D01*
Y128300D01*
X9200D01*
G37*
G54D28*X22500Y105000D03*
Y125000D03*
X32500Y105000D03*
Y125000D03*
X42500Y105000D03*
Y125000D03*
G54D11*G36*
X9200Y76300D02*Y69700D01*
X15800D01*
Y76300D01*
X9200D01*
G37*
G54D28*X22500Y73000D03*
X32500D03*
X42500D03*
X101000Y165000D03*
Y155000D03*
G54D11*G36*
X77200Y188800D02*Y182200D01*
X83800D01*
Y188800D01*
X77200D01*
G37*
G54D28*X80500Y175500D03*
G54D11*G36*
X97700Y188300D02*Y181700D01*
X104300D01*
Y188300D01*
X97700D01*
G37*
G54D28*X101000Y175000D03*
X80500Y165500D03*
Y155500D03*
G54D11*G36*
X72700Y144300D02*Y137700D01*
X79300D01*
Y144300D01*
X72700D01*
G37*
G54D28*X86000Y141000D03*
X96000D03*
X106000D03*
X116000D03*
X126000D03*
X136000D03*
G54D11*G36*
X143200Y132800D02*Y126200D01*
X149800D01*
Y132800D01*
X143200D01*
G37*
G54D28*X146500Y119500D03*
Y109500D03*
Y99500D03*
G54D11*G36*
X61200Y132800D02*Y126200D01*
X67800D01*
Y132800D01*
X61200D01*
G37*
G54D28*X64500Y119500D03*
Y109500D03*
Y99500D03*
Y89500D03*
Y79500D03*
Y69500D03*
G54D11*G36*
X72200Y61800D02*Y55200D01*
X78800D01*
Y61800D01*
X72200D01*
G37*
G54D28*X85500Y58500D03*
X95500D03*
G54D11*G36*
X89200Y40300D02*Y33700D01*
X95800D01*
Y40300D01*
X89200D01*
G37*
G54D28*X92500Y27000D03*
Y17000D03*
Y7000D03*
X146500Y89500D03*
Y79500D03*
G54D11*G36*
X160700Y59300D02*Y52700D01*
X167300D01*
Y59300D01*
X160700D01*
G37*
G54D28*X164000Y46000D03*
X146500Y69500D03*
X125500Y58500D03*
X135500D03*
G54D11*G36*
X129200Y40300D02*Y33700D01*
X135800D01*
Y40300D01*
X129200D01*
G37*
G54D28*X132500Y27000D03*
X105500Y58500D03*
X115500D03*
G54D11*G36*
X109200Y40300D02*Y33700D01*
X115800D01*
Y40300D01*
X109200D01*
G37*
G54D28*X112500Y27000D03*
Y17000D03*
X132500D03*
X164000Y36000D03*
Y26000D03*
X396254Y197196D03*
Y4696D03*
X2754Y3196D03*
Y197196D03*
X21938Y135931D03*
X23414Y155636D03*
X31938Y135931D03*
X30485Y162707D03*
X22000Y114000D03*
X32000Y96000D03*
Y84000D03*
X21938Y61931D03*
X21151Y38627D03*
X30222Y38556D03*
X104000Y24000D03*
X122000Y16000D03*
X145931Y28062D03*
Y18062D03*
X77931Y28062D03*
Y18062D03*
X46000Y38500D03*
X141151Y184627D03*
X289931Y110062D03*
Y100062D03*
Y120062D03*
Y130062D03*
X279931D03*
Y120062D03*
X269931D03*
X299931D03*
X309931D03*
X240000Y133000D03*
X270000D03*
X260000D03*
X250000D03*
X330000D03*
X320000D03*
X310000D03*
X300000D03*
X299931Y50062D03*
X289931Y60062D03*
X309931Y50062D03*
Y60062D03*
X299931D03*
X269899Y31061D03*
X269931Y20062D03*
X279899Y31061D03*
X289931Y50062D03*
X299931Y40062D03*
X309931D03*
X289899Y31061D03*
Y40061D03*
X289931Y20062D03*
X299931D03*
X279931D03*
X38500Y38500D03*
X199884Y29948D03*
X199899Y40061D03*
X189899D03*
X199931Y90062D03*
Y80062D03*
Y60062D03*
Y70062D03*
X199965Y50038D03*
X189931Y60062D03*
Y70062D03*
X189965Y50038D03*
X91000Y175000D03*
X63931Y176062D03*
Y166062D03*
X37556Y169778D03*
X44627Y176849D03*
X115000Y168000D03*
X160364Y155414D03*
X153293Y162485D03*
X162364Y163414D03*
X170151Y149627D03*
X179222Y150556D03*
X172151Y157627D03*
X146222Y169556D03*
X139151Y176627D03*
X155293Y170485D03*
X148222Y177556D03*
X188364Y157914D03*
X181293Y164985D03*
X190364Y165914D03*
X183293Y172985D03*
X174222Y172056D03*
X167151Y179127D03*
X176222Y180056D03*
X169151Y187127D03*
X209931Y120062D03*
X199931D03*
Y110062D03*
X219931Y120062D03*
X179931D03*
X199931Y100062D03*
X179931Y110062D03*
X191364Y128414D03*
X184293Y135485D03*
X193364Y136414D03*
X209931Y130062D03*
X219931D03*
X209931Y140062D03*
X219931D03*
X177222Y142556D03*
X186293Y143485D03*
G54D11*G36*
X91136Y106444D02*X96018Y101561D01*
X94393Y99936D01*
X89510Y104818D01*
X91136Y106444D01*
G37*
G36*
X89326Y104634D02*X94209Y99753D01*
X92584Y98127D01*
X87701Y103008D01*
X89326Y104634D01*
G37*
G36*
X87517Y102825D02*X92399Y97942D01*
X90774Y96317D01*
X85891Y101199D01*
X87517Y102825D01*
G37*
G36*
X85707Y101015D02*X90590Y96134D01*
X88965Y94508D01*
X84082Y99389D01*
X85707Y101015D01*
G37*
G54D29*X61607Y12426D02*X62393D01*
X61607Y15574D02*X62393D01*
G54D30*X61508Y16559D02*X62492D01*
G54D31*X60819Y19905D02*X63181D01*
G54D30*X61508Y11441D02*X62492D01*
G54D31*X60819Y8095D02*X63181D01*
G54D11*G36*
X100183Y115491D02*X105065Y110608D01*
X103440Y108983D01*
X98557Y113865D01*
X100183Y115491D01*
G37*
G36*
X98374Y113681D02*X103256Y108798D01*
X101631Y107173D01*
X96748Y112055D01*
X98374Y113681D01*
G37*
G36*
X96564Y111872D02*X101446Y106989D01*
X99821Y105364D01*
X94938Y110246D01*
X96564Y111872D01*
G37*
G36*
X94755Y110063D02*X99637Y105180D01*
X98012Y103555D01*
X93129Y108437D01*
X94755Y110063D01*
G37*
G36*
X105612Y120919D02*X110493Y116036D01*
X108867Y114411D01*
X103986Y119294D01*
X105612Y120919D01*
G37*
G36*
X103802Y119110D02*X108684Y114227D01*
X107059Y112602D01*
X102176Y117484D01*
X103802Y119110D01*
G37*
G36*
X101993Y117300D02*X106874Y112417D01*
X105248Y110792D01*
X100367Y115675D01*
X101993Y117300D01*
G37*
G36*
X92946Y108253D02*X97828Y103370D01*
X96203Y101745D01*
X91320Y106627D01*
X92946Y108253D01*
G37*
G54D29*X374607Y130426D02*X375393D01*
X374607Y133574D02*X375393D01*
G54D30*X374508Y134559D02*X375492D01*
G54D31*X373819Y137905D02*X376181D01*
G54D30*X374508Y129441D02*X375492D01*
G54D31*X373819Y126095D02*X376181D01*
G54D11*G36*
X102133Y84591D02*X107014Y79708D01*
X105388Y78083D01*
X100507Y82966D01*
X102133Y84591D01*
G37*
G36*
X103942Y86400D02*X108824Y81517D01*
X107199Y79892D01*
X102316Y84774D01*
X103942Y86400D01*
G37*
G36*
X105752Y88210D02*X110633Y83327D01*
X109007Y81702D01*
X104126Y86585D01*
X105752Y88210D01*
G37*
G36*
X107561Y90019D02*X112443Y85136D01*
X110818Y83511D01*
X105935Y88393D01*
X107561Y90019D01*
G37*
G36*
X109370Y91829D02*X114252Y86946D01*
X112627Y85321D01*
X107744Y90203D01*
X109370Y91829D01*
G37*
G36*
X111180Y93638D02*X116062Y88755D01*
X114437Y87130D01*
X109554Y92012D01*
X111180Y93638D01*
G37*
G36*
X112989Y95447D02*X117871Y90564D01*
X116246Y88939D01*
X111363Y93821D01*
X112989Y95447D01*
G37*
G36*
X114798Y97257D02*X119680Y92374D01*
X118055Y90749D01*
X113172Y95631D01*
X114798Y97257D01*
G37*
G36*
X116608Y99066D02*X121490Y94183D01*
X119865Y92558D01*
X114982Y97440D01*
X116608Y99066D01*
G37*
G36*
X118416Y100875D02*X123299Y95994D01*
X121674Y94368D01*
X116791Y99249D01*
X118416Y100875D01*
G37*
G36*
X120227Y102685D02*X125109Y97802D01*
X123484Y96177D01*
X118601Y101059D01*
X120227Y102685D01*
G37*
G36*
X122035Y104494D02*X126918Y99613D01*
X125293Y97987D01*
X120410Y102868D01*
X122035Y104494D01*
G37*
M02*
