M48
INCH
T11C0.020
T22C0.038
T23C0.028
T24C0.032
%
T11
X004300Y014800
X006200Y003800
T23
X030000Y017500
X031000Y017500
X031000Y014500
X029000Y017500
X028000Y017500
X027000Y014500
X024000Y017500
X028000Y014500
X029000Y014500
X030000Y014500
X024000Y014500
X025000Y014500
X026000Y014500
X033000Y014500
X033000Y017500
X032000Y017500
X027000Y017500
X026000Y017500
X032000Y014500
X025000Y017500
T24
X028989Y004006
X028993Y002006
X029993Y002006
X027993Y002006
X019988Y002994
X019989Y004006
X018989Y004006
X019993Y009006
X019993Y008006
X019993Y006006
X019993Y007006
X019996Y005003
X018993Y006006
X018993Y007006
X018996Y005003
X009100Y017500
X006393Y017606
X006393Y016606
X011500Y016800
X039625Y019719
X039625Y000469
X000275Y000319
X000275Y019719
X002193Y013593
X003193Y013593
X002200Y011400
X003200Y009600
X003200Y008400
X002193Y006193
X010400Y002400
X020993Y012006
X019993Y012006
X019993Y011006
X021993Y012006
X017993Y012006
X019993Y010006
X017993Y011006
X012200Y001600
X014593Y002806
X014593Y001806
X020993Y013006
X021993Y013006
X020993Y014006
X021993Y014006
X007793Y002806
X007793Y001806
X028993Y011006
X028993Y010006
X028993Y012006
X028993Y013006
X027993Y013006
X027993Y012006
X026993Y012006
X029993Y012006
X030993Y012006
X029993Y005006
X028993Y006006
X030993Y005006
X030993Y006006
X029993Y006006
X026989Y003106
X026993Y002006
X027989Y003106
X028993Y005006
X029993Y004006
X030993Y004006
X028989Y003106
T22
X004600Y003850
X014115Y018462
X024000Y013300
X027000Y013300
X026000Y013300
X025000Y013300
X033000Y013300
X032000Y013300
X031000Y013300
X030000Y013300
X003850Y003850
X003755Y016977
X004462Y017684
X016036Y015541
X015329Y016248
X016236Y016341
X017015Y014962
X017922Y015055
X017215Y015762
X014622Y016955
X013915Y017662
X015529Y017048
X014822Y017755
X018836Y015791
X018129Y016498
X019036Y016591
X018329Y017298
X017422Y017205
X016715Y017912
X017622Y018005
X016915Y018712
X019136Y012841
X018429Y013548
X019336Y013641
X017722Y014255
X011250Y000700
X018629Y014348
X013250Y000700
X037200Y000550
X016400Y000600
X037200Y003550
X037200Y002550
X037200Y001550
X016400Y001600
X037500Y017950
X037500Y016950
X037500Y015950
X037500Y014950
X028000Y018700
X029000Y018700
X030000Y018700
X031000Y018700
X032000Y018700
X033000Y018700
X026000Y018700
X027000Y018700
X023000Y018700
X024000Y018700
X025000Y018700
X001250Y010500
X001250Y012500
X002250Y010500
X002250Y012500
X003250Y010500
X003250Y012500
X004250Y010500
X004250Y012500
X001250Y007300
X002250Y007300
X003250Y007300
X004250Y007300
X010100Y016500
X010100Y015500
X008050Y018550
X008050Y017550
X010100Y018500
X010100Y017500
X008050Y016550
X008050Y015550
X007600Y014100
X008600Y014100
X009600Y014100
X010600Y014100
X011600Y014100
X012600Y014100
X013600Y014100
X014650Y012950
X014650Y011950
X014650Y010950
X014650Y009950
X006450Y012950
X006450Y011950
X006450Y010950
X006450Y009950
X006450Y008950
X006450Y007950
X006450Y006950
X007550Y005850
X008550Y005850
X009550Y005850
X009250Y003700
X009250Y002700
X009250Y001700
X009250Y000700
X014650Y008950
X014650Y007950
X016400Y005600
X016400Y004600
X014650Y006950
X012550Y005850
X013550Y005850
X013250Y003700
X013250Y002700
X010550Y005850
X011550Y005850
X011250Y003700
X011250Y002700
X011250Y001700
X013250Y001700
X016400Y003600
X016400Y002600
X002341Y015563
X003048Y016270
X002115Y003862
X003022Y003855
M30
