G04 start of page 9 for group -4015 idx -4015 *
G04 Title: (unknown), toppaste *
G04 Creator: pcb 20100929 *
G04 CreationDate: Fri Apr 25 13:48:38 2014 UTC *
G04 For: xpi *
G04 Format: Gerber/RS-274X *
G04 PCB-Dimensions: 200000 50000 *
G04 PCB-Coordinate-Origin: lower left *
%MOIN*%
%FSLAX25Y25*%
%LNFRONTPASTE*%
%ADD19R,0.0130X0.0130*%
G54D19*X86083Y41633D02*X90689D01*
X86083Y39074D02*X90689D01*
X86083Y36515D02*X90689D01*
X86083Y33956D02*X90689D01*
X86083Y31397D02*X90689D01*
X86083Y28838D02*X90689D01*
X86083Y26279D02*X90689D01*
X86083Y23721D02*X90689D01*
X86083Y21162D02*X90689D01*
X86083Y18603D02*X90689D01*
X86083Y16044D02*X90689D01*
X86083Y13485D02*X90689D01*
X86083Y10926D02*X90689D01*
X86083Y8367D02*X90689D01*
X109311D02*X113917D01*
X109311Y10926D02*X113917D01*
X109311Y13485D02*X113917D01*
X109311Y16044D02*X113917D01*
X109311Y18603D02*X113917D01*
X109311Y21162D02*X113917D01*
X109311Y23721D02*X113917D01*
X109311Y26279D02*X113917D01*
X109311Y28838D02*X113917D01*
X109311Y31397D02*X113917D01*
X109311Y33956D02*X113917D01*
X109311Y36515D02*X113917D01*
X109311Y39074D02*X113917D01*
X109311Y41633D02*X113917D01*
M02*
