G04 start of page 5 for group -4063 idx -4063 *
G04 Title: (unknown), componentmask *
G04 Creator: pcb 20100929 *
G04 CreationDate: Fri Apr 25 13:48:38 2014 UTC *
G04 For: xpi *
G04 Format: Gerber/RS-274X *
G04 PCB-Dimensions: 200000 50000 *
G04 PCB-Coordinate-Origin: lower left *
%MOIN*%
%FSLAX25Y25*%
%LNFRONTMASK*%
%ADD26C,0.0660*%
%ADD27R,0.0230X0.0230*%
G54D26*X197000Y30000D03*
X175000Y45500D03*
X197000Y40000D03*
Y20000D03*
Y10000D03*
X175000Y25500D03*
Y35500D03*
X197000Y47000D03*
Y3000D03*
X3000Y40000D03*
Y47000D03*
Y20000D03*
Y10000D03*
Y30000D03*
Y3000D03*
X50500Y26000D03*
Y36000D03*
Y46000D03*
X24500D03*
Y6000D03*
Y16000D03*
Y26000D03*
Y36000D03*
X50500Y6000D03*
X150000Y5500D03*
X175000D03*
X77500Y3000D03*
X101000D03*
X50500Y16000D03*
X150000Y25500D03*
Y35500D03*
Y45500D03*
Y15500D03*
X175000D03*
X125500Y47000D03*
X104500D03*
G54D27*X86083Y21162D02*X90689D01*
X86083Y16044D02*X90689D01*
X86083Y13485D02*X90689D01*
X86083Y10926D02*X90689D01*
X86083Y8367D02*X90689D01*
X86083Y18603D02*X90689D01*
X86083Y33956D02*X90689D01*
X86083Y31397D02*X90689D01*
X86083Y28838D02*X90689D01*
X86083Y26279D02*X90689D01*
X86083Y41633D02*X90689D01*
X86083Y39074D02*X90689D01*
X86083Y36515D02*X90689D01*
X86083Y23721D02*X90689D01*
X109311Y8367D02*X113917D01*
X109311Y10926D02*X113917D01*
X109311Y16044D02*X113917D01*
X109311Y13485D02*X113917D01*
X109311Y26279D02*X113917D01*
X109311Y28838D02*X113917D01*
X109311Y31397D02*X113917D01*
X109311Y33956D02*X113917D01*
X109311Y36515D02*X113917D01*
X109311Y39074D02*X113917D01*
X109311Y41633D02*X113917D01*
X109311Y18603D02*X113917D01*
X109311Y21162D02*X113917D01*
X109311Y23721D02*X113917D01*
M02*
