G04 start of page 2 for group 0 idx 0 *
G04 Title: (unknown), component *
G04 Creator: pcb 20100929 *
G04 CreationDate: Fri Apr 25 13:48:38 2014 UTC *
G04 For: xpi *
G04 Format: Gerber/RS-274X *
G04 PCB-Dimensions: 200000 50000 *
G04 PCB-Coordinate-Origin: lower left *
%MOIN*%
%FSLAX25Y25*%
%LNFRONT*%
%ADD11C,0.0200*%
%ADD12C,0.0450*%
%ADD13C,0.0400*%
%ADD14C,0.0070*%
%ADD15C,0.0250*%
%ADD16C,0.0350*%
%ADD17C,0.0600*%
%ADD18C,0.0240*%
%ADD19R,0.0130X0.0130*%
%ADD20C,0.0380*%
%ADD21C,0.0150*%
G54D11*G36*
X153700Y42951D02*X154010Y43457D01*
X154280Y44109D01*
X154445Y44796D01*
X154500Y45500D01*
X154445Y46204D01*
X154280Y46891D01*
X154010Y47543D01*
X153730Y48000D01*
X171270D01*
X170990Y47543D01*
X170720Y46891D01*
X170555Y46204D01*
X170500Y45500D01*
X170555Y44796D01*
X170720Y44109D01*
X170990Y43457D01*
X171300Y42951D01*
X153700D01*
G37*
G36*
X192765Y38500D02*X191343D01*
X187178Y42665D01*
X187172Y42672D01*
X187059Y42769D01*
X186932Y42847D01*
X186794Y42904D01*
X186649Y42939D01*
X186500Y42951D01*
X178700D01*
X179010Y43457D01*
X179280Y44109D01*
X179445Y44796D01*
X179500Y45500D01*
X179445Y46204D01*
X179280Y46891D01*
X179235Y47000D01*
X192500D01*
X192555Y46296D01*
X192720Y45609D01*
X192990Y44957D01*
X193359Y44355D01*
X193500Y44190D01*
Y42810D01*
X193359Y42645D01*
X192990Y42043D01*
X192720Y41391D01*
X192555Y40704D01*
X192500Y40000D01*
X192555Y39296D01*
X192720Y38609D01*
X192765Y38500D01*
G37*
G36*
X178730Y3000D02*X179010Y3457D01*
X179280Y4109D01*
X179445Y4796D01*
X179500Y5500D01*
X179445Y6204D01*
X179280Y6891D01*
X179010Y7543D01*
X178641Y8145D01*
X178182Y8682D01*
X177645Y9141D01*
X177043Y9510D01*
X176391Y9780D01*
X175704Y9945D01*
X175000Y10000D01*
X174296Y9945D01*
X174000Y9874D01*
Y11126D01*
X174296Y11055D01*
X175000Y11000D01*
X175704Y11055D01*
X176391Y11220D01*
X177043Y11490D01*
X177645Y11859D01*
X178182Y12318D01*
X178641Y12855D01*
X179010Y13457D01*
X179280Y14109D01*
X179445Y14796D01*
X179500Y15500D01*
X179445Y16204D01*
X179280Y16891D01*
X179010Y17543D01*
X178641Y18145D01*
X178182Y18682D01*
X177645Y19141D01*
X177043Y19510D01*
X176391Y19780D01*
X175704Y19945D01*
X175000Y20000D01*
X174296Y19945D01*
X174000Y19874D01*
Y20550D01*
X181978D01*
X182044Y20442D01*
X182227Y20227D01*
X182442Y20044D01*
X182683Y19896D01*
X182944Y19788D01*
X183218Y19722D01*
X183500Y19700D01*
X183782Y19722D01*
X184056Y19788D01*
X184317Y19896D01*
X184558Y20044D01*
X184773Y20227D01*
X184956Y20442D01*
X185104Y20683D01*
X185212Y20944D01*
X185278Y21218D01*
X185300Y21500D01*
X185278Y21782D01*
X185212Y22056D01*
X185104Y22317D01*
X184956Y22558D01*
X184773Y22773D01*
X184558Y22956D01*
X184317Y23104D01*
X184056Y23212D01*
X183782Y23278D01*
X183500Y23300D01*
X183218Y23278D01*
X182944Y23212D01*
X182683Y23104D01*
X182442Y22956D01*
X182227Y22773D01*
X182044Y22558D01*
X181978Y22450D01*
X178295D01*
X178641Y22855D01*
X179010Y23457D01*
X179280Y24109D01*
X179445Y24796D01*
X179500Y25500D01*
X179445Y26204D01*
X179280Y26891D01*
X179010Y27543D01*
X178641Y28145D01*
X178182Y28682D01*
X177645Y29141D01*
X177043Y29510D01*
X176391Y29780D01*
X175704Y29945D01*
X175000Y30000D01*
X174296Y29945D01*
X174000Y29874D01*
Y30550D01*
X183000D01*
X183149Y30561D01*
X183294Y30596D01*
X183432Y30653D01*
X183559Y30731D01*
X183672Y30828D01*
X183683Y30840D01*
X183817Y30896D01*
X184058Y31044D01*
X184273Y31227D01*
X184456Y31442D01*
X184604Y31683D01*
X184712Y31944D01*
X184778Y32218D01*
X184800Y32500D01*
X184778Y32782D01*
X184712Y33056D01*
X184604Y33317D01*
X184456Y33558D01*
X184273Y33773D01*
X184058Y33956D01*
X183817Y34104D01*
X183556Y34212D01*
X183282Y34278D01*
X183000Y34300D01*
X182718Y34278D01*
X182444Y34212D01*
X182183Y34104D01*
X181942Y33956D01*
X181727Y33773D01*
X181544Y33558D01*
X181396Y33317D01*
X181288Y33056D01*
X181222Y32782D01*
X181200Y32500D01*
X181204Y32451D01*
X178296D01*
X178641Y32855D01*
X179010Y33457D01*
X179280Y34109D01*
X179445Y34796D01*
X179500Y35500D01*
X179445Y36204D01*
X179280Y36891D01*
X179028Y37500D01*
X187657D01*
X192050Y33107D01*
Y28000D01*
X192062Y27851D01*
X192096Y27706D01*
X192154Y27569D01*
X192231Y27442D01*
X192328Y27328D01*
X192335Y27322D01*
X194000Y25657D01*
Y23338D01*
X193818Y23182D01*
X193359Y22645D01*
X192990Y22043D01*
X192720Y21391D01*
X192555Y20704D01*
X192500Y20000D01*
X192555Y19296D01*
X192720Y18609D01*
X192990Y17957D01*
X193359Y17355D01*
X193818Y16818D01*
X194000Y16662D01*
Y13338D01*
X193818Y13182D01*
X193359Y12645D01*
X192990Y12043D01*
X192720Y11391D01*
X192555Y10704D01*
X192500Y10000D01*
X192555Y9296D01*
X192720Y8609D01*
X192990Y7957D01*
X193359Y7355D01*
X193818Y6818D01*
X194000Y6662D01*
Y6338D01*
X193818Y6182D01*
X193359Y5645D01*
X192990Y5043D01*
X192720Y4391D01*
X192555Y3704D01*
X192500Y3000D01*
X178730D01*
G37*
G36*
X171500Y32500D02*X153338D01*
X153641Y32855D01*
X154010Y33457D01*
X154280Y34109D01*
X154445Y34796D01*
X154500Y35500D01*
X154445Y36204D01*
X154280Y36891D01*
X154010Y37543D01*
X153641Y38145D01*
X153182Y38682D01*
X152645Y39141D01*
X152500Y39230D01*
Y39550D01*
X171500D01*
Y38310D01*
X171359Y38145D01*
X170990Y37543D01*
X170720Y36891D01*
X170555Y36204D01*
X170500Y35500D01*
X170555Y34796D01*
X170720Y34109D01*
X170990Y33457D01*
X171359Y32855D01*
X171500Y32690D01*
Y32500D01*
G37*
G36*
X171662Y22500D02*X153500D01*
Y22690D01*
X153641Y22855D01*
X154010Y23457D01*
X154280Y24109D01*
X154445Y24796D01*
X154500Y25500D01*
X154445Y26204D01*
X154280Y26891D01*
X154010Y27543D01*
X153641Y28145D01*
X153500Y28310D01*
Y29050D01*
X160787D01*
X160722Y28782D01*
X160700Y28500D01*
X160722Y28218D01*
X160788Y27944D01*
X160896Y27683D01*
X161044Y27442D01*
X161227Y27227D01*
X161442Y27044D01*
X161683Y26896D01*
X161944Y26788D01*
X162218Y26722D01*
X162500Y26700D01*
X162782Y26722D01*
X163056Y26788D01*
X163317Y26896D01*
X163558Y27044D01*
X163773Y27227D01*
X163956Y27442D01*
X164104Y27683D01*
X164212Y27944D01*
X164278Y28218D01*
X164300Y28500D01*
X164278Y28782D01*
X164212Y29056D01*
X164104Y29317D01*
X163956Y29558D01*
X163773Y29773D01*
X163558Y29956D01*
X163317Y30104D01*
X163056Y30212D01*
X162782Y30278D01*
X162547Y30296D01*
X162293Y30550D01*
X172000D01*
Y28838D01*
X171818Y28682D01*
X171359Y28145D01*
X170990Y27543D01*
X170720Y26891D01*
X170555Y26204D01*
X170500Y25500D01*
X170555Y24796D01*
X170720Y24109D01*
X170990Y23457D01*
X171359Y22855D01*
X171662Y22500D01*
G37*
G36*
X153730Y3000D02*X154010Y3457D01*
X154280Y4109D01*
X154445Y4796D01*
X154500Y5500D01*
X154445Y6204D01*
X154280Y6891D01*
X154010Y7543D01*
X153641Y8145D01*
X153182Y8682D01*
X152645Y9141D01*
X152043Y9510D01*
X152000Y9528D01*
Y11472D01*
X152043Y11490D01*
X152645Y11859D01*
X153182Y12318D01*
X153641Y12855D01*
X154010Y13457D01*
X154280Y14109D01*
X154445Y14796D01*
X154500Y15500D01*
X154445Y16204D01*
X154280Y16891D01*
X154010Y17543D01*
X153641Y18145D01*
X153295Y18550D01*
X156262D01*
X156288Y18444D01*
X156396Y18183D01*
X156544Y17942D01*
X156727Y17727D01*
X156942Y17544D01*
X157183Y17396D01*
X157444Y17288D01*
X157718Y17222D01*
X158000Y17200D01*
X158282Y17222D01*
X158556Y17288D01*
X158817Y17396D01*
X159058Y17544D01*
X159273Y17727D01*
X159456Y17942D01*
X159604Y18183D01*
X159712Y18444D01*
X159778Y18718D01*
X159800Y19000D01*
X159778Y19282D01*
X159712Y19556D01*
X159604Y19817D01*
X159456Y20058D01*
X159273Y20273D01*
X159058Y20456D01*
X158905Y20550D01*
X171500D01*
Y18310D01*
X171359Y18145D01*
X170990Y17543D01*
X170720Y16891D01*
X170555Y16204D01*
X170500Y15500D01*
X170555Y14796D01*
X170720Y14109D01*
X170990Y13457D01*
X171359Y12855D01*
X171500Y12690D01*
Y8310D01*
X171359Y8145D01*
X170990Y7543D01*
X170720Y6891D01*
X170555Y6204D01*
X170500Y5500D01*
X170555Y4796D01*
X170720Y4109D01*
X170990Y3457D01*
X171270Y3000D01*
X153730D01*
G37*
G36*
X113750Y46000D02*X121126D01*
X121220Y45609D01*
X121490Y44957D01*
X121859Y44355D01*
X122318Y43818D01*
X122855Y43359D01*
X123457Y42990D01*
X123551Y42951D01*
X121500D01*
X121426Y42945D01*
X121351Y42939D01*
X121206Y42904D01*
X121069Y42847D01*
X120941Y42769D01*
X120828Y42672D01*
X118106Y39950D01*
X115013D01*
Y39951D01*
X114972Y40018D01*
X114921Y40078D01*
X114861Y40129D01*
X114794Y40170D01*
X114722Y40200D01*
X114645Y40218D01*
X114567Y40224D01*
X113500Y40223D01*
Y40488D01*
X114645Y40489D01*
X114722Y40507D01*
X114794Y40537D01*
X114861Y40578D01*
X114921Y40629D01*
X114972Y40689D01*
X115013Y40756D01*
X115043Y40828D01*
X115061Y40905D01*
X115067Y40983D01*
X115061Y42361D01*
X115043Y42438D01*
X115013Y42510D01*
X114972Y42577D01*
X114921Y42637D01*
X114861Y42688D01*
X114794Y42729D01*
X114722Y42759D01*
X114645Y42777D01*
X114567Y42783D01*
X113750Y42782D01*
Y46000D01*
G37*
G36*
X146270Y43000D02*X127559D01*
X128145Y43359D01*
X128682Y43818D01*
X129141Y44355D01*
X129510Y44957D01*
X129780Y45609D01*
X129945Y46296D01*
X130000Y47000D01*
X129945Y47704D01*
X129874Y48000D01*
X146270D01*
X145990Y47543D01*
X145720Y46891D01*
X145555Y46204D01*
X145500Y45500D01*
X145555Y44796D01*
X145720Y44109D01*
X145990Y43457D01*
X146270Y43000D01*
G37*
G36*
X1000Y46500D02*Y50000D01*
X199000D01*
Y46500D01*
X1000D01*
G37*
G36*
X115000Y3000D02*Y7469D01*
X115013Y7490D01*
X115043Y7562D01*
X115061Y7639D01*
X115067Y7717D01*
X115061Y9095D01*
X115043Y9172D01*
X115013Y9244D01*
X115000Y9265D01*
Y10028D01*
X115013Y10049D01*
Y10050D01*
X119000D01*
X119149Y10062D01*
X119294Y10096D01*
X119431Y10154D01*
X119558Y10231D01*
X119672Y10328D01*
X119683Y10341D01*
X128892Y19550D01*
X131978D01*
X132044Y19442D01*
X132227Y19227D01*
X132442Y19044D01*
X132683Y18896D01*
X132944Y18788D01*
X133218Y18722D01*
X133500Y18700D01*
X133782Y18722D01*
X134056Y18788D01*
X134317Y18896D01*
X134558Y19044D01*
X134773Y19227D01*
X134956Y19442D01*
X135104Y19683D01*
X135160Y19817D01*
X135172Y19828D01*
X135269Y19942D01*
X135346Y20069D01*
X135404Y20206D01*
X135438Y20351D01*
X135450Y20500D01*
X135438Y20649D01*
X135404Y20794D01*
X135346Y20931D01*
X135269Y21058D01*
X135172Y21172D01*
X135160Y21183D01*
X135104Y21317D01*
X134956Y21558D01*
X134773Y21773D01*
X134558Y21956D01*
X134405Y22050D01*
X144107D01*
X147000Y19157D01*
Y18838D01*
X146818Y18682D01*
X146359Y18145D01*
X145990Y17543D01*
X145720Y16891D01*
X145555Y16204D01*
X145500Y15500D01*
X145555Y14796D01*
X145720Y14109D01*
X145990Y13457D01*
X146359Y12855D01*
X146818Y12318D01*
X147000Y12162D01*
Y8838D01*
X146818Y8682D01*
X146359Y8145D01*
X145990Y7543D01*
X145720Y6891D01*
X145555Y6204D01*
X145500Y5500D01*
X145555Y4796D01*
X145720Y4109D01*
X145990Y3457D01*
X146270Y3000D01*
X115000D01*
G37*
G36*
X122156Y30500D02*X120500D01*
Y30696D01*
X120558Y30731D01*
X120672Y30828D01*
X120769Y30942D01*
X120846Y31069D01*
X120904Y31206D01*
X120938Y31351D01*
X120950Y31500D01*
Y32608D01*
X122892Y34550D01*
X145614D01*
X145720Y34109D01*
X145990Y33457D01*
X146359Y32855D01*
X146704Y32451D01*
X124500D01*
X124425Y32444D01*
X124351Y32439D01*
X124206Y32404D01*
X124069Y32347D01*
X123941Y32269D01*
X123828Y32172D01*
X122156Y30500D01*
G37*
G36*
X148054Y39550D02*X147957Y39510D01*
X147355Y39141D01*
X146818Y38682D01*
X146359Y38145D01*
X145990Y37543D01*
X145720Y36891D01*
X145614Y36450D01*
X122500D01*
X122351Y36439D01*
X122206Y36404D01*
X122069Y36347D01*
X121941Y36269D01*
X121828Y36172D01*
X120500Y34844D01*
Y37658D01*
X122392Y39550D01*
X148054D01*
G37*
G36*
X122156Y22500D02*X122000D01*
Y23158D01*
X126392Y27550D01*
X136704D01*
X136700Y27500D01*
X136722Y27218D01*
X136788Y26944D01*
X136896Y26683D01*
X137044Y26442D01*
X137227Y26227D01*
X137442Y26044D01*
X137593Y25951D01*
X126000D01*
X125926Y25945D01*
X125851Y25939D01*
X125706Y25904D01*
X125569Y25847D01*
X125441Y25769D01*
X125328Y25672D01*
X122156Y22500D01*
G37*
G36*
X69607Y21050D02*X70822Y19835D01*
X70828Y19828D01*
X70942Y19731D01*
X71069Y19654D01*
X71206Y19596D01*
X71351Y19562D01*
X71500Y19550D01*
X76500D01*
Y18950D01*
X68738D01*
X68712Y19056D01*
X68604Y19317D01*
X68456Y19558D01*
X68273Y19773D01*
X68058Y19956D01*
X67817Y20104D01*
X67556Y20212D01*
X67282Y20278D01*
X67000Y20300D01*
X66718Y20278D01*
X66444Y20212D01*
X66183Y20104D01*
X65942Y19956D01*
X65727Y19773D01*
X65544Y19558D01*
X65396Y19317D01*
X65288Y19056D01*
X65222Y18782D01*
X65200Y18500D01*
X65222Y18218D01*
X65288Y17944D01*
X65396Y17683D01*
X65544Y17442D01*
X65727Y17227D01*
X65942Y17044D01*
X66183Y16896D01*
X66444Y16788D01*
X66718Y16722D01*
X67000Y16700D01*
X67282Y16722D01*
X67556Y16788D01*
X67817Y16896D01*
X68058Y17044D01*
X68065Y17050D01*
X76500D01*
Y7374D01*
X76109Y7280D01*
X75457Y7010D01*
X74855Y6641D01*
X74318Y6182D01*
X73859Y5645D01*
X73490Y5043D01*
X73220Y4391D01*
X73055Y3704D01*
X73000Y3000D01*
X53838D01*
X54141Y3355D01*
X54510Y3957D01*
X54780Y4609D01*
X54945Y5296D01*
X55000Y6000D01*
X54945Y6704D01*
X54780Y7391D01*
X54510Y8043D01*
X54141Y8645D01*
X53682Y9182D01*
X53500Y9338D01*
Y12662D01*
X53682Y12818D01*
X54141Y13355D01*
X54510Y13957D01*
X54780Y14609D01*
X54945Y15296D01*
X55000Y16000D01*
X54945Y16704D01*
X54780Y17391D01*
X54510Y18043D01*
X54141Y18645D01*
X53682Y19182D01*
X53500Y19338D01*
Y19550D01*
X53649Y19562D01*
X53794Y19596D01*
X53931Y19654D01*
X54058Y19731D01*
X54172Y19828D01*
X54183Y19841D01*
X55392Y21050D01*
X69607D01*
G37*
G36*
X44607Y23550D02*X46707Y21450D01*
X43522D01*
X43456Y21558D01*
X43273Y21773D01*
X43058Y21956D01*
X42817Y22104D01*
X42556Y22212D01*
X42282Y22278D01*
X42000Y22300D01*
X41718Y22278D01*
X41444Y22212D01*
X41183Y22104D01*
X40942Y21956D01*
X40727Y21773D01*
X40544Y21558D01*
X40396Y21317D01*
X40288Y21056D01*
X40222Y20782D01*
X40200Y20500D01*
X40222Y20218D01*
X40288Y19944D01*
X40396Y19683D01*
X40544Y19442D01*
X40727Y19227D01*
X40942Y19044D01*
X41183Y18896D01*
X41444Y18788D01*
X41718Y18722D01*
X42000Y18700D01*
X42282Y18722D01*
X42556Y18788D01*
X42817Y18896D01*
X43058Y19044D01*
X43273Y19227D01*
X43456Y19442D01*
X43522Y19550D01*
X47749D01*
X47318Y19182D01*
X46859Y18645D01*
X46490Y18043D01*
X46220Y17391D01*
X46055Y16704D01*
X46000Y16000D01*
X46055Y15296D01*
X46220Y14609D01*
X46490Y13957D01*
X46859Y13355D01*
X47318Y12818D01*
X47855Y12359D01*
X48457Y11990D01*
X49000Y11765D01*
Y10235D01*
X48457Y10010D01*
X47855Y9641D01*
X47318Y9182D01*
X46859Y8645D01*
X46490Y8043D01*
X46220Y7391D01*
X46055Y6704D01*
X46000Y6000D01*
X46055Y5296D01*
X46220Y4609D01*
X46490Y3957D01*
X46859Y3355D01*
X47162Y3000D01*
X27838D01*
X28141Y3355D01*
X28510Y3957D01*
X28780Y4609D01*
X28945Y5296D01*
X29000Y6000D01*
X28945Y6704D01*
X28780Y7391D01*
X28510Y8043D01*
X28141Y8645D01*
X27682Y9182D01*
X27145Y9641D01*
X26543Y10010D01*
X26000Y10235D01*
Y11765D01*
X26543Y11990D01*
X27145Y12359D01*
X27682Y12818D01*
X28141Y13355D01*
X28510Y13957D01*
X28780Y14609D01*
X28945Y15296D01*
X29000Y16000D01*
X28945Y16704D01*
X28780Y17391D01*
X28510Y18043D01*
X28141Y18645D01*
X27682Y19182D01*
X27145Y19641D01*
X26543Y20010D01*
X26000Y20235D01*
Y20658D01*
X28892Y23550D01*
X44607D01*
G37*
G36*
X36539Y30550D02*X36396Y30317D01*
X36288Y30056D01*
X36222Y29782D01*
X36200Y29500D01*
X36222Y29218D01*
X36288Y28944D01*
X36396Y28683D01*
X36544Y28442D01*
X36727Y28227D01*
X36942Y28044D01*
X37183Y27896D01*
X37444Y27788D01*
X37718Y27722D01*
X38000Y27700D01*
X38282Y27722D01*
X38556Y27788D01*
X38817Y27896D01*
X39058Y28044D01*
X39273Y28227D01*
X39456Y28442D01*
X39604Y28683D01*
X39712Y28944D01*
X39738Y29050D01*
X47205D01*
X46859Y28645D01*
X46490Y28043D01*
X46220Y27391D01*
X46055Y26704D01*
X46000Y26000D01*
X46055Y25296D01*
X46216Y24627D01*
X45678Y25165D01*
X45672Y25172D01*
X45559Y25269D01*
X45432Y25347D01*
X45294Y25404D01*
X45149Y25439D01*
X45000Y25451D01*
X28957D01*
X29000Y26000D01*
X28945Y26704D01*
X28780Y27391D01*
X28510Y28043D01*
X28141Y28645D01*
X27682Y29182D01*
X27145Y29641D01*
X26543Y30010D01*
X26000Y30235D01*
Y30550D01*
X36539D01*
G37*
G36*
X21000Y3000D02*X7500D01*
Y27158D01*
X7659Y27317D01*
X7672Y27328D01*
X7738Y27406D01*
X7769Y27441D01*
X7847Y27569D01*
X7904Y27706D01*
X7939Y27851D01*
X7950Y28000D01*
Y29608D01*
X16842Y38500D01*
X20770D01*
X20490Y38043D01*
X20220Y37391D01*
X20055Y36704D01*
X20000Y36000D01*
X20055Y35296D01*
X20220Y34609D01*
X20490Y33957D01*
X20859Y33355D01*
X21000Y33190D01*
Y32451D01*
X18522D01*
X18456Y32558D01*
X18273Y32773D01*
X18058Y32956D01*
X17817Y33104D01*
X17556Y33212D01*
X17282Y33278D01*
X17000Y33300D01*
X16718Y33278D01*
X16444Y33212D01*
X16183Y33104D01*
X15942Y32956D01*
X15727Y32773D01*
X15544Y32558D01*
X15396Y32317D01*
X15288Y32056D01*
X15222Y31782D01*
X15200Y31500D01*
X15222Y31218D01*
X15288Y30944D01*
X15396Y30683D01*
X15544Y30442D01*
X15727Y30227D01*
X15942Y30044D01*
X16183Y29896D01*
X16444Y29788D01*
X16718Y29722D01*
X17000Y29700D01*
X17282Y29722D01*
X17556Y29788D01*
X17817Y29896D01*
X18058Y30044D01*
X18273Y30227D01*
X18456Y30442D01*
X18522Y30550D01*
X21000D01*
Y28810D01*
X20859Y28645D01*
X20490Y28043D01*
X20220Y27391D01*
X20055Y26704D01*
X20000Y26000D01*
X20055Y25296D01*
X20220Y24609D01*
X20490Y23957D01*
X20859Y23355D01*
X21000Y23190D01*
Y21950D01*
X18022D01*
X17956Y22058D01*
X17773Y22273D01*
X17558Y22456D01*
X17317Y22604D01*
X17056Y22712D01*
X16782Y22778D01*
X16500Y22800D01*
X16218Y22778D01*
X15944Y22712D01*
X15683Y22604D01*
X15442Y22456D01*
X15227Y22273D01*
X15044Y22058D01*
X14896Y21817D01*
X14788Y21556D01*
X14722Y21282D01*
X14700Y21000D01*
X14722Y20718D01*
X14788Y20444D01*
X14896Y20183D01*
X15044Y19942D01*
X15227Y19727D01*
X15442Y19544D01*
X15683Y19396D01*
X15944Y19288D01*
X16218Y19222D01*
X16500Y19200D01*
X16782Y19222D01*
X17056Y19288D01*
X17317Y19396D01*
X17558Y19544D01*
X17773Y19727D01*
X17956Y19942D01*
X18022Y20050D01*
X21000D01*
Y18810D01*
X20859Y18645D01*
X20490Y18043D01*
X20220Y17391D01*
X20055Y16704D01*
X20000Y16000D01*
X20055Y15296D01*
X20220Y14609D01*
X20490Y13957D01*
X20859Y13355D01*
X21000Y13190D01*
Y8810D01*
X20859Y8645D01*
X20490Y8043D01*
X20220Y7391D01*
X20055Y6704D01*
X20000Y6000D01*
X20055Y5296D01*
X20220Y4609D01*
X20490Y3957D01*
X20859Y3355D01*
X21000Y3190D01*
Y3000D01*
G37*
G36*
X77000Y9000D02*X91500D01*
Y0D01*
X77000D01*
Y9000D01*
G37*
G36*
X56842Y42500D02*X80000D01*
Y42450D01*
X79851Y42438D01*
X79706Y42404D01*
X79569Y42346D01*
X79442Y42269D01*
X79328Y42172D01*
X79231Y42058D01*
X79154Y41931D01*
X79096Y41794D01*
X79062Y41649D01*
X79050Y41500D01*
Y37951D01*
X55000D01*
Y40658D01*
X56842Y42500D01*
G37*
G36*
X47749Y39550D02*X47318Y39182D01*
X46859Y38645D01*
X46490Y38043D01*
X46220Y37391D01*
X46055Y36704D01*
X46000Y36000D01*
X46055Y35296D01*
X46220Y34609D01*
X46490Y33957D01*
X46859Y33355D01*
X47318Y32818D01*
X47747Y32451D01*
X27253D01*
X27682Y32818D01*
X28141Y33355D01*
X28510Y33957D01*
X28780Y34609D01*
X28945Y35296D01*
X29000Y36000D01*
X28945Y36704D01*
X28780Y37391D01*
X28510Y38043D01*
X28141Y38645D01*
X27682Y39182D01*
X27251Y39550D01*
X47749D01*
G37*
G36*
X29000Y46000D02*X46000D01*
X46055Y45296D01*
X46220Y44609D01*
X46490Y43957D01*
X46500Y43941D01*
Y42951D01*
X28500D01*
Y43941D01*
X28510Y43957D01*
X28780Y44609D01*
X28945Y45296D01*
X29000Y46000D01*
G37*
G36*
X7235Y45500D02*X20039D01*
X20055Y45296D01*
X20220Y44609D01*
X20490Y43957D01*
X20500Y43941D01*
Y42951D01*
X17000D01*
X16926Y42945D01*
X16851Y42939D01*
X16706Y42904D01*
X16569Y42847D01*
X16441Y42769D01*
X16328Y42672D01*
X6656Y33000D01*
X6500D01*
Y37190D01*
X6641Y37355D01*
X7010Y37957D01*
X7280Y38609D01*
X7445Y39296D01*
X7500Y40000D01*
X7445Y40704D01*
X7280Y41391D01*
X7010Y42043D01*
X6641Y42645D01*
X6500Y42810D01*
Y44190D01*
X6641Y44355D01*
X7010Y44957D01*
X7235Y45500D01*
G37*
G36*
X79050Y36050D02*Y31500D01*
X79062Y31351D01*
X79096Y31206D01*
X79154Y31069D01*
X79231Y30942D01*
X79328Y30828D01*
X79442Y30731D01*
X79569Y30654D01*
X79706Y30596D01*
X79851Y30562D01*
X80000Y30550D01*
X83000D01*
Y29951D01*
X66392D01*
X65678Y30665D01*
X65672Y30672D01*
X65558Y30769D01*
X65509Y30799D01*
X65432Y30846D01*
X65391Y30863D01*
X65294Y30904D01*
X65149Y30938D01*
X65001Y30950D01*
X55393D01*
X54178Y32165D01*
X54172Y32172D01*
X54059Y32269D01*
X54000Y32305D01*
Y33190D01*
X54141Y33355D01*
X54510Y33957D01*
X54780Y34609D01*
X54945Y35296D01*
X55000Y36000D01*
X54996Y36050D01*
X79050D01*
G37*
G54D12*X3000Y40000D02*Y46500D01*
G54D13*Y10000D02*Y2000D01*
G54D14*X17500Y40500D02*X7000Y30000D01*
Y28000D01*
X5500Y30000D02*Y30500D01*
X17000Y42000D01*
X7000Y28000D02*X1000Y22000D01*
X17000Y42000D02*X52500D01*
X17500Y40500D02*X53500D01*
X54000Y28500D02*X52500Y30000D01*
X38000D01*
X53500Y31500D02*X17000D01*
X47500Y22000D02*X45000Y24500D01*
X53500Y23500D02*X52000Y22000D01*
X47500D01*
X43000Y20500D02*X53500D01*
X28500Y24500D02*X25000Y21000D01*
X16500D01*
X45000Y24500D02*X28500D01*
G54D12*X197000Y47000D02*Y40000D01*
G54D15*X197500Y39500D01*
G54D13*X197000Y2000D02*Y10500D01*
G54D14*X193000Y28000D02*X199000Y22000D01*
X196500Y32000D02*X186500Y42000D01*
X186000Y40500D02*X193000Y33500D01*
Y28000D01*
G54D16*X111000Y42500D02*Y47500D01*
G54D14*X122000Y40500D02*X118000Y36500D01*
X113500Y39000D02*X118500D01*
X121500Y42000D01*
X53500Y40500D02*X56500Y43500D01*
X186500Y42000D02*X121500D01*
X186000Y40500D02*X122000D01*
X85500Y41500D02*X80000D01*
X118000Y36500D02*X114000D01*
Y34000D02*X120000D01*
X114000Y31500D02*X120000D01*
Y34000D01*
X147500Y35500D02*X122500D01*
X120000Y33000D01*
X80000Y31500D02*Y41500D01*
X125500Y30000D02*X161500D01*
X162500Y29000D01*
X183000Y31500D02*X124500D01*
X137500Y28500D02*X138000Y28000D01*
X126000Y28500D02*X137500D01*
X148000Y21500D02*X184000D01*
X144500Y25000D02*X148000Y21500D01*
X126000Y25000D02*X144500D01*
X127500Y23000D02*X144500D01*
X124500Y31500D02*X116500Y23500D01*
X117000Y21500D02*X125500Y30000D01*
X116500Y23500D02*X113000D01*
X97500Y45500D02*X56000D01*
X97500Y43500D02*X56500D01*
X52500Y42000D02*X56000Y45500D01*
X75000Y26000D02*X63000D01*
X85500D02*X77000D01*
X75500Y27500D02*X65500D01*
X64500Y28500D01*
X54000D01*
X85500Y24000D02*X77000D01*
X75000Y26000D01*
X77000D02*X75500Y27500D01*
X80000Y37000D02*X52500D01*
X85500Y29000D02*X66000D01*
X65000Y30000D01*
X55000D01*
X53500Y31500D01*
G54D11*X3000Y1000D02*X197000D01*
G54D14*X96000Y4000D02*Y27500D01*
X85500Y13500D02*X81000Y18000D01*
X67000D01*
X109000Y8500D02*X108000D01*
X96000Y4000D02*X91000D01*
X109000Y31500D02*X91000D01*
X109000Y34000D02*X91000D01*
X99500Y39000D02*Y31500D01*
X109000Y36500D02*X104500D01*
X109000Y39000D02*X104000D01*
X109000Y28500D02*X102500D01*
X99500Y31500D01*
X91000Y36500D02*X99500D01*
X91000Y39000D02*X99500D01*
X91000Y41500D02*X97000D01*
X99500Y39000D01*
X104500Y36500D02*X97500Y43500D01*
X104000Y39000D02*X97500Y45500D01*
X86000Y34000D02*X80000D01*
X87000Y31500D02*X80000D01*
X86500Y39000D02*X80000D01*
X86500Y36500D02*X80000D01*
X96000Y27500D02*X99500Y31500D01*
X85500Y11000D02*X80500Y16000D01*
X81000Y20500D02*X85500Y16000D01*
Y19000D02*X82000Y22500D01*
X71500Y20500D02*X81000D01*
X82000Y22500D02*X71500D01*
X70500Y23500D01*
X70000Y22000D02*X71500Y20500D01*
X70500Y23500D02*X53500D01*
Y20500D02*X55000Y22000D01*
X70000D01*
X92500Y22500D02*Y28000D01*
X91000Y21000D02*X92500Y22500D01*
X114500Y26500D02*X116000D01*
X117500Y28000D01*
X114500Y21500D02*X117000D01*
X114500Y18500D02*X116000D01*
X126000Y28500D01*
X114500Y16000D02*X117000D01*
X108000Y8500D02*X106000Y10500D01*
X114500Y11000D02*X119000D01*
X117000Y16000D02*X126000Y25000D01*
X114500Y13500D02*X118000D01*
X127500Y23000D01*
X119000Y11000D02*X128500Y20500D01*
X134500D01*
X144500Y23000D02*X148000Y19500D01*
X158500D01*
G54D17*X197000Y30000D03*
X175000Y45500D03*
X197000Y40000D03*
Y20000D03*
Y10000D03*
X175000Y25500D03*
Y35500D03*
G54D18*X183000Y32500D03*
X183500Y21500D03*
G54D17*X197000Y47000D03*
Y3000D03*
X3000Y40000D03*
Y47000D03*
Y20000D03*
Y10000D03*
Y30000D03*
Y3000D03*
X50500Y26000D03*
Y36000D03*
Y46000D03*
X24500D03*
G54D18*X38000Y29500D03*
X42000Y20500D03*
G54D17*X24500Y6000D03*
Y16000D03*
Y26000D03*
Y36000D03*
G54D18*X17000Y31500D03*
X16500Y21000D03*
G54D17*X50500Y6000D03*
X150000Y5500D03*
X175000D03*
X77500Y3000D03*
X101000D03*
X50500Y16000D03*
G54D18*X63520Y26660D03*
X80000Y15500D03*
X67000Y18500D03*
X93500Y28000D03*
X138500Y27500D03*
X117500Y28000D03*
X106000Y11000D03*
X158000Y19000D03*
X133500Y20500D03*
G54D17*X150000Y25500D03*
Y35500D03*
Y45500D03*
Y15500D03*
X175000D03*
G54D18*X162500Y28500D03*
G54D17*X125500Y47000D03*
X104500D03*
G54D19*X86083Y21162D02*X90689D01*
X86083Y16044D02*X90689D01*
X86083Y13485D02*X90689D01*
X86083Y10926D02*X90689D01*
X86083Y8367D02*X90689D01*
X86083Y18603D02*X90689D01*
X86083Y33956D02*X90689D01*
X86083Y31397D02*X90689D01*
X86083Y28838D02*X90689D01*
X86083Y26279D02*X90689D01*
X86083Y41633D02*X90689D01*
X86083Y39074D02*X90689D01*
X86083Y36515D02*X90689D01*
X86083Y23721D02*X90689D01*
X109311Y8367D02*X113917D01*
X109311Y10926D02*X113917D01*
X109311Y16044D02*X113917D01*
X109311Y13485D02*X113917D01*
X109311Y26279D02*X113917D01*
X109311Y28838D02*X113917D01*
X109311Y31397D02*X113917D01*
X109311Y33956D02*X113917D01*
X109311Y36515D02*X113917D01*
X109311Y39074D02*X113917D01*
X109311Y41633D02*X113917D01*
X109311Y18603D02*X113917D01*
X109311Y21162D02*X113917D01*
X109311Y23721D02*X113917D01*
G54D20*G54D21*G54D20*G54D21*G54D20*G54D21*G54D20*G54D21*G54D20*G54D21*G54D20*M02*
