M48
INCH
T20C0.038
T21C0.015
%
T21
X006352Y002666
X006700Y001850
X009350Y002800
X013850Y002750
X011750Y002800
X010600Y001100
X015800Y001900
X013350Y002050
X018300Y003250
X018350Y002150
X003800Y002950
X004200Y002050
X001700Y003150
X016250Y002850
X001650Y002100
X008000Y001550
T20
X005050Y003600
X005050Y004600
X002450Y004600
X002450Y000600
X002450Y001600
X002450Y002600
X002450Y003600
X005050Y000600
X015000Y000550
X017500Y000550
X007750Y000300
X010100Y000300
X005050Y001600
X015000Y002550
X015000Y003550
X015000Y004550
X015000Y001550
X017500Y001550
X012550Y004700
X019700Y003000
X010450Y004700
X017500Y004550
X019700Y004000
X019700Y002000
X019700Y001000
X017500Y002550
X017500Y003550
X019700Y004700
X019700Y000300
X000300Y004000
X000300Y004700
X000300Y002000
X000300Y001000
X000300Y003000
X000300Y000300
X005050Y002600
M30
