G04 start of page 7 for group -4079 idx -4079 *
G04 Title: (unknown), topsilk *
G04 Creator: pcb 20100929 *
G04 CreationDate: Fri Apr 25 13:48:38 2014 UTC *
G04 For: xpi *
G04 Format: Gerber/RS-274X *
G04 PCB-Dimensions: 200000 50000 *
G04 PCB-Coordinate-Origin: lower left *
%MOIN*%
%FSLAX25Y25*%
%LNFRONTSILK*%
%ADD14C,0.0070*%
%ADD32C,0.0100*%
G54D32*X7500Y10500D02*X10500D01*
X8500Y9000D02*X9500D01*
X8000Y39000D02*Y41000D01*
X7000Y40000D02*X9000D01*
X145000Y50500D02*X135000D01*
G54D14*X129500Y47000D02*X131500D01*
X130500Y46000D02*Y48000D01*
X108500Y47000D02*X110500D01*
X109500Y46000D02*Y48000D01*
X122500Y34500D02*X123000Y35000D01*
X120000Y35500D02*X117000D01*
X122500Y36500D02*X122000D01*
X121500Y36000D01*
Y35000D01*
X122000Y34500D01*
X122500Y35500D02*X122000D01*
Y34500D02*X122500D01*
Y32000D02*X121500D01*
X120000Y30500D02*Y35500D01*
X117000D02*Y30500D01*
X120000D01*
X121500Y32000D02*Y31000D01*
X118000Y30500D02*X119500D01*
X121500Y31000D02*X122500D01*
X123000Y30500D01*
X122500Y30000D01*
X121500D01*
X123000Y35000D02*X122500Y35500D01*
X190000Y39500D02*X193000D01*
X191500Y38000D02*Y41000D01*
X171500Y35000D02*X168500D01*
X191000Y10500D02*X193500D01*
X192000Y9500D02*X192500D01*
X181000Y34500D02*X176000Y29500D01*
X179500Y8500D02*X184000Y13000D01*
X143000Y28000D02*X147500Y32500D01*
X168500Y35000D02*X164000Y30500D01*
X140500Y28000D02*X143000D01*
X136500Y16500D02*X145000D01*
X146000Y15500D01*
X122000Y25000D02*X145000D01*
X146000Y26000D01*
X178000Y8500D02*X179500D01*
X160500Y15000D02*X170500D01*
X81000Y41500D02*X82000D01*
X81000Y39000D02*X82000D01*
X81000Y36500D02*X82000D01*
X81500Y31000D02*Y42000D01*
X83000Y30000D02*Y43500D01*
X81500Y3500D02*X85000D01*
X83000Y2000D02*X84000D01*
X106500Y30500D02*Y34500D01*
X106000Y34000D02*X107000D01*
X106000Y31500D02*X107000D01*
X118000Y34000D02*X119000D01*
X118000Y31500D02*X119000D01*
X118500Y30500D02*Y35500D01*
X81000Y34000D02*X82000D01*
X81000Y31500D02*X82000D01*
X80000Y30000D02*X83000D01*
X78000Y40500D02*X78500D01*
X79000Y41000D01*
Y42000D01*
X78500Y42500D01*
X78000D01*
X77500Y42000D01*
Y41000D01*
X83000Y43500D02*X80000D01*
X77500Y41000D02*X78000Y40500D01*
X79000Y33000D02*X77500Y31500D01*
X79000D01*
Y33000D01*
Y30500D01*
X80000Y43500D02*Y30000D01*
X94000Y31000D02*Y42000D01*
X93500Y41500D02*X94500D01*
X93500Y39000D02*X94500D01*
X93500Y36500D02*X94500D01*
X93500Y34000D02*X94500D01*
X93500Y31500D02*X94500D01*
X93000Y30000D02*X95500D01*
Y43000D01*
X92500Y30000D02*Y43000D01*
X105500Y3500D02*X108000D01*
X106500Y2500D02*X107000D01*
X105000Y30500D02*X108000D01*
Y35000D01*
X105000D01*
Y30500D01*
X75500Y8500D02*X59000D01*
X54500Y13000D01*
X65000Y11000D02*X58500D01*
X55000Y7500D01*
X39000Y16000D02*X29500D01*
X16500Y13000D02*Y9500D01*
X20000Y6000D01*
X54000Y24000D02*X84000D01*
X61500Y29500D02*X56000D01*
X53500Y32000D01*
X35000Y33000D02*X30000D01*
X28500Y34500D01*
X18500Y34000D02*Y30500D01*
X21000Y28000D01*
X65500Y27000D02*G75*G03X64000Y28500I-1500J0D01*G01*
X69000Y18500D02*G75*G03X67000Y20500I-2000J0D01*G01*
X82000Y15500D02*G75*G03X80000Y17500I-2000J0D01*G01*
X19500Y32000D02*G75*G03X18000Y33500I-1500J0D01*G01*
X40500Y30000D02*G75*G03X38500Y32000I-2000J0D01*G01*
X18500Y21000D02*G75*G03X16500Y23000I-2000J0D01*G01*
X44000Y20500D02*G75*G03X42000Y22500I-2000J0D01*G01*
X93500Y26000D02*G75*G03X95500Y28000I0J2000D01*G01*
X117500Y26000D02*G75*G03X119500Y28000I0J2000D01*G01*
X136500Y27000D02*G75*G02X139000Y29500I2500J0D01*G01*
X131000Y20500D02*G75*G02X133500Y23000I2500J0D01*G01*
X160000Y28000D02*G75*G02X162500Y30500I2500J0D01*G01*
X181000Y33000D02*G75*G02X183000Y35000I2000J0D01*G01*
X181000Y21500D02*G75*G02X183500Y24000I2500J0D01*G01*
X156000Y19000D02*G75*G02X158000Y21000I2000J0D01*G01*
G54D32*X138500Y32500D02*X140000D01*
X138000Y32000D02*X138500Y32500D01*
X138000Y32000D02*Y31000D01*
X138500Y30500D01*
X140000D01*
X186335Y30650D02*X187340D01*
X187675Y30985D01*
X187340Y31320D02*X187675Y30985D01*
X186335Y31320D02*X187340D01*
X186000Y31655D02*X186335Y31320D01*
X186000Y31655D02*X186335Y31990D01*
X187340D01*
X187675Y31655D01*
X186000Y30985D02*X186335Y30650D01*
X189819Y33330D02*Y30650D01*
X189484D02*X189819Y30985D01*
X188814Y30650D02*X189484D01*
X188479Y30985D02*X188814Y30650D01*
X188479Y31655D02*Y30985D01*
Y31655D02*X188814Y31990D01*
X189484D01*
X189819Y31655D01*
X191629Y31990D02*X191964Y31655D01*
X190959Y31990D02*X191629D01*
X190624Y31655D02*X190959Y31990D01*
X190624Y31655D02*Y30985D01*
X190959Y30650D01*
X191964Y31990D02*Y30985D01*
X192299Y30650D01*
X190959D02*X191629D01*
X191964Y30985D01*
X162500Y35500D02*Y31500D01*
X162000D02*X162500Y32000D01*
X161000Y31500D02*X162000D01*
X160500Y32000D02*X161000Y31500D01*
X160500Y33000D02*Y32000D01*
Y33000D02*X161000Y33500D01*
X162000D01*
X162500Y33000D01*
X182555Y34950D02*X184220D01*
X182000Y35505D02*X182555Y34950D01*
X182000Y36615D02*Y35505D01*
Y36615D02*X182555Y37170D01*
X183665D01*
X184220Y36615D01*
X182000Y36060D02*X184220D01*
Y36615D02*Y36060D01*
X7390Y30100D02*X8560D01*
X8950Y30490D01*
X8560Y30880D02*X8950Y30490D01*
X7390Y30880D02*X8560D01*
X7000Y31270D02*X7390Y30880D01*
X7000Y31270D02*X7390Y31660D01*
X8560D01*
X8950Y31270D01*
X7000Y30490D02*X7390Y30100D01*
X11446Y33220D02*Y30100D01*
X11056D02*X11446Y30490D01*
X10276Y30100D02*X11056D01*
X9886Y30490D02*X10276Y30100D01*
X9886Y31270D02*Y30490D01*
Y31270D02*X10276Y31660D01*
X11056D01*
X11446Y31270D01*
X13553Y31660D02*X13943Y31270D01*
X12773Y31660D02*X13553D01*
X12383Y31270D02*X12773Y31660D01*
X12383Y31270D02*Y30490D01*
X12773Y30100D01*
X13943Y31660D02*Y30490D01*
X14333Y30100D01*
X12773D02*X13553D01*
X13943Y30490D01*
X7390Y20100D02*X8560D01*
X8950Y20490D01*
X8560Y20880D02*X8950Y20490D01*
X7390Y20880D02*X8560D01*
X7000Y21270D02*X7390Y20880D01*
X7000Y21270D02*X7390Y21660D01*
X8560D01*
X8950Y21270D01*
X7000Y20490D02*X7390Y20100D01*
X10276Y21660D02*X11446D01*
X9886Y21270D02*X10276Y21660D01*
X9886Y21270D02*Y20490D01*
X10276Y20100D01*
X11446D01*
X12383Y23220D02*Y20490D01*
X12773Y20100D01*
X16000Y35500D02*X16500Y35000D01*
X16000Y38500D02*Y35500D01*
Y38500D02*X16500Y39000D01*
X17500D01*
X18000Y38500D01*
Y35500D01*
X17500Y35000D02*X18000Y35500D01*
X16500Y35000D02*X17500D01*
X16000Y36000D02*X18000Y38000D01*
X37500Y31500D02*X38500D01*
X38000Y35500D02*Y31500D01*
X37000Y34500D02*X38000Y35500D01*
X62500Y32000D02*X63000Y32500D01*
X64500D01*
X65000Y32000D01*
Y31000D01*
X62500Y28500D02*X65000Y31000D01*
X62500Y28500D02*X65000D01*
X15000Y16000D02*X17000Y18000D01*
X15000Y16000D02*X17500D01*
X17000Y18000D02*Y14000D01*
X41000Y18000D02*X43000D01*
X41000D02*Y16000D01*
X41500Y16500D01*
X42500D01*
X43000Y16000D01*
Y14500D01*
X42500Y14000D02*X43000Y14500D01*
X41500Y14000D02*X42500D01*
X41000Y14500D02*X41500Y14000D01*
X67500Y16000D02*X68000Y15500D01*
X66500Y16000D02*X67500D01*
X66000Y15500D02*X66500Y16000D01*
X66000Y15500D02*Y12500D01*
X66500Y12000D01*
X67500Y14000D02*X68000Y13500D01*
X66000Y14000D02*X67500D01*
X66500Y12000D02*X67500D01*
X68000Y12500D01*
Y13500D02*Y12500D01*
X133000Y14000D02*X135000Y16000D01*
Y17500D02*Y16000D01*
X134500Y18000D02*X135000Y17500D01*
X133500Y18000D02*X134500D01*
X133000Y17500D02*X133500Y18000D01*
X133000Y17500D02*Y16500D01*
X133500Y16000D01*
X135000D01*
X158500D02*X159000Y15500D01*
X157500Y16000D02*X158500D01*
X157000Y15500D02*X157500Y16000D01*
X157000Y15500D02*Y14500D01*
X157500Y14000D01*
X159000Y16000D02*Y14500D01*
X159500Y14000D01*
X157500D02*X158500D01*
X159000Y14500D01*
X182500Y19500D02*Y15500D01*
Y16000D02*X183000Y15500D01*
X184000D01*
X184500Y16000D01*
Y17000D02*Y16000D01*
X184000Y17500D02*X184500Y17000D01*
X183000Y17500D02*X184000D01*
X182500Y17000D02*X183000Y17500D01*
X188335Y20650D02*X189340D01*
X189675Y20985D01*
X189340Y21320D02*X189675Y20985D01*
X188335Y21320D02*X189340D01*
X188000Y21655D02*X188335Y21320D01*
X188000Y21655D02*X188335Y21990D01*
X189340D01*
X189675Y21655D01*
X188000Y20985D02*X188335Y20650D01*
X190814Y21990D02*X191819D01*
X190479Y21655D02*X190814Y21990D01*
X190479Y21655D02*Y20985D01*
X190814Y20650D01*
X191819D01*
X192624Y23330D02*Y20985D01*
X192959Y20650D01*
X77500Y9000D02*X80000Y11500D01*
Y13000D02*Y11500D01*
X77500Y13000D02*X80000D01*
X96500Y27500D02*X97000Y28000D01*
X98000D01*
X98500Y27500D01*
Y24500D01*
X98000Y24000D02*X98500Y24500D01*
X97000Y24000D02*X98000D01*
X96500Y24500D02*X97000Y24000D01*
Y26000D02*X98500D01*
X119500Y26500D02*Y23000D01*
Y26500D02*X120000Y27000D01*
X120500D01*
X119000Y25000D02*X120000D01*
X84434Y43283D02*Y6717D01*
X115566D01*
Y43283D02*Y6717D01*
X84434Y43283D02*X97500D01*
X102500D02*X115566D01*
X97500D02*G75*G03X102500Y43283I2500J0D01*G01*
X140805Y8103D02*Y2103D01*
X126305Y1103D02*Y2103D01*
X138805Y5103D02*Y3603D01*
X122805Y5603D02*X124305Y4103D01*
X132805D02*X133305Y3603D01*
X135805Y6603D02*X134805D01*
Y5103D01*
X125805Y5603D02*X127305Y4103D01*
X140805Y2103D02*X129305D01*
X124305Y5603D02*X122805Y4103D01*
X137805Y5103D02*X138805D01*
X134805D02*X135805D01*
X130305Y8103D02*X140805D01*
X131805Y4103D02*Y5103D01*
X132805D01*
X123305Y2103D02*X127805D01*
X123305D02*Y1103D01*
X132805Y5103D02*Y4103D01*
X130305Y2603D02*Y8103D01*
X135805Y3603D02*X134805D01*
X135805Y5103D02*Y3603D01*
X127305Y5603D02*X125805Y4103D01*
X137305Y6603D02*Y3603D01*
M02*
