G04 start of page 11 for group -4015 idx -4015 *
G04 Title: (unknown), toppaste *
G04 Creator: pcb 4.2.0 *
G04 CreationDate: Mon May  4 13:25:44 2020 UTC *
G04 For: xpi *
G04 Format: Gerber/RS-274X *
G04 PCB-Dimensions (mil): 3500.00 2000.00 *
G04 PCB-Coordinate-Origin: lower left *
%MOIN*%
%FSLAX25Y25*%
%LNTOPPASTE*%
%ADD83C,0.0001*%
G54D83*G36*
X315401Y116685D02*Y112748D01*
X344535D01*
Y116685D01*
X315401D01*
G37*
G36*
Y106843D02*Y102906D01*
X340598D01*
Y106843D01*
X315401D01*
G37*
G36*
Y98969D02*Y95032D01*
X340598D01*
Y98969D01*
X315401D01*
G37*
G36*
Y89126D02*Y85189D01*
X344535D01*
Y89126D01*
X315401D01*
G37*
G36*
X121623Y160410D02*Y158442D01*
X124377D01*
Y160410D01*
X121623D01*
G37*
G36*
Y163558D02*Y161590D01*
X124377D01*
Y163558D01*
X121623D01*
G37*
G36*
X121032Y159917D02*Y156965D01*
X124968D01*
Y159917D01*
X121032D01*
G37*
G36*
Y165035D02*Y162083D01*
X124968D01*
Y165035D01*
X121032D01*
G37*
G36*
X119260Y157654D02*Y152536D01*
X126740D01*
Y157654D01*
X119260D01*
G37*
G36*
Y169464D02*Y164346D01*
X126740D01*
Y169464D01*
X119260D01*
G37*
G36*
X146378Y134109D02*Y132535D01*
X150878D01*
Y134109D01*
X146378D01*
G37*
G36*
Y130960D02*Y129386D01*
X150878D01*
Y130960D01*
X146378D01*
G37*
G36*
Y127810D02*Y126236D01*
X150878D01*
Y127810D01*
X146378D01*
G37*
G36*
Y124661D02*Y123087D01*
X150878D01*
Y124661D01*
X146378D01*
G37*
G36*
Y121511D02*Y119937D01*
X150878D01*
Y121511D01*
X146378D01*
G37*
G36*
Y118361D02*Y116787D01*
X150878D01*
Y118361D01*
X146378D01*
G37*
G36*
Y115212D02*Y113638D01*
X150878D01*
Y115212D01*
X146378D01*
G37*
G36*
Y112062D02*Y110488D01*
X150878D01*
Y112062D01*
X146378D01*
G37*
G36*
Y108913D02*Y107339D01*
X150878D01*
Y108913D01*
X146378D01*
G37*
G36*
Y105763D02*Y104189D01*
X150878D01*
Y105763D01*
X146378D01*
G37*
G36*
Y102613D02*Y101039D01*
X150878D01*
Y102613D01*
X146378D01*
G37*
G36*
Y99464D02*Y97890D01*
X150878D01*
Y99464D01*
X146378D01*
G37*
G36*
X158465Y91878D02*X156891D01*
Y87378D01*
X158465D01*
Y91878D01*
G37*
G36*
X161614D02*X160040D01*
Y87378D01*
X161614D01*
Y91878D01*
G37*
G36*
X164764D02*X163190D01*
Y87378D01*
X164764D01*
Y91878D01*
G37*
G36*
X167913D02*X166339D01*
Y87378D01*
X167913D01*
Y91878D01*
G37*
G36*
X171063D02*X169489D01*
Y87378D01*
X171063D01*
Y91878D01*
G37*
G36*
X174213D02*X172639D01*
Y87378D01*
X174213D01*
Y91878D01*
G37*
G36*
X177362D02*X175788D01*
Y87378D01*
X177362D01*
Y91878D01*
G37*
G36*
X180512D02*X178938D01*
Y87378D01*
X180512D01*
Y91878D01*
G37*
G36*
X183661D02*X182087D01*
Y87378D01*
X183661D01*
Y91878D01*
G37*
G36*
X186811D02*X185237D01*
Y87378D01*
X186811D01*
Y91878D01*
G37*
G36*
X189961D02*X188387D01*
Y87378D01*
X189961D01*
Y91878D01*
G37*
G36*
X193110D02*X191536D01*
Y87378D01*
X193110D01*
Y91878D01*
G37*
G36*
X199122Y99465D02*Y97891D01*
X203622D01*
Y99465D01*
X199122D01*
G37*
G36*
Y102614D02*Y101040D01*
X203622D01*
Y102614D01*
X199122D01*
G37*
G36*
Y105764D02*Y104190D01*
X203622D01*
Y105764D01*
X199122D01*
G37*
G36*
Y108913D02*Y107339D01*
X203622D01*
Y108913D01*
X199122D01*
G37*
G36*
Y112063D02*Y110489D01*
X203622D01*
Y112063D01*
X199122D01*
G37*
G36*
Y115213D02*Y113639D01*
X203622D01*
Y115213D01*
X199122D01*
G37*
G36*
Y118362D02*Y116788D01*
X203622D01*
Y118362D01*
X199122D01*
G37*
G36*
Y121512D02*Y119938D01*
X203622D01*
Y121512D01*
X199122D01*
G37*
G36*
Y124661D02*Y123087D01*
X203622D01*
Y124661D01*
X199122D01*
G37*
G36*
Y127811D02*Y126237D01*
X203622D01*
Y127811D01*
X199122D01*
G37*
G36*
Y130961D02*Y129387D01*
X203622D01*
Y130961D01*
X199122D01*
G37*
G36*
Y134110D02*Y132536D01*
X203622D01*
Y134110D01*
X199122D01*
G37*
G36*
X193109Y144622D02*X191535D01*
Y140122D01*
X193109D01*
Y144622D01*
G37*
G36*
X189960D02*X188386D01*
Y140122D01*
X189960D01*
Y144622D01*
G37*
G36*
X186810D02*X185236D01*
Y140122D01*
X186810D01*
Y144622D01*
G37*
G36*
X183661D02*X182087D01*
Y140122D01*
X183661D01*
Y144622D01*
G37*
G36*
X180511D02*X178937D01*
Y140122D01*
X180511D01*
Y144622D01*
G37*
G36*
X177361D02*X175787D01*
Y140122D01*
X177361D01*
Y144622D01*
G37*
G36*
X174212D02*X172638D01*
Y140122D01*
X174212D01*
Y144622D01*
G37*
G36*
X171062D02*X169488D01*
Y140122D01*
X171062D01*
Y144622D01*
G37*
G36*
X167913D02*X166339D01*
Y140122D01*
X167913D01*
Y144622D01*
G37*
G36*
X164763D02*X163189D01*
Y140122D01*
X164763D01*
Y144622D01*
G37*
G36*
X161613D02*X160039D01*
Y140122D01*
X161613D01*
Y144622D01*
G37*
G36*
X158464D02*X156890D01*
Y140122D01*
X158464D01*
Y144622D01*
G37*
G36*
X221410Y65377D02*X219442D01*
Y62623D01*
X221410D01*
Y65377D01*
G37*
G36*
X224558D02*X222590D01*
Y62623D01*
X224558D01*
Y65377D01*
G37*
G36*
X220917Y65968D02*X217965D01*
Y62032D01*
X220917D01*
Y65968D01*
G37*
G36*
X226035D02*X223083D01*
Y62032D01*
X226035D01*
Y65968D01*
G37*
G36*
X218654Y67740D02*X213536D01*
Y60260D01*
X218654D01*
Y67740D01*
G37*
G36*
X230464D02*X225346D01*
Y60260D01*
X230464D01*
Y67740D01*
G37*
G36*
X177410Y184377D02*X175442D01*
Y181623D01*
X177410D01*
Y184377D01*
G37*
G36*
X180558D02*X178590D01*
Y181623D01*
X180558D01*
Y184377D01*
G37*
G36*
X176917Y184968D02*X173965D01*
Y181032D01*
X176917D01*
Y184968D01*
G37*
G36*
X182035D02*X179083D01*
Y181032D01*
X182035D01*
Y184968D01*
G37*
G36*
X174654Y186740D02*X169536D01*
Y179260D01*
X174654D01*
Y186740D01*
G37*
G36*
X186464D02*X181346D01*
Y179260D01*
X186464D01*
Y186740D01*
G37*
G36*
X165410Y191377D02*X163442D01*
Y188623D01*
X165410D01*
Y191377D01*
G37*
G36*
X168558D02*X166590D01*
Y188623D01*
X168558D01*
Y191377D01*
G37*
G36*
X164917Y191968D02*X161965D01*
Y188032D01*
X164917D01*
Y191968D01*
G37*
G36*
X170035D02*X167083D01*
Y188032D01*
X170035D01*
Y191968D01*
G37*
G36*
X162654Y193740D02*X157536D01*
Y186260D01*
X162654D01*
Y193740D01*
G37*
G36*
X174464D02*X169346D01*
Y186260D01*
X174464D01*
Y193740D01*
G37*
G36*
X137934Y33326D02*Y32027D01*
X143838D01*
Y33326D01*
X137934D01*
G37*
G36*
Y30768D02*Y29468D01*
X143838D01*
Y30768D01*
X137934D01*
G37*
G36*
Y28208D02*Y26910D01*
X143838D01*
Y28208D01*
X137934D01*
G37*
G36*
Y25650D02*Y24350D01*
X143838D01*
Y25650D01*
X137934D01*
G37*
G36*
Y23090D02*Y21792D01*
X143838D01*
Y23090D01*
X137934D01*
G37*
G36*
Y20532D02*Y19232D01*
X143838D01*
Y20532D01*
X137934D01*
G37*
G36*
Y17972D02*Y16674D01*
X143838D01*
Y17972D01*
X137934D01*
G37*
G36*
X161162D02*Y16674D01*
X167066D01*
Y17972D01*
X161162D01*
G37*
G36*
Y20532D02*Y19232D01*
X167066D01*
Y20532D01*
X161162D01*
G37*
G36*
Y23090D02*Y21792D01*
X167066D01*
Y23090D01*
X161162D01*
G37*
G36*
Y25650D02*Y24350D01*
X167066D01*
Y25650D01*
X161162D01*
G37*
G36*
Y28208D02*Y26910D01*
X167066D01*
Y28208D01*
X161162D01*
G37*
G36*
Y30768D02*Y29468D01*
X167066D01*
Y30768D01*
X161162D01*
G37*
G36*
Y33326D02*Y32027D01*
X167066D01*
Y33326D01*
X161162D01*
G37*
M02*
