G04 start of page 13 for group -3984 idx -3984 *
G04 Title: (unknown), fab *
G04 Creator: pcb 4.2.0 *
G04 CreationDate: Mon May  4 13:26:18 2020 UTC *
G04 For: xpi *
G04 Format: Gerber/RS-274X *
G04 PCB-Dimensions (mil): 3500.00 2000.00 *
G04 PCB-Coordinate-Origin: lower left *
%MOIN*%
%FSLAX25Y25*%
%LNFAB*%
%ADD88C,0.0100*%
%ADD87C,0.0075*%
%ADD86C,0.0060*%
%ADD85R,0.0080X0.0080*%
G54D85*X18400Y181600D02*X21600D01*
X18400D02*Y178400D01*
X21600D01*
Y181600D02*Y178400D01*
X328400Y20600D02*X331600D01*
X328400D02*Y17400D01*
X331600D01*
Y20600D02*Y17400D01*
X328400Y182600D02*X331600D01*
X328400D02*Y179400D01*
X331600D01*
Y182600D02*Y179400D01*
X18400Y21600D02*X21600D01*
X18400D02*Y18400D01*
X21600D01*
Y21600D02*Y18400D01*
X13400Y212850D02*X16600D01*
X13400D02*Y209650D01*
X16600D01*
Y212850D02*Y209650D01*
G54D86*X135000Y213500D02*X136500Y210500D01*
X138000Y213500D01*
X136500Y210500D02*Y207500D01*
X139800Y210800D02*X142050D01*
X139800Y207500D02*X142800D01*
X139800Y213500D02*Y207500D01*
Y213500D02*X142800D01*
X147600D02*X148350Y212750D01*
X145350Y213500D02*X147600D01*
X144600Y212750D02*X145350Y213500D01*
X144600Y212750D02*Y211250D01*
X145350Y210500D01*
X147600D01*
X148350Y209750D01*
Y208250D01*
X147600Y207500D02*X148350Y208250D01*
X145350Y207500D02*X147600D01*
X144600Y208250D02*X145350Y207500D01*
X98000Y209750D02*X101000Y213500D01*
X98000Y209750D02*X101750D01*
X101000Y213500D02*Y207500D01*
X45000Y208250D02*X45750Y207500D01*
X45000Y212750D02*Y208250D01*
Y212750D02*X45750Y213500D01*
X47250D01*
X48000Y212750D01*
Y208250D01*
X47250Y207500D02*X48000Y208250D01*
X45750Y207500D02*X47250D01*
X45000Y209000D02*X48000Y212000D01*
X49800Y207500D02*X50550D01*
X52350Y212300D02*X53550Y213500D01*
Y207500D01*
X52350D02*X54600D01*
X56400Y213500D02*X59400D01*
X56400D02*Y210500D01*
X57150Y211250D01*
X58650D01*
X59400Y210500D01*
Y208250D01*
X58650Y207500D02*X59400Y208250D01*
X57150Y207500D02*X58650D01*
X56400Y208250D02*X57150Y207500D01*
X61200Y209750D02*X64200Y213500D01*
X61200Y209750D02*X64950D01*
X64200Y213500D02*Y207500D01*
X163200Y103000D02*G75*G03X164800Y103000I800J0D01*G01*
G75*G03X163200Y103000I-800J0D01*G01*
X174200D02*G75*G03X175800Y103000I800J0D01*G01*
G75*G03X174200Y103000I-800J0D01*G01*
X186200D02*G75*G03X187800Y103000I800J0D01*G01*
G75*G03X186200Y103000I-800J0D01*G01*
Y129000D02*G75*G03X187800Y129000I800J0D01*G01*
G75*G03X186200Y129000I-800J0D01*G01*
X174200D02*G75*G03X175800Y129000I800J0D01*G01*
G75*G03X174200Y129000I-800J0D01*G01*
X163200D02*G75*G03X164800Y129000I800J0D01*G01*
G75*G03X163200Y129000I-800J0D01*G01*
X14200Y226250D02*G75*G03X15800Y226250I800J0D01*G01*
G75*G03X14200Y226250I-800J0D01*G01*
X135000Y228500D02*X136500Y225500D01*
X138000Y228500D01*
X136500Y225500D02*Y222500D01*
X139800Y225800D02*X142050D01*
X139800Y222500D02*X142800D01*
X139800Y228500D02*Y222500D01*
Y228500D02*X142800D01*
X147600D02*X148350Y227750D01*
X145350Y228500D02*X147600D01*
X144600Y227750D02*X145350Y228500D01*
X144600Y227750D02*Y226250D01*
X145350Y225500D01*
X147600D01*
X148350Y224750D01*
Y223250D01*
X147600Y222500D02*X148350Y223250D01*
X145350Y222500D02*X147600D01*
X144600Y223250D02*X145350Y222500D01*
X100250Y228500D02*X101000Y227750D01*
X98750Y228500D02*X100250D01*
X98000Y227750D02*X98750Y228500D01*
X98000Y227750D02*Y223250D01*
X98750Y222500D01*
X100250Y225800D02*X101000Y225050D01*
X98000Y225800D02*X100250D01*
X98750Y222500D02*X100250D01*
X101000Y223250D01*
Y225050D02*Y223250D01*
X45000D02*X45750Y222500D01*
X45000Y227750D02*Y223250D01*
Y227750D02*X45750Y228500D01*
X47250D01*
X48000Y227750D01*
Y223250D01*
X47250Y222500D02*X48000Y223250D01*
X45750Y222500D02*X47250D01*
X45000Y224000D02*X48000Y227000D01*
X49800Y222500D02*X50550D01*
X52350Y223250D02*X53100Y222500D01*
X52350Y227750D02*Y223250D01*
Y227750D02*X53100Y228500D01*
X54600D01*
X55350Y227750D01*
Y223250D01*
X54600Y222500D02*X55350Y223250D01*
X53100Y222500D02*X54600D01*
X52350Y224000D02*X55350Y227000D01*
X57150Y227750D02*X57900Y228500D01*
X59400D01*
X60150Y227750D01*
X59400Y222500D02*X60150Y223250D01*
X57900Y222500D02*X59400D01*
X57150Y223250D02*X57900Y222500D01*
Y225800D02*X59400D01*
X60150Y227750D02*Y226550D01*
Y225050D02*Y223250D01*
Y225050D02*X59400Y225800D01*
X60150Y226550D02*X59400Y225800D01*
X61950Y228500D02*X64950D01*
X61950D02*Y225500D01*
X62700Y226250D01*
X64200D01*
X64950Y225500D01*
Y223250D01*
X64200Y222500D02*X64950Y223250D01*
X62700Y222500D02*X64200D01*
X61950Y223250D02*X62700Y222500D01*
X121300Y11200D02*X123700Y8800D01*
X121300D02*X123700Y11200D01*
X131300D02*X133700Y8800D01*
X131300D02*X133700Y11200D01*
X141300D02*X143700Y8800D01*
X141300D02*X143700Y11200D01*
X151300D02*X153700Y8800D01*
X151300D02*X153700Y11200D01*
X161300D02*X163700Y8800D01*
X161300D02*X163700Y11200D01*
X171300D02*X173700Y8800D01*
X171300D02*X173700Y11200D01*
X181300D02*X183700Y8800D01*
X181300D02*X183700Y11200D01*
X181300Y41200D02*X183700Y38800D01*
X181300D02*X183700Y41200D01*
X171300D02*X173700Y38800D01*
X171300D02*X173700Y41200D01*
X161300D02*X163700Y38800D01*
X161300D02*X163700Y41200D01*
X151300D02*X153700Y38800D01*
X151300D02*X153700Y41200D01*
X141300D02*X143700Y38800D01*
X141300D02*X143700Y41200D01*
X131300D02*X133700Y38800D01*
X131300D02*X133700Y41200D01*
X121300D02*X123700Y38800D01*
X121300D02*X123700Y41200D01*
X303800Y111200D02*X306200Y108800D01*
X303800D02*X306200Y111200D01*
X303800Y101200D02*X306200Y98800D01*
X303800D02*X306200Y101200D01*
X303800Y91200D02*X306200Y88800D01*
X303800D02*X306200Y91200D01*
X303800Y121200D02*X306200Y118800D01*
X303800D02*X306200Y121200D01*
X126800Y142200D02*X129200Y139800D01*
X126800D02*X129200Y142200D01*
X126800Y132200D02*X129200Y129800D01*
X126800D02*X129200Y132200D01*
X126800Y122200D02*X129200Y119800D01*
X126800D02*X129200Y122200D01*
X126800Y112200D02*X129200Y109800D01*
X126800D02*X129200Y112200D01*
X126800Y102200D02*X129200Y99800D01*
X126800D02*X129200Y102200D01*
X126800Y92200D02*X129200Y89800D01*
X126800D02*X129200Y92200D01*
X116800Y142200D02*X119200Y139800D01*
X116800D02*X119200Y142200D01*
X116800Y132200D02*X119200Y129800D01*
X116800D02*X119200Y132200D01*
X116800Y122200D02*X119200Y119800D01*
X116800D02*X119200Y122200D01*
X116800Y102200D02*X119200Y99800D01*
X116800D02*X119200Y102200D01*
X116800Y92200D02*X119200Y89800D01*
X116800D02*X119200Y92200D01*
X234800Y141200D02*X237200Y138800D01*
X234800D02*X237200Y141200D01*
X234800Y131200D02*X237200Y128800D01*
X234800D02*X237200Y131200D01*
X234800Y121200D02*X237200Y118800D01*
X234800D02*X237200Y121200D01*
X234800Y111200D02*X237200Y108800D01*
X234800D02*X237200Y111200D01*
X234800Y101200D02*X237200Y98800D01*
X234800D02*X237200Y101200D01*
X234800Y91200D02*X237200Y88800D01*
X234800D02*X237200Y91200D01*
X224800Y141200D02*X227200Y138800D01*
X224800D02*X227200Y141200D01*
X224800Y131200D02*X227200Y128800D01*
X224800D02*X227200Y131200D01*
X224800Y121200D02*X227200Y118800D01*
X224800D02*X227200Y121200D01*
X224800Y111200D02*X227200Y108800D01*
X224800D02*X227200Y111200D01*
X224800Y101200D02*X227200Y98800D01*
X224800D02*X227200Y101200D01*
X224800Y91200D02*X227200Y88800D01*
X224800D02*X227200Y91200D01*
X170800Y169200D02*X173200Y166800D01*
X170800D02*X173200Y169200D01*
X170800Y159200D02*X173200Y156800D01*
X170800D02*X173200Y159200D01*
X160800Y169200D02*X163200Y166800D01*
X160800D02*X163200Y169200D01*
X160800Y159200D02*X163200Y156800D01*
X160800D02*X163200Y159200D01*
X150800Y169200D02*X153200Y166800D01*
X150800D02*X153200Y169200D01*
X150800Y159200D02*X153200Y156800D01*
X150800D02*X153200Y159200D01*
X200800Y169200D02*X203200Y166800D01*
X200800D02*X203200Y169200D01*
X200800Y159200D02*X203200Y156800D01*
X200800D02*X203200Y159200D01*
X190800Y169200D02*X193200Y166800D01*
X190800D02*X193200Y169200D01*
X190800Y159200D02*X193200Y156800D01*
X190800D02*X193200Y159200D01*
X180800Y169200D02*X183200Y166800D01*
X180800D02*X183200Y169200D01*
X180800Y159200D02*X183200Y156800D01*
X180800D02*X183200Y159200D01*
X169800Y75200D02*X172200Y72800D01*
X169800D02*X172200Y75200D01*
X169800Y65200D02*X172200Y62800D01*
X169800D02*X172200Y65200D01*
X159800Y75200D02*X162200Y72800D01*
X159800D02*X162200Y75200D01*
X159800Y65200D02*X162200Y62800D01*
X159800D02*X162200Y65200D01*
X149800Y75200D02*X152200Y72800D01*
X149800D02*X152200Y75200D01*
X149800Y65200D02*X152200Y62800D01*
X149800D02*X152200Y65200D01*
X199800Y75200D02*X202200Y72800D01*
X199800D02*X202200Y75200D01*
X199800Y65200D02*X202200Y62800D01*
X199800D02*X202200Y65200D01*
X189800Y75200D02*X192200Y72800D01*
X189800D02*X192200Y75200D01*
X189800Y65200D02*X192200Y62800D01*
X189800D02*X192200Y65200D01*
X179800Y75200D02*X182200Y72800D01*
X179800D02*X182200Y75200D01*
X179800Y65200D02*X182200Y62800D01*
X179800D02*X182200Y65200D01*
X224800Y186200D02*X227200Y183800D01*
X224800D02*X227200Y186200D01*
X224800Y176200D02*X227200Y173800D01*
X224800D02*X227200Y176200D01*
X224800Y166200D02*X227200Y163800D01*
X224800D02*X227200Y166200D01*
X224800Y156200D02*X227200Y153800D01*
X224800D02*X227200Y156200D01*
X98800Y183700D02*X101200Y181300D01*
X98800D02*X101200Y183700D01*
X98800Y173700D02*X101200Y171300D01*
X98800D02*X101200Y173700D01*
X98800Y163700D02*X101200Y161300D01*
X98800D02*X101200Y163700D01*
X98800Y153700D02*X101200Y151300D01*
X98800D02*X101200Y153700D01*
X98800Y143700D02*X101200Y141300D01*
X98800D02*X101200Y143700D01*
X98800Y133700D02*X101200Y131300D01*
X98800D02*X101200Y133700D01*
X98800Y123700D02*X101200Y121300D01*
X98800D02*X101200Y123700D01*
X98800Y113700D02*X101200Y111300D01*
X98800D02*X101200Y113700D01*
X88800Y183700D02*X91200Y181300D01*
X88800D02*X91200Y183700D01*
X88800Y173700D02*X91200Y171300D01*
X88800D02*X91200Y173700D01*
X88800Y163700D02*X91200Y161300D01*
X88800D02*X91200Y163700D01*
X88800Y153700D02*X91200Y151300D01*
X88800D02*X91200Y153700D01*
X88800Y143700D02*X91200Y141300D01*
X88800D02*X91200Y143700D01*
X88800Y133700D02*X91200Y131300D01*
X88800D02*X91200Y133700D01*
X88800Y123700D02*X91200Y121300D01*
X88800D02*X91200Y123700D01*
X88800Y113700D02*X91200Y111300D01*
X88800D02*X91200Y113700D01*
X78800Y183700D02*X81200Y181300D01*
X78800D02*X81200Y183700D01*
X78800Y173700D02*X81200Y171300D01*
X78800D02*X81200Y173700D01*
X78800Y163700D02*X81200Y161300D01*
X78800D02*X81200Y163700D01*
X78800Y153700D02*X81200Y151300D01*
X78800D02*X81200Y153700D01*
X78800Y143700D02*X81200Y141300D01*
X78800D02*X81200Y143700D01*
X78800Y133700D02*X81200Y131300D01*
X78800D02*X81200Y133700D01*
X78800Y123700D02*X81200Y121300D01*
X78800D02*X81200Y123700D01*
X78800Y113700D02*X81200Y111300D01*
X78800D02*X81200Y113700D01*
X98800Y103700D02*X101200Y101300D01*
X98800D02*X101200Y103700D01*
X98800Y93700D02*X101200Y91300D01*
X98800D02*X101200Y93700D01*
X98800Y83700D02*X101200Y81300D01*
X98800D02*X101200Y83700D01*
X88800Y103700D02*X91200Y101300D01*
X88800D02*X91200Y103700D01*
X88800Y93700D02*X91200Y91300D01*
X88800D02*X91200Y93700D01*
X88800Y83700D02*X91200Y81300D01*
X88800D02*X91200Y83700D01*
X78800Y103700D02*X81200Y101300D01*
X78800D02*X81200Y103700D01*
X78800Y93700D02*X81200Y91300D01*
X78800D02*X81200Y93700D01*
X78800Y83700D02*X81200Y81300D01*
X78800D02*X81200Y83700D01*
X98800Y73700D02*X101200Y71300D01*
X98800D02*X101200Y73700D01*
X98800Y63700D02*X101200Y61300D01*
X98800D02*X101200Y63700D01*
X88800Y73700D02*X91200Y71300D01*
X88800D02*X91200Y73700D01*
X88800Y63700D02*X91200Y61300D01*
X88800D02*X91200Y63700D01*
X78800Y73700D02*X81200Y71300D01*
X78800D02*X81200Y73700D01*
X78800Y63700D02*X81200Y61300D01*
X78800D02*X81200Y63700D01*
X98800Y53700D02*X101200Y51300D01*
X98800D02*X101200Y53700D01*
X98800Y43700D02*X101200Y41300D01*
X98800D02*X101200Y43700D01*
X98800Y33700D02*X101200Y31300D01*
X98800D02*X101200Y33700D01*
X88800Y53700D02*X91200Y51300D01*
X88800D02*X91200Y53700D01*
X88800Y43700D02*X91200Y41300D01*
X88800D02*X91200Y43700D01*
X88800Y33700D02*X91200Y31300D01*
X88800D02*X91200Y33700D01*
X78800Y53700D02*X81200Y51300D01*
X78800D02*X81200Y53700D01*
X78800Y43700D02*X81200Y41300D01*
X78800D02*X81200Y43700D01*
X78800Y33700D02*X81200Y31300D01*
X78800D02*X81200Y33700D01*
X58800Y183700D02*X61200Y181300D01*
X58800D02*X61200Y183700D01*
X58800Y173700D02*X61200Y171300D01*
X58800D02*X61200Y173700D01*
X58800Y163700D02*X61200Y161300D01*
X58800D02*X61200Y163700D01*
X58800Y153700D02*X61200Y151300D01*
X58800D02*X61200Y153700D01*
X58800Y143700D02*X61200Y141300D01*
X58800D02*X61200Y143700D01*
X58800Y133700D02*X61200Y131300D01*
X58800D02*X61200Y133700D01*
X58800Y123700D02*X61200Y121300D01*
X58800D02*X61200Y123700D01*
X58800Y113700D02*X61200Y111300D01*
X58800D02*X61200Y113700D01*
X48800Y183700D02*X51200Y181300D01*
X48800D02*X51200Y183700D01*
X48800Y173700D02*X51200Y171300D01*
X48800D02*X51200Y173700D01*
X48800Y163700D02*X51200Y161300D01*
X48800D02*X51200Y163700D01*
X48800Y153700D02*X51200Y151300D01*
X48800D02*X51200Y153700D01*
X48800Y143700D02*X51200Y141300D01*
X48800D02*X51200Y143700D01*
X48800Y133700D02*X51200Y131300D01*
X48800D02*X51200Y133700D01*
X48800Y123700D02*X51200Y121300D01*
X48800D02*X51200Y123700D01*
X48800Y113700D02*X51200Y111300D01*
X48800D02*X51200Y113700D01*
X38800Y183700D02*X41200Y181300D01*
X38800D02*X41200Y183700D01*
X38800Y173700D02*X41200Y171300D01*
X38800D02*X41200Y173700D01*
X38800Y163700D02*X41200Y161300D01*
X38800D02*X41200Y163700D01*
X38800Y153700D02*X41200Y151300D01*
X38800D02*X41200Y153700D01*
X38800Y143700D02*X41200Y141300D01*
X38800D02*X41200Y143700D01*
X38800Y133700D02*X41200Y131300D01*
X38800D02*X41200Y133700D01*
X38800Y123700D02*X41200Y121300D01*
X38800D02*X41200Y123700D01*
X38800Y113700D02*X41200Y111300D01*
X38800D02*X41200Y113700D01*
X58800Y103700D02*X61200Y101300D01*
X58800D02*X61200Y103700D01*
X58800Y93700D02*X61200Y91300D01*
X58800D02*X61200Y93700D01*
X58800Y83700D02*X61200Y81300D01*
X58800D02*X61200Y83700D01*
X48800Y103700D02*X51200Y101300D01*
X48800D02*X51200Y103700D01*
X48800Y93700D02*X51200Y91300D01*
X48800D02*X51200Y93700D01*
X48800Y83700D02*X51200Y81300D01*
X48800D02*X51200Y83700D01*
X38800Y103700D02*X41200Y101300D01*
X38800D02*X41200Y103700D01*
X38800Y93700D02*X41200Y91300D01*
X38800D02*X41200Y93700D01*
X38800Y83700D02*X41200Y81300D01*
X38800D02*X41200Y83700D01*
X58800Y73700D02*X61200Y71300D01*
X58800D02*X61200Y73700D01*
X58800Y63700D02*X61200Y61300D01*
X58800D02*X61200Y63700D01*
X48800Y73700D02*X51200Y71300D01*
X48800D02*X51200Y73700D01*
X48800Y63700D02*X51200Y61300D01*
X48800D02*X51200Y63700D01*
X38800Y73700D02*X41200Y71300D01*
X38800D02*X41200Y73700D01*
X38800Y63700D02*X41200Y61300D01*
X38800D02*X41200Y63700D01*
X58800Y53700D02*X61200Y51300D01*
X58800D02*X61200Y53700D01*
X58800Y43700D02*X61200Y41300D01*
X58800D02*X61200Y43700D01*
X58800Y33700D02*X61200Y31300D01*
X58800D02*X61200Y33700D01*
X48800Y53700D02*X51200Y51300D01*
X48800D02*X51200Y53700D01*
X48800Y43700D02*X51200Y41300D01*
X48800D02*X51200Y43700D01*
X48800Y33700D02*X51200Y31300D01*
X48800D02*X51200Y33700D01*
X38800Y53700D02*X41200Y51300D01*
X38800D02*X41200Y53700D01*
X38800Y43700D02*X41200Y41300D01*
X38800D02*X41200Y43700D01*
X38800Y33700D02*X41200Y31300D01*
X38800D02*X41200Y33700D01*
X68800Y183700D02*X71200Y181300D01*
X68800D02*X71200Y183700D01*
X68800Y173700D02*X71200Y171300D01*
X68800D02*X71200Y173700D01*
X68800Y163700D02*X71200Y161300D01*
X68800D02*X71200Y163700D01*
X68800Y153700D02*X71200Y151300D01*
X68800D02*X71200Y153700D01*
X68800Y143700D02*X71200Y141300D01*
X68800D02*X71200Y143700D01*
X68800Y133700D02*X71200Y131300D01*
X68800D02*X71200Y133700D01*
X68800Y123700D02*X71200Y121300D01*
X68800D02*X71200Y123700D01*
X68800Y113700D02*X71200Y111300D01*
X68800D02*X71200Y113700D01*
X68800Y103700D02*X71200Y101300D01*
X68800D02*X71200Y103700D01*
X68800Y93700D02*X71200Y91300D01*
X68800D02*X71200Y93700D01*
X68800Y83700D02*X71200Y81300D01*
X68800D02*X71200Y83700D01*
X68800Y73700D02*X71200Y71300D01*
X68800D02*X71200Y73700D01*
X68800Y63700D02*X71200Y61300D01*
X68800D02*X71200Y63700D01*
X68800Y53700D02*X71200Y51300D01*
X68800D02*X71200Y53700D01*
X68800Y43700D02*X71200Y41300D01*
X68800D02*X71200Y43700D01*
X68800Y33700D02*X71200Y31300D01*
X68800D02*X71200Y33700D01*
X28800Y163700D02*X31200Y161300D01*
X28800D02*X31200Y163700D01*
X28800Y153700D02*X31200Y151300D01*
X28800D02*X31200Y153700D01*
X28800Y143700D02*X31200Y141300D01*
X28800D02*X31200Y143700D01*
X28800Y133700D02*X31200Y131300D01*
X28800D02*X31200Y133700D01*
X28800Y123700D02*X31200Y121300D01*
X28800D02*X31200Y123700D01*
X28800Y113700D02*X31200Y111300D01*
X28800D02*X31200Y113700D01*
X28800Y103700D02*X31200Y101300D01*
X28800D02*X31200Y103700D01*
X28800Y93700D02*X31200Y91300D01*
X28800D02*X31200Y93700D01*
X28800Y83700D02*X31200Y81300D01*
X28800D02*X31200Y83700D01*
X28800Y73700D02*X31200Y71300D01*
X28800D02*X31200Y73700D01*
X28800Y63700D02*X31200Y61300D01*
X28800D02*X31200Y63700D01*
X28800Y53700D02*X31200Y51300D01*
X28800D02*X31200Y53700D01*
X28800Y43700D02*X31200Y41300D01*
X28800D02*X31200Y43700D01*
X108800Y21700D02*X111200Y19300D01*
X108800D02*X111200Y21700D01*
X108800Y9700D02*X111200Y7300D01*
X108800D02*X111200Y9700D01*
X98800Y193700D02*X101200Y191300D01*
X98800D02*X101200Y193700D01*
X88800D02*X91200Y191300D01*
X88800D02*X91200Y193700D01*
X78800D02*X81200Y191300D01*
X78800D02*X81200Y193700D01*
X58800D02*X61200Y191300D01*
X58800D02*X61200Y193700D01*
X48800D02*X51200Y191300D01*
X48800D02*X51200Y193700D01*
X38800D02*X41200Y191300D01*
X38800D02*X41200Y193700D01*
X68800D02*X71200Y191300D01*
X68800D02*X71200Y193700D01*
X214800Y156200D02*X217200Y153800D01*
X214800D02*X217200Y156200D01*
X214800Y186200D02*X217200Y183800D01*
X214800D02*X217200Y186200D01*
X204800D02*X207200Y183800D01*
X204800D02*X207200Y186200D01*
X194800D02*X197200Y183800D01*
X194800D02*X197200Y186200D01*
X153800Y184200D02*X156200Y181800D01*
X153800D02*X156200Y184200D01*
X143800D02*X146200Y181800D01*
X143800D02*X146200Y184200D01*
X133800D02*X136200Y181800D01*
X133800D02*X136200Y184200D01*
X123800D02*X126200Y181800D01*
X123800D02*X126200Y184200D01*
X107800Y113200D02*X110200Y110800D01*
X107800D02*X110200Y113200D01*
X116800Y112200D02*X119200Y109800D01*
X116800D02*X119200Y112200D01*
X13800Y242450D02*X16200Y240050D01*
X13800D02*X16200Y242450D01*
X135000Y243500D02*X136500Y240500D01*
X138000Y243500D01*
X136500Y240500D02*Y237500D01*
X139800Y240800D02*X142050D01*
X139800Y237500D02*X142800D01*
X139800Y243500D02*Y237500D01*
Y243500D02*X142800D01*
X147600D02*X148350Y242750D01*
X145350Y243500D02*X147600D01*
X144600Y242750D02*X145350Y243500D01*
X144600Y242750D02*Y241250D01*
X145350Y240500D01*
X147600D01*
X148350Y239750D01*
Y238250D01*
X147600Y237500D02*X148350Y238250D01*
X145350Y237500D02*X147600D01*
X144600Y238250D02*X145350Y237500D01*
X98000Y242750D02*X98750Y243500D01*
X101000D01*
X101750Y242750D01*
Y241250D01*
X98000Y237500D02*X101750Y241250D01*
X98000Y237500D02*X101750D01*
X103550Y242300D02*X104750Y243500D01*
Y237500D01*
X103550D02*X105800D01*
X107600Y242750D02*X108350Y243500D01*
X109850D01*
X110600Y242750D01*
X109850Y237500D02*X110600Y238250D01*
X108350Y237500D02*X109850D01*
X107600Y238250D02*X108350Y237500D01*
Y240800D02*X109850D01*
X110600Y242750D02*Y241550D01*
Y240050D02*Y238250D01*
Y240050D02*X109850Y240800D01*
X110600Y241550D02*X109850Y240800D01*
X45000Y238250D02*X45750Y237500D01*
X45000Y242750D02*Y238250D01*
Y242750D02*X45750Y243500D01*
X47250D01*
X48000Y242750D01*
Y238250D01*
X47250Y237500D02*X48000Y238250D01*
X45750Y237500D02*X47250D01*
X45000Y239000D02*X48000Y242000D01*
X49800Y237500D02*X50550D01*
X52350Y238250D02*X53100Y237500D01*
X52350Y242750D02*Y238250D01*
Y242750D02*X53100Y243500D01*
X54600D01*
X55350Y242750D01*
Y238250D01*
X54600Y237500D02*X55350Y238250D01*
X53100Y237500D02*X54600D01*
X52350Y239000D02*X55350Y242000D01*
X57150Y242750D02*X57900Y243500D01*
X60150D01*
X60900Y242750D01*
Y241250D01*
X57150Y237500D02*X60900Y241250D01*
X57150Y237500D02*X60900D01*
X62700Y238250D02*X63450Y237500D01*
X62700Y239450D02*Y238250D01*
Y239450D02*X63750Y240500D01*
X64650D01*
X65700Y239450D01*
Y238250D01*
X64950Y237500D02*X65700Y238250D01*
X63450Y237500D02*X64950D01*
X62700Y241550D02*X63750Y240500D01*
X62700Y242750D02*Y241550D01*
Y242750D02*X63450Y243500D01*
X64950D01*
X65700Y242750D01*
Y241550D01*
X64650Y240500D02*X65700Y241550D01*
X196000Y91600D02*Y88400D01*
X194400Y90000D02*X197600D01*
X151000Y141600D02*Y138400D01*
X149400Y140000D02*X152600D01*
X164000Y138600D02*Y135400D01*
X162400Y137000D02*X165600D01*
X129000Y156600D02*Y153400D01*
X127400Y155000D02*X130600D01*
X184000Y191600D02*Y188400D01*
X182400Y190000D02*X185600D01*
X160000Y185600D02*Y182400D01*
X158400Y184000D02*X161600D01*
X15000Y257850D02*Y254650D01*
X13400Y256250D02*X16600D01*
X135000Y258500D02*X136500Y255500D01*
X138000Y258500D01*
X136500Y255500D02*Y252500D01*
X139800Y255800D02*X142050D01*
X139800Y252500D02*X142800D01*
X139800Y258500D02*Y252500D01*
Y258500D02*X142800D01*
X147600D02*X148350Y257750D01*
X145350Y258500D02*X147600D01*
X144600Y257750D02*X145350Y258500D01*
X144600Y257750D02*Y256250D01*
X145350Y255500D01*
X147600D01*
X148350Y254750D01*
Y253250D01*
X147600Y252500D02*X148350Y253250D01*
X145350Y252500D02*X147600D01*
X144600Y253250D02*X145350Y252500D01*
X100250Y258500D02*X101000Y257750D01*
X98750Y258500D02*X100250D01*
X98000Y257750D02*X98750Y258500D01*
X98000Y257750D02*Y253250D01*
X98750Y252500D01*
X100250Y255800D02*X101000Y255050D01*
X98000Y255800D02*X100250D01*
X98750Y252500D02*X100250D01*
X101000Y253250D01*
Y255050D02*Y253250D01*
X45000D02*X45750Y252500D01*
X45000Y257750D02*Y253250D01*
Y257750D02*X45750Y258500D01*
X47250D01*
X48000Y257750D01*
Y253250D01*
X47250Y252500D02*X48000Y253250D01*
X45750Y252500D02*X47250D01*
X45000Y254000D02*X48000Y257000D01*
X49800Y252500D02*X50550D01*
X52350Y253250D02*X53100Y252500D01*
X52350Y257750D02*Y253250D01*
Y257750D02*X53100Y258500D01*
X54600D01*
X55350Y257750D01*
Y253250D01*
X54600Y252500D02*X55350Y253250D01*
X53100Y252500D02*X54600D01*
X52350Y254000D02*X55350Y257000D01*
X57150Y257750D02*X57900Y258500D01*
X60150D01*
X60900Y257750D01*
Y256250D01*
X57150Y252500D02*X60900Y256250D01*
X57150Y252500D02*X60900D01*
X62700Y253250D02*X63450Y252500D01*
X62700Y257750D02*Y253250D01*
Y257750D02*X63450Y258500D01*
X64950D01*
X65700Y257750D01*
Y253250D01*
X64950Y252500D02*X65700Y253250D01*
X63450Y252500D02*X64950D01*
X62700Y254000D02*X65700Y257000D01*
X20000Y168977D02*Y167377D01*
Y168977D02*X21387Y169777D01*
X20000Y168977D02*X18613Y169777D01*
X20000Y191023D02*Y189423D01*
Y191023D02*X21387Y191823D01*
X20000Y191023D02*X18613Y191823D01*
X10453Y174489D02*Y172889D01*
Y174489D02*X11840Y175289D01*
X10453Y174489D02*X9066Y175289D01*
X29547Y174489D02*Y172889D01*
Y174489D02*X30934Y175289D01*
X29547Y174489D02*X28160Y175289D01*
X10453Y185511D02*Y183911D01*
Y185511D02*X11840Y186311D01*
X10453Y185511D02*X9066Y186311D01*
X29547Y185511D02*Y183911D01*
Y185511D02*X30934Y186311D01*
X29547Y185511D02*X28160Y186311D01*
X330000Y7977D02*Y6377D01*
Y7977D02*X331387Y8777D01*
X330000Y7977D02*X328613Y8777D01*
X330000Y30023D02*Y28423D01*
Y30023D02*X331387Y30823D01*
X330000Y30023D02*X328613Y30823D01*
X320453Y13489D02*Y11889D01*
Y13489D02*X321840Y14289D01*
X320453Y13489D02*X319066Y14289D01*
X339547Y13489D02*Y11889D01*
Y13489D02*X340934Y14289D01*
X339547Y13489D02*X338160Y14289D01*
X320453Y24511D02*Y22911D01*
Y24511D02*X321840Y25311D01*
X320453Y24511D02*X319066Y25311D01*
X339547Y24511D02*Y22911D01*
Y24511D02*X340934Y25311D01*
X339547Y24511D02*X338160Y25311D01*
X330000Y169977D02*Y168377D01*
Y169977D02*X331387Y170777D01*
X330000Y169977D02*X328613Y170777D01*
X330000Y192023D02*Y190423D01*
Y192023D02*X331387Y192823D01*
X330000Y192023D02*X328613Y192823D01*
X320453Y175489D02*Y173889D01*
Y175489D02*X321840Y176289D01*
X320453Y175489D02*X319066Y176289D01*
X339547Y175489D02*Y173889D01*
Y175489D02*X340934Y176289D01*
X339547Y175489D02*X338160Y176289D01*
X320453Y186511D02*Y184911D01*
Y186511D02*X321840Y187311D01*
X320453Y186511D02*X319066Y187311D01*
X339547Y186511D02*Y184911D01*
Y186511D02*X340934Y187311D01*
X339547Y186511D02*X338160Y187311D01*
X20000Y8977D02*Y7377D01*
Y8977D02*X21387Y9777D01*
X20000Y8977D02*X18613Y9777D01*
X20000Y31023D02*Y29423D01*
Y31023D02*X21387Y31823D01*
X20000Y31023D02*X18613Y31823D01*
X10453Y14489D02*Y12889D01*
Y14489D02*X11840Y15289D01*
X10453Y14489D02*X9066Y15289D01*
X29547Y14489D02*Y12889D01*
Y14489D02*X30934Y15289D01*
X29547Y14489D02*X28160Y15289D01*
X10453Y25511D02*Y23911D01*
Y25511D02*X11840Y26311D01*
X10453Y25511D02*X9066Y26311D01*
X29547Y25511D02*Y23911D01*
Y25511D02*X30934Y26311D01*
X29547Y25511D02*X28160Y26311D01*
X15000Y271250D02*Y269650D01*
Y271250D02*X16387Y272050D01*
X15000Y271250D02*X13613Y272050D01*
X135000Y273500D02*X136500Y270500D01*
X138000Y273500D01*
X136500Y270500D02*Y267500D01*
X139800Y270800D02*X142050D01*
X139800Y267500D02*X142800D01*
X139800Y273500D02*Y267500D01*
Y273500D02*X142800D01*
X147600D02*X148350Y272750D01*
X145350Y273500D02*X147600D01*
X144600Y272750D02*X145350Y273500D01*
X144600Y272750D02*Y271250D01*
X145350Y270500D01*
X147600D01*
X148350Y269750D01*
Y268250D01*
X147600Y267500D02*X148350Y268250D01*
X145350Y267500D02*X147600D01*
X144600Y268250D02*X145350Y267500D01*
X98000Y272750D02*X98750Y273500D01*
X101000D01*
X101750Y272750D01*
Y271250D01*
X98000Y267500D02*X101750Y271250D01*
X98000Y267500D02*X101750D01*
X103550Y269750D02*X106550Y273500D01*
X103550Y269750D02*X107300D01*
X106550Y273500D02*Y267500D01*
X45000Y268250D02*X45750Y267500D01*
X45000Y272750D02*Y268250D01*
Y272750D02*X45750Y273500D01*
X47250D01*
X48000Y272750D01*
Y268250D01*
X47250Y267500D02*X48000Y268250D01*
X45750Y267500D02*X47250D01*
X45000Y269000D02*X48000Y272000D01*
X49800Y267500D02*X50550D01*
X52350Y268250D02*X53100Y267500D01*
X52350Y272750D02*Y268250D01*
Y272750D02*X53100Y273500D01*
X54600D01*
X55350Y272750D01*
Y268250D01*
X54600Y267500D02*X55350Y268250D01*
X53100Y267500D02*X54600D01*
X52350Y269000D02*X55350Y272000D01*
X57150Y272750D02*X57900Y273500D01*
X60150D01*
X60900Y272750D01*
Y271250D01*
X57150Y267500D02*X60900Y271250D01*
X57150Y267500D02*X60900D01*
X62700Y268250D02*X63450Y267500D01*
X62700Y272750D02*Y268250D01*
Y272750D02*X63450Y273500D01*
X64950D01*
X65700Y272750D01*
Y268250D01*
X64950Y267500D02*X65700Y268250D01*
X63450Y267500D02*X64950D01*
X62700Y269000D02*X65700Y272000D01*
X3000Y288500D02*X3750Y287750D01*
X750Y288500D02*X3000D01*
X0Y287750D02*X750Y288500D01*
X0Y287750D02*Y286250D01*
X750Y285500D01*
X3000D01*
X3750Y284750D01*
Y283250D01*
X3000Y282500D02*X3750Y283250D01*
X750Y282500D02*X3000D01*
X0Y283250D02*X750Y282500D01*
X5550Y285500D02*Y283250D01*
X6300Y282500D01*
X8550Y285500D02*Y281000D01*
X7800Y280250D02*X8550Y281000D01*
X6300Y280250D02*X7800D01*
X5550Y281000D02*X6300Y280250D01*
Y282500D02*X7800D01*
X8550Y283250D01*
X11100Y284750D02*Y282500D01*
Y284750D02*X11850Y285500D01*
X12600D01*
X13350Y284750D01*
Y282500D01*
Y284750D02*X14100Y285500D01*
X14850D01*
X15600Y284750D01*
Y282500D01*
X10350Y285500D02*X11100Y284750D01*
X17400Y288500D02*Y282500D01*
Y283250D02*X18150Y282500D01*
X19650D01*
X20400Y283250D01*
Y284750D02*Y283250D01*
X19650Y285500D02*X20400Y284750D01*
X18150Y285500D02*X19650D01*
X17400Y284750D02*X18150Y285500D01*
X22200Y284750D02*Y283250D01*
Y284750D02*X22950Y285500D01*
X24450D01*
X25200Y284750D01*
Y283250D01*
X24450Y282500D02*X25200Y283250D01*
X22950Y282500D02*X24450D01*
X22200Y283250D02*X22950Y282500D01*
X27000Y288500D02*Y283250D01*
X27750Y282500D01*
X0Y279250D02*X29250D01*
X41750Y288500D02*Y282500D01*
X43700Y288500D02*X44750Y287450D01*
Y283550D01*
X43700Y282500D02*X44750Y283550D01*
X41000Y282500D02*X43700D01*
X41000Y288500D02*X43700D01*
G54D87*X46550Y287000D02*Y286850D01*
G54D86*Y284750D02*Y282500D01*
X50300Y285500D02*X51050Y284750D01*
X48800Y285500D02*X50300D01*
X48050Y284750D02*X48800Y285500D01*
X48050Y284750D02*Y283250D01*
X48800Y282500D01*
X51050Y285500D02*Y283250D01*
X51800Y282500D01*
X48800D02*X50300D01*
X51050Y283250D01*
X54350Y284750D02*Y282500D01*
Y284750D02*X55100Y285500D01*
X55850D01*
X56600Y284750D01*
Y282500D01*
Y284750D02*X57350Y285500D01*
X58100D01*
X58850Y284750D01*
Y282500D01*
X53600Y285500D02*X54350Y284750D01*
X60650Y282500D02*X61400D01*
X65900Y283250D02*X66650Y282500D01*
X65900Y287750D02*X66650Y288500D01*
X65900Y287750D02*Y283250D01*
X68450Y288500D02*X69950D01*
X69200D02*Y282500D01*
X68450D02*X69950D01*
X72500Y284750D02*Y282500D01*
Y284750D02*X73250Y285500D01*
X74000D01*
X74750Y284750D01*
Y282500D01*
X71750Y285500D02*X72500Y284750D01*
X77300Y285500D02*X79550D01*
X76550Y284750D02*X77300Y285500D01*
X76550Y284750D02*Y283250D01*
X77300Y282500D01*
X79550D01*
X81350Y288500D02*Y282500D01*
Y284750D02*X82100Y285500D01*
X83600D01*
X84350Y284750D01*
Y282500D01*
X86150Y288500D02*X86900Y287750D01*
Y283250D01*
X86150Y282500D02*X86900Y283250D01*
X41000Y279250D02*X88700D01*
X96050Y282500D02*X98000D01*
X95000Y283550D02*X96050Y282500D01*
X95000Y287450D02*Y283550D01*
Y287450D02*X96050Y288500D01*
X98000D01*
X99800Y284750D02*Y283250D01*
Y284750D02*X100550Y285500D01*
X102050D01*
X102800Y284750D01*
Y283250D01*
X102050Y282500D02*X102800Y283250D01*
X100550Y282500D02*X102050D01*
X99800Y283250D02*X100550Y282500D01*
X104600Y285500D02*Y283250D01*
X105350Y282500D01*
X106850D01*
X107600Y283250D01*
Y285500D02*Y283250D01*
X110150Y284750D02*Y282500D01*
Y284750D02*X110900Y285500D01*
X111650D01*
X112400Y284750D01*
Y282500D01*
X109400Y285500D02*X110150Y284750D01*
X114950Y288500D02*Y283250D01*
X115700Y282500D01*
X114200Y286250D02*X115700D01*
X95000Y279250D02*X117200D01*
X130750Y288500D02*Y282500D01*
X130000Y288500D02*X133000D01*
X133750Y287750D01*
Y286250D01*
X133000Y285500D02*X133750Y286250D01*
X130750Y285500D02*X133000D01*
X135550Y288500D02*Y283250D01*
X136300Y282500D01*
X140050Y285500D02*X140800Y284750D01*
X138550Y285500D02*X140050D01*
X137800Y284750D02*X138550Y285500D01*
X137800Y284750D02*Y283250D01*
X138550Y282500D01*
X140800Y285500D02*Y283250D01*
X141550Y282500D01*
X138550D02*X140050D01*
X140800Y283250D01*
X144100Y288500D02*Y283250D01*
X144850Y282500D01*
X143350Y286250D02*X144850D01*
X147100Y282500D02*X149350D01*
X146350Y283250D02*X147100Y282500D01*
X146350Y284750D02*Y283250D01*
Y284750D02*X147100Y285500D01*
X148600D01*
X149350Y284750D01*
X146350Y284000D02*X149350D01*
Y284750D02*Y284000D01*
X154150Y288500D02*Y282500D01*
X153400D02*X154150Y283250D01*
X151900Y282500D02*X153400D01*
X151150Y283250D02*X151900Y282500D01*
X151150Y284750D02*Y283250D01*
Y284750D02*X151900Y285500D01*
X153400D01*
X154150Y284750D01*
X157450Y285500D02*Y284750D01*
Y283250D02*Y282500D01*
X155950Y287750D02*Y287000D01*
Y287750D02*X156700Y288500D01*
X158200D01*
X158950Y287750D01*
Y287000D01*
X157450Y285500D02*X158950Y287000D01*
X130000Y279250D02*X160750D01*
X0Y303500D02*X3000D01*
X1500D02*Y297500D01*
X4800Y303500D02*Y297500D01*
Y299750D02*X5550Y300500D01*
X7050D01*
X7800Y299750D01*
Y297500D01*
X10350D02*X12600D01*
X9600Y298250D02*X10350Y297500D01*
X9600Y299750D02*Y298250D01*
Y299750D02*X10350Y300500D01*
X11850D01*
X12600Y299750D01*
X9600Y299000D02*X12600D01*
Y299750D02*Y299000D01*
X15150Y299750D02*Y297500D01*
Y299750D02*X15900Y300500D01*
X17400D01*
X14400D02*X15150Y299750D01*
X19950Y297500D02*X22200D01*
X19200Y298250D02*X19950Y297500D01*
X19200Y299750D02*Y298250D01*
Y299750D02*X19950Y300500D01*
X21450D01*
X22200Y299750D01*
X19200Y299000D02*X22200D01*
Y299750D02*Y299000D01*
X28950Y300500D02*X29700Y299750D01*
X27450Y300500D02*X28950D01*
X26700Y299750D02*X27450Y300500D01*
X26700Y299750D02*Y298250D01*
X27450Y297500D01*
X29700Y300500D02*Y298250D01*
X30450Y297500D01*
X27450D02*X28950D01*
X29700Y298250D01*
X33000Y299750D02*Y297500D01*
Y299750D02*X33750Y300500D01*
X35250D01*
X32250D02*X33000Y299750D01*
X37800Y297500D02*X40050D01*
X37050Y298250D02*X37800Y297500D01*
X37050Y299750D02*Y298250D01*
Y299750D02*X37800Y300500D01*
X39300D01*
X40050Y299750D01*
X37050Y299000D02*X40050D01*
Y299750D02*Y299000D01*
X44550Y303500D02*X47550D01*
X44550D02*Y300500D01*
X45300Y301250D01*
X46800D01*
X47550Y300500D01*
Y298250D01*
X46800Y297500D02*X47550Y298250D01*
X45300Y297500D02*X46800D01*
X44550Y298250D02*X45300Y297500D01*
X55050Y303500D02*Y297500D01*
X54300D02*X55050Y298250D01*
X52800Y297500D02*X54300D01*
X52050Y298250D02*X52800Y297500D01*
X52050Y299750D02*Y298250D01*
Y299750D02*X52800Y300500D01*
X54300D01*
X55050Y299750D01*
G54D87*X56850Y302000D02*Y301850D01*
G54D86*Y299750D02*Y297500D01*
X59100Y302750D02*Y297500D01*
Y302750D02*X59850Y303500D01*
X60600D01*
X58350Y300500D02*X59850D01*
X62850Y302750D02*Y297500D01*
Y302750D02*X63600Y303500D01*
X64350D01*
X62100Y300500D02*X63600D01*
X66600Y297500D02*X68850D01*
X65850Y298250D02*X66600Y297500D01*
X65850Y299750D02*Y298250D01*
Y299750D02*X66600Y300500D01*
X68100D01*
X68850Y299750D01*
X65850Y299000D02*X68850D01*
Y299750D02*Y299000D01*
X71400Y299750D02*Y297500D01*
Y299750D02*X72150Y300500D01*
X73650D01*
X70650D02*X71400Y299750D01*
X76200Y297500D02*X78450D01*
X75450Y298250D02*X76200Y297500D01*
X75450Y299750D02*Y298250D01*
Y299750D02*X76200Y300500D01*
X77700D01*
X78450Y299750D01*
X75450Y299000D02*X78450D01*
Y299750D02*Y299000D01*
X81000Y299750D02*Y297500D01*
Y299750D02*X81750Y300500D01*
X82500D01*
X83250Y299750D01*
Y297500D01*
X80250Y300500D02*X81000Y299750D01*
X85800Y303500D02*Y298250D01*
X86550Y297500D01*
X85050Y301250D02*X86550D01*
X93750Y303500D02*Y297500D01*
X93000D02*X93750Y298250D01*
X91500Y297500D02*X93000D01*
X90750Y298250D02*X91500Y297500D01*
X90750Y299750D02*Y298250D01*
Y299750D02*X91500Y300500D01*
X93000D01*
X93750Y299750D01*
X96300D02*Y297500D01*
Y299750D02*X97050Y300500D01*
X98550D01*
X95550D02*X96300Y299750D01*
G54D87*X100350Y302000D02*Y301850D01*
G54D86*Y299750D02*Y297500D01*
X101850Y303500D02*Y298250D01*
X102600Y297500D01*
X104100Y303500D02*Y298250D01*
X104850Y297500D01*
X109800D02*X112050D01*
X112800Y298250D01*
X112050Y299000D02*X112800Y298250D01*
X109800Y299000D02*X112050D01*
X109050Y299750D02*X109800Y299000D01*
X109050Y299750D02*X109800Y300500D01*
X112050D01*
X112800Y299750D01*
X109050Y298250D02*X109800Y297500D01*
G54D87*X114600Y302000D02*Y301850D01*
G54D86*Y299750D02*Y297500D01*
X116100Y300500D02*X119100D01*
X116100Y297500D02*X119100Y300500D01*
X116100Y297500D02*X119100D01*
X121650D02*X123900D01*
X120900Y298250D02*X121650Y297500D01*
X120900Y299750D02*Y298250D01*
Y299750D02*X121650Y300500D01*
X123150D01*
X123900Y299750D01*
X120900Y299000D02*X123900D01*
Y299750D02*Y299000D01*
X126450Y297500D02*X128700D01*
X129450Y298250D01*
X128700Y299000D02*X129450Y298250D01*
X126450Y299000D02*X128700D01*
X125700Y299750D02*X126450Y299000D01*
X125700Y299750D02*X126450Y300500D01*
X128700D01*
X129450Y299750D01*
X125700Y298250D02*X126450Y297500D01*
X133950Y300500D02*Y298250D01*
X134700Y297500D01*
X136200D01*
X136950Y298250D01*
Y300500D02*Y298250D01*
X139500Y297500D02*X141750D01*
X142500Y298250D01*
X141750Y299000D02*X142500Y298250D01*
X139500Y299000D02*X141750D01*
X138750Y299750D02*X139500Y299000D01*
X138750Y299750D02*X139500Y300500D01*
X141750D01*
X142500Y299750D01*
X138750Y298250D02*X139500Y297500D01*
X145050D02*X147300D01*
X144300Y298250D02*X145050Y297500D01*
X144300Y299750D02*Y298250D01*
Y299750D02*X145050Y300500D01*
X146550D01*
X147300Y299750D01*
X144300Y299000D02*X147300D01*
Y299750D02*Y299000D01*
X152100Y303500D02*Y297500D01*
X151350D02*X152100Y298250D01*
X149850Y297500D02*X151350D01*
X149100Y298250D02*X149850Y297500D01*
X149100Y299750D02*Y298250D01*
Y299750D02*X149850Y300500D01*
X151350D01*
X152100Y299750D01*
G54D87*X156600Y302000D02*Y301850D01*
G54D86*Y299750D02*Y297500D01*
X158850Y299750D02*Y297500D01*
Y299750D02*X159600Y300500D01*
X160350D01*
X161100Y299750D01*
Y297500D01*
X158100Y300500D02*X158850Y299750D01*
X166350Y303500D02*Y298250D01*
X167100Y297500D01*
X165600Y301250D02*X167100D01*
X168600Y303500D02*Y297500D01*
Y299750D02*X169350Y300500D01*
X170850D01*
X171600Y299750D01*
Y297500D01*
G54D87*X173400Y302000D02*Y301850D01*
G54D86*Y299750D02*Y297500D01*
X175650D02*X177900D01*
X178650Y298250D01*
X177900Y299000D02*X178650Y298250D01*
X175650Y299000D02*X177900D01*
X174900Y299750D02*X175650Y299000D01*
X174900Y299750D02*X175650Y300500D01*
X177900D01*
X178650Y299750D01*
X174900Y298250D02*X175650Y297500D01*
X183150Y303500D02*Y298250D01*
X183900Y297500D01*
X187650Y300500D02*X188400Y299750D01*
X186150Y300500D02*X187650D01*
X185400Y299750D02*X186150Y300500D01*
X185400Y299750D02*Y298250D01*
X186150Y297500D01*
X188400Y300500D02*Y298250D01*
X189150Y297500D01*
X186150D02*X187650D01*
X188400Y298250D01*
X190950Y300500D02*Y298250D01*
X191700Y297500D01*
X193950Y300500D02*Y296000D01*
X193200Y295250D02*X193950Y296000D01*
X191700Y295250D02*X193200D01*
X190950Y296000D02*X191700Y295250D01*
Y297500D02*X193200D01*
X193950Y298250D01*
X195750Y299750D02*Y298250D01*
Y299750D02*X196500Y300500D01*
X198000D01*
X198750Y299750D01*
Y298250D01*
X198000Y297500D02*X198750Y298250D01*
X196500Y297500D02*X198000D01*
X195750Y298250D02*X196500Y297500D01*
X200550Y300500D02*Y298250D01*
X201300Y297500D01*
X202800D01*
X203550Y298250D01*
Y300500D02*Y298250D01*
X206100Y303500D02*Y298250D01*
X206850Y297500D01*
X205350Y301250D02*X206850D01*
X208350Y296000D02*X209850Y297500D01*
X214350Y302750D02*X215100Y303500D01*
X217350D01*
X218100Y302750D01*
Y301250D01*
X214350Y297500D02*X218100Y301250D01*
X214350Y297500D02*X218100D01*
X219900Y303500D02*X222900D01*
X219900D02*Y300500D01*
X220650Y301250D01*
X222150D01*
X222900Y300500D01*
Y298250D01*
X222150Y297500D02*X222900Y298250D01*
X220650Y297500D02*X222150D01*
X219900Y298250D02*X220650Y297500D01*
X224700Y302750D02*X225450Y303500D01*
X226950D01*
X227700Y302750D01*
X226950Y297500D02*X227700Y298250D01*
X225450Y297500D02*X226950D01*
X224700Y298250D02*X225450Y297500D01*
Y300800D02*X226950D01*
X227700Y302750D02*Y301550D01*
Y300050D02*Y298250D01*
Y300050D02*X226950Y300800D01*
X227700Y301550D02*X226950Y300800D01*
X232200Y303500D02*Y297500D01*
Y299750D02*X232950Y300500D01*
X234450D01*
X235200Y299750D01*
Y297500D01*
X237000Y299750D02*Y298250D01*
Y299750D02*X237750Y300500D01*
X239250D01*
X240000Y299750D01*
Y298250D01*
X239250Y297500D02*X240000Y298250D01*
X237750Y297500D02*X239250D01*
X237000Y298250D02*X237750Y297500D01*
X241800Y303500D02*Y298250D01*
X242550Y297500D01*
X244800D02*X247050D01*
X244050Y298250D02*X244800Y297500D01*
X244050Y299750D02*Y298250D01*
Y299750D02*X244800Y300500D01*
X246300D01*
X247050Y299750D01*
X244050Y299000D02*X247050D01*
Y299750D02*Y299000D01*
X249600Y297500D02*X251850D01*
X252600Y298250D01*
X251850Y299000D02*X252600Y298250D01*
X249600Y299000D02*X251850D01*
X248850Y299750D02*X249600Y299000D01*
X248850Y299750D02*X249600Y300500D01*
X251850D01*
X252600Y299750D01*
X248850Y298250D02*X249600Y297500D01*
X257850Y303500D02*Y298250D01*
X258600Y297500D01*
X257100Y301250D02*X258600D01*
X260100Y299750D02*Y298250D01*
Y299750D02*X260850Y300500D01*
X262350D01*
X263100Y299750D01*
Y298250D01*
X262350Y297500D02*X263100Y298250D01*
X260850Y297500D02*X262350D01*
X260100Y298250D02*X260850Y297500D01*
X265650Y303500D02*Y298250D01*
X266400Y297500D01*
X264900Y301250D02*X266400D01*
X270150Y300500D02*X270900Y299750D01*
X268650Y300500D02*X270150D01*
X267900Y299750D02*X268650Y300500D01*
X267900Y299750D02*Y298250D01*
X268650Y297500D01*
X270900Y300500D02*Y298250D01*
X271650Y297500D01*
X268650D02*X270150D01*
X270900Y298250D01*
X273450Y303500D02*Y298250D01*
X274200Y297500D01*
G54D88*X0Y20000D02*Y180000D01*
X20000Y200000D02*X330000D01*
X20000Y0D02*X330000D01*
X302000Y77000D02*X349000D01*
X350000Y78000D01*
Y124000D01*
X302000D01*
Y160000D01*
X332000Y38000D02*X303000D01*
X302000Y39000D01*
Y76000D01*
X303000Y77000D01*
X329000Y160000D02*X302000D01*
X0Y180000D02*G75*G02X20000Y200000I20000J0D01*G01*
X330000D02*G75*G02X350000Y180000I0J-20000D01*G01*
Y20000D02*G75*G02X330000Y0I-20000J0D01*G01*
X20000D02*G75*G02X0Y20000I0J20000D01*G01*
X350000D02*G75*G03X332000Y38000I-18000J0D01*G01*
X350000Y180000D02*G75*G02X330000Y160000I-20000J0D01*G01*
G54D86*X88675Y-9500D02*X91675D01*
X92425Y-8750D01*
Y-6950D02*Y-8750D01*
X91675Y-6200D02*X92425Y-6950D01*
X89425Y-6200D02*X91675D01*
X89425Y-3500D02*Y-9500D01*
X88675Y-3500D02*X91675D01*
X92425Y-4250D01*
Y-5450D01*
X91675Y-6200D02*X92425Y-5450D01*
X94225Y-7250D02*Y-8750D01*
Y-7250D02*X94975Y-6500D01*
X96475D01*
X97225Y-7250D01*
Y-8750D01*
X96475Y-9500D02*X97225Y-8750D01*
X94975Y-9500D02*X96475D01*
X94225Y-8750D02*X94975Y-9500D01*
X101275Y-6500D02*X102025Y-7250D01*
X99775Y-6500D02*X101275D01*
X99025Y-7250D02*X99775Y-6500D01*
X99025Y-7250D02*Y-8750D01*
X99775Y-9500D01*
X102025Y-6500D02*Y-8750D01*
X102775Y-9500D01*
X99775D02*X101275D01*
X102025Y-8750D01*
X105325Y-7250D02*Y-9500D01*
Y-7250D02*X106075Y-6500D01*
X107575D01*
X104575D02*X105325Y-7250D01*
X112375Y-3500D02*Y-9500D01*
X111625D02*X112375Y-8750D01*
X110125Y-9500D02*X111625D01*
X109375Y-8750D02*X110125Y-9500D01*
X109375Y-7250D02*Y-8750D01*
Y-7250D02*X110125Y-6500D01*
X111625D01*
X112375Y-7250D01*
X116875D02*Y-8750D01*
Y-7250D02*X117625Y-6500D01*
X119125D01*
X119875Y-7250D01*
Y-8750D01*
X119125Y-9500D02*X119875Y-8750D01*
X117625Y-9500D02*X119125D01*
X116875Y-8750D02*X117625Y-9500D01*
X121675Y-6500D02*Y-8750D01*
X122425Y-9500D01*
X123925D01*
X124675Y-8750D01*
Y-6500D02*Y-8750D01*
X127225Y-3500D02*Y-8750D01*
X127975Y-9500D01*
X126475Y-5750D02*X127975D01*
X129475Y-3500D02*Y-8750D01*
X130225Y-9500D01*
G54D87*X131725Y-5000D02*Y-5150D01*
G54D86*Y-7250D02*Y-9500D01*
X133975Y-7250D02*Y-9500D01*
Y-7250D02*X134725Y-6500D01*
X135475D01*
X136225Y-7250D01*
Y-9500D01*
X133225Y-6500D02*X133975Y-7250D01*
X138775Y-9500D02*X141025D01*
X138025Y-8750D02*X138775Y-9500D01*
X138025Y-7250D02*Y-8750D01*
Y-7250D02*X138775Y-6500D01*
X140275D01*
X141025Y-7250D01*
X138025Y-8000D02*X141025D01*
Y-7250D02*Y-8000D01*
G54D87*X145525Y-5000D02*Y-5150D01*
G54D86*Y-7250D02*Y-9500D01*
X147775D02*X150025D01*
X150775Y-8750D01*
X150025Y-8000D02*X150775Y-8750D01*
X147775Y-8000D02*X150025D01*
X147025Y-7250D02*X147775Y-8000D01*
X147025Y-7250D02*X147775Y-6500D01*
X150025D01*
X150775Y-7250D01*
X147025Y-8750D02*X147775Y-9500D01*
X156025Y-3500D02*Y-8750D01*
X156775Y-9500D01*
X155275Y-5750D02*X156775D01*
X158275Y-3500D02*Y-9500D01*
Y-7250D02*X159025Y-6500D01*
X160525D01*
X161275Y-7250D01*
Y-9500D01*
X163825D02*X166075D01*
X163075Y-8750D02*X163825Y-9500D01*
X163075Y-7250D02*Y-8750D01*
Y-7250D02*X163825Y-6500D01*
X165325D01*
X166075Y-7250D01*
X163075Y-8000D02*X166075D01*
Y-7250D02*Y-8000D01*
X171325Y-6500D02*X173575D01*
X170575Y-7250D02*X171325Y-6500D01*
X170575Y-7250D02*Y-8750D01*
X171325Y-9500D01*
X173575D01*
X176125D02*X178375D01*
X175375Y-8750D02*X176125Y-9500D01*
X175375Y-7250D02*Y-8750D01*
Y-7250D02*X176125Y-6500D01*
X177625D01*
X178375Y-7250D01*
X175375Y-8000D02*X178375D01*
Y-7250D02*Y-8000D01*
X180925Y-7250D02*Y-9500D01*
Y-7250D02*X181675Y-6500D01*
X182425D01*
X183175Y-7250D01*
Y-9500D01*
X180175Y-6500D02*X180925Y-7250D01*
X185725Y-3500D02*Y-8750D01*
X186475Y-9500D01*
X184975Y-5750D02*X186475D01*
X188725Y-9500D02*X190975D01*
X187975Y-8750D02*X188725Y-9500D01*
X187975Y-7250D02*Y-8750D01*
Y-7250D02*X188725Y-6500D01*
X190225D01*
X190975Y-7250D01*
X187975Y-8000D02*X190975D01*
Y-7250D02*Y-8000D01*
X193525Y-7250D02*Y-9500D01*
Y-7250D02*X194275Y-6500D01*
X195775D01*
X192775D02*X193525Y-7250D01*
X197575Y-3500D02*Y-8750D01*
X198325Y-9500D01*
G54D87*X199825Y-5000D02*Y-5150D01*
G54D86*Y-7250D02*Y-9500D01*
X202075Y-7250D02*Y-9500D01*
Y-7250D02*X202825Y-6500D01*
X203575D01*
X204325Y-7250D01*
Y-9500D01*
X201325Y-6500D02*X202075Y-7250D01*
X206875Y-9500D02*X209125D01*
X206125Y-8750D02*X206875Y-9500D01*
X206125Y-7250D02*Y-8750D01*
Y-7250D02*X206875Y-6500D01*
X208375D01*
X209125Y-7250D01*
X206125Y-8000D02*X209125D01*
Y-7250D02*Y-8000D01*
X213625Y-7250D02*Y-8750D01*
Y-7250D02*X214375Y-6500D01*
X215875D01*
X216625Y-7250D01*
Y-8750D01*
X215875Y-9500D02*X216625Y-8750D01*
X214375Y-9500D02*X215875D01*
X213625Y-8750D02*X214375Y-9500D01*
X219175Y-4250D02*Y-9500D01*
Y-4250D02*X219925Y-3500D01*
X220675D01*
X218425Y-6500D02*X219925D01*
X225625Y-3500D02*Y-8750D01*
X226375Y-9500D01*
X224875Y-5750D02*X226375D01*
X227875Y-3500D02*Y-9500D01*
Y-7250D02*X228625Y-6500D01*
X230125D01*
X230875Y-7250D01*
Y-9500D01*
G54D87*X232675Y-5000D02*Y-5150D01*
G54D86*Y-7250D02*Y-9500D01*
X234925D02*X237175D01*
X237925Y-8750D01*
X237175Y-8000D02*X237925Y-8750D01*
X234925Y-8000D02*X237175D01*
X234175Y-7250D02*X234925Y-8000D01*
X234175Y-7250D02*X234925Y-6500D01*
X237175D01*
X237925Y-7250D01*
X234175Y-8750D02*X234925Y-9500D01*
X243175Y-7250D02*Y-11750D01*
X242425Y-6500D02*X243175Y-7250D01*
X243925Y-6500D01*
X245425D01*
X246175Y-7250D01*
Y-8750D01*
X245425Y-9500D02*X246175Y-8750D01*
X243925Y-9500D02*X245425D01*
X243175Y-8750D02*X243925Y-9500D01*
X250225Y-6500D02*X250975Y-7250D01*
X248725Y-6500D02*X250225D01*
X247975Y-7250D02*X248725Y-6500D01*
X247975Y-7250D02*Y-8750D01*
X248725Y-9500D01*
X250975Y-6500D02*Y-8750D01*
X251725Y-9500D01*
X248725D02*X250225D01*
X250975Y-8750D01*
X254275Y-3500D02*Y-8750D01*
X255025Y-9500D01*
X253525Y-5750D02*X255025D01*
X256525Y-3500D02*Y-9500D01*
Y-7250D02*X257275Y-6500D01*
X258775D01*
X259525Y-7250D01*
Y-9500D01*
X200750Y228500D02*Y222500D01*
X202700Y228500D02*X203750Y227450D01*
Y223550D01*
X202700Y222500D02*X203750Y223550D01*
X200000Y222500D02*X202700D01*
X200000Y228500D02*X202700D01*
X207800Y225500D02*X208550Y224750D01*
X206300Y225500D02*X207800D01*
X205550Y224750D02*X206300Y225500D01*
X205550Y224750D02*Y223250D01*
X206300Y222500D01*
X208550Y225500D02*Y223250D01*
X209300Y222500D01*
X206300D02*X207800D01*
X208550Y223250D01*
X211850Y228500D02*Y223250D01*
X212600Y222500D01*
X211100Y226250D02*X212600D01*
X214850Y222500D02*X217100D01*
X214100Y223250D02*X214850Y222500D01*
X214100Y224750D02*Y223250D01*
Y224750D02*X214850Y225500D01*
X216350D01*
X217100Y224750D01*
X214100Y224000D02*X217100D01*
Y224750D02*Y224000D01*
X218900Y226250D02*X219650D01*
X218900Y224750D02*X219650D01*
X224150Y228500D02*Y222500D01*
Y228500D02*X226400Y225500D01*
X228650Y228500D01*
Y222500D01*
X230450Y224750D02*Y223250D01*
Y224750D02*X231200Y225500D01*
X232700D01*
X233450Y224750D01*
Y223250D01*
X232700Y222500D02*X233450Y223250D01*
X231200Y222500D02*X232700D01*
X230450Y223250D02*X231200Y222500D01*
X236000Y224750D02*Y222500D01*
Y224750D02*X236750Y225500D01*
X237500D01*
X238250Y224750D01*
Y222500D01*
X235250Y225500D02*X236000Y224750D01*
X242750Y228500D02*Y222500D01*
Y228500D02*X245000Y225500D01*
X247250Y228500D01*
Y222500D01*
X251300Y225500D02*X252050Y224750D01*
X249800Y225500D02*X251300D01*
X249050Y224750D02*X249800Y225500D01*
X249050Y224750D02*Y223250D01*
X249800Y222500D01*
X252050Y225500D02*Y223250D01*
X252800Y222500D01*
X249800D02*X251300D01*
X252050Y223250D01*
X254600Y225500D02*Y223250D01*
X255350Y222500D01*
X257600Y225500D02*Y221000D01*
X256850Y220250D02*X257600Y221000D01*
X255350Y220250D02*X256850D01*
X254600Y221000D02*X255350Y220250D01*
Y222500D02*X256850D01*
X257600Y223250D01*
X264800Y224750D02*X267800Y228500D01*
X264800Y224750D02*X268550D01*
X267800Y228500D02*Y222500D01*
X273050Y227300D02*X274250Y228500D01*
Y222500D01*
X273050D02*X275300D01*
X277100Y227750D02*X277850Y228500D01*
X279350D01*
X280100Y227750D01*
X279350Y222500D02*X280100Y223250D01*
X277850Y222500D02*X279350D01*
X277100Y223250D02*X277850Y222500D01*
Y225800D02*X279350D01*
X280100Y227750D02*Y226550D01*
Y225050D02*Y223250D01*
Y225050D02*X279350Y225800D01*
X280100Y226550D02*X279350Y225800D01*
X281900Y226250D02*X282650D01*
X281900Y224750D02*X282650D01*
X284450Y227750D02*X285200Y228500D01*
X287450D01*
X288200Y227750D01*
Y226250D01*
X284450Y222500D02*X288200Y226250D01*
X284450Y222500D02*X288200D01*
X292250Y228500D02*X293000Y227750D01*
X290750Y228500D02*X292250D01*
X290000Y227750D02*X290750Y228500D01*
X290000Y227750D02*Y223250D01*
X290750Y222500D01*
X292250Y225800D02*X293000Y225050D01*
X290000Y225800D02*X292250D01*
X290750Y222500D02*X292250D01*
X293000Y223250D01*
Y225050D02*Y223250D01*
X294800Y226250D02*X295550D01*
X294800Y224750D02*X295550D01*
X297350Y227300D02*X298550Y228500D01*
Y222500D01*
X297350D02*X299600D01*
X301400Y223250D02*X302150Y222500D01*
X301400Y224450D02*Y223250D01*
Y224450D02*X302450Y225500D01*
X303350D01*
X304400Y224450D01*
Y223250D01*
X303650Y222500D02*X304400Y223250D01*
X302150Y222500D02*X303650D01*
X301400Y226550D02*X302450Y225500D01*
X301400Y227750D02*Y226550D01*
Y227750D02*X302150Y228500D01*
X303650D01*
X304400Y227750D01*
Y226550D01*
X303350Y225500D02*X304400Y226550D01*
X308900Y227750D02*X309650Y228500D01*
X311900D01*
X312650Y227750D01*
Y226250D01*
X308900Y222500D02*X312650Y226250D01*
X308900Y222500D02*X312650D01*
X314450Y223250D02*X315200Y222500D01*
X314450Y227750D02*Y223250D01*
Y227750D02*X315200Y228500D01*
X316700D01*
X317450Y227750D01*
Y223250D01*
X316700Y222500D02*X317450Y223250D01*
X315200Y222500D02*X316700D01*
X314450Y224000D02*X317450Y227000D01*
X319250Y227750D02*X320000Y228500D01*
X322250D01*
X323000Y227750D01*
Y226250D01*
X319250Y222500D02*X323000Y226250D01*
X319250Y222500D02*X323000D01*
X324800Y223250D02*X325550Y222500D01*
X324800Y227750D02*Y223250D01*
Y227750D02*X325550Y228500D01*
X327050D01*
X327800Y227750D01*
Y223250D01*
X327050Y222500D02*X327800Y223250D01*
X325550Y222500D02*X327050D01*
X324800Y224000D02*X327800Y227000D01*
X332300Y228500D02*Y223250D01*
X333050Y222500D01*
X334550D01*
X335300Y223250D01*
Y228500D02*Y223250D01*
X337100Y228500D02*X340100D01*
X338600D02*Y222500D01*
X342950D02*X344900D01*
X341900Y223550D02*X342950Y222500D01*
X341900Y227450D02*Y223550D01*
Y227450D02*X342950Y228500D01*
X344900D01*
X200000Y242000D02*Y237500D01*
Y242000D02*X201050Y243500D01*
X202700D01*
X203750Y242000D01*
Y237500D01*
X200000Y240500D02*X203750D01*
X205550D02*Y238250D01*
X206300Y237500D01*
X207800D01*
X208550Y238250D01*
Y240500D02*Y238250D01*
X211100Y243500D02*Y238250D01*
X211850Y237500D01*
X210350Y241250D02*X211850D01*
X213350Y243500D02*Y237500D01*
Y239750D02*X214100Y240500D01*
X215600D01*
X216350Y239750D01*
Y237500D01*
X218150Y239750D02*Y238250D01*
Y239750D02*X218900Y240500D01*
X220400D01*
X221150Y239750D01*
Y238250D01*
X220400Y237500D02*X221150Y238250D01*
X218900Y237500D02*X220400D01*
X218150Y238250D02*X218900Y237500D01*
X223700Y239750D02*Y237500D01*
Y239750D02*X224450Y240500D01*
X225950D01*
X222950D02*X223700Y239750D01*
X227750Y241250D02*X228500D01*
X227750Y239750D02*X228500D01*
X233000Y243500D02*Y238250D01*
X233750Y237500D01*
X235250D01*
X236000Y238250D01*
Y243500D02*Y238250D01*
X238550Y237500D02*X240800D01*
X241550Y238250D01*
X240800Y239000D02*X241550Y238250D01*
X238550Y239000D02*X240800D01*
X237800Y239750D02*X238550Y239000D01*
X237800Y239750D02*X238550Y240500D01*
X240800D01*
X241550Y239750D01*
X237800Y238250D02*X238550Y237500D01*
X244100D02*X246350D01*
X243350Y238250D02*X244100Y237500D01*
X243350Y239750D02*Y238250D01*
Y239750D02*X244100Y240500D01*
X245600D01*
X246350Y239750D01*
X243350Y239000D02*X246350D01*
Y239750D02*Y239000D01*
X248900Y239750D02*Y237500D01*
Y239750D02*X249650Y240500D01*
X251150D01*
X248150D02*X248900Y239750D01*
X255650Y238250D02*X256400Y237500D01*
X255650Y242750D02*Y241250D01*
Y242750D02*X256400Y243500D01*
X255650Y239750D02*X257900Y242000D01*
X256400Y237500D02*X257150D01*
X258650Y239000D01*
X255650Y241250D02*X259400Y237500D01*
X256400Y243500D02*X257150D01*
X257900Y242750D01*
Y242000D01*
X255650Y239750D02*Y238250D01*
X200000Y258500D02*X203000D01*
X201500D02*Y252500D01*
G54D87*X204800Y257000D02*Y256850D01*
G54D86*Y254750D02*Y252500D01*
X207050Y258500D02*Y253250D01*
X207800Y252500D01*
X206300Y256250D02*X207800D01*
X209300Y258500D02*Y253250D01*
X210050Y252500D01*
X212300D02*X214550D01*
X211550Y253250D02*X212300Y252500D01*
X211550Y254750D02*Y253250D01*
Y254750D02*X212300Y255500D01*
X213800D01*
X214550Y254750D01*
X211550Y254000D02*X214550D01*
Y254750D02*Y254000D01*
X216350Y256250D02*X217100D01*
X216350Y254750D02*X217100D01*
X221600Y253250D02*X222350Y252500D01*
X221600Y257750D02*X222350Y258500D01*
X221600Y257750D02*Y253250D01*
X224150Y255500D02*Y253250D01*
X224900Y252500D01*
X226400D01*
X227150Y253250D01*
Y255500D02*Y253250D01*
X229700Y254750D02*Y252500D01*
Y254750D02*X230450Y255500D01*
X231200D01*
X231950Y254750D01*
Y252500D01*
X228950Y255500D02*X229700Y254750D01*
X233750Y258500D02*Y252500D01*
Y254750D02*X236000Y252500D01*
X233750Y254750D02*X235250Y256250D01*
X238550Y254750D02*Y252500D01*
Y254750D02*X239300Y255500D01*
X240050D01*
X240800Y254750D01*
Y252500D01*
X237800Y255500D02*X238550Y254750D01*
X242600D02*Y253250D01*
Y254750D02*X243350Y255500D01*
X244850D01*
X245600Y254750D01*
Y253250D01*
X244850Y252500D02*X245600Y253250D01*
X243350Y252500D02*X244850D01*
X242600Y253250D02*X243350Y252500D01*
X247400Y255500D02*Y253250D01*
X248150Y252500D01*
X248900D01*
X249650Y253250D01*
Y255500D02*Y253250D01*
X250400Y252500D01*
X251150D01*
X251900Y253250D01*
Y255500D02*Y253250D01*
X254450Y254750D02*Y252500D01*
Y254750D02*X255200Y255500D01*
X255950D01*
X256700Y254750D01*
Y252500D01*
X253700Y255500D02*X254450Y254750D01*
X258500Y258500D02*X259250Y257750D01*
Y253250D01*
X258500Y252500D02*X259250Y253250D01*
X263750Y255500D02*X266750D01*
X271250Y258500D02*Y252500D01*
Y258500D02*X274250D01*
X271250Y255800D02*X273500D01*
X278300Y255500D02*X279050Y254750D01*
X276800Y255500D02*X278300D01*
X276050Y254750D02*X276800Y255500D01*
X276050Y254750D02*Y253250D01*
X276800Y252500D01*
X279050Y255500D02*Y253250D01*
X279800Y252500D01*
X276800D02*X278300D01*
X279050Y253250D01*
X281600Y258500D02*Y252500D01*
Y253250D02*X282350Y252500D01*
X283850D01*
X284600Y253250D01*
Y254750D02*Y253250D01*
X283850Y255500D02*X284600Y254750D01*
X282350Y255500D02*X283850D01*
X281600Y254750D02*X282350Y255500D01*
X287150Y254750D02*Y252500D01*
Y254750D02*X287900Y255500D01*
X289400D01*
X286400D02*X287150Y254750D01*
G54D87*X291200Y257000D02*Y256850D01*
G54D86*Y254750D02*Y252500D01*
X293450Y255500D02*X295700D01*
X292700Y254750D02*X293450Y255500D01*
X292700Y254750D02*Y253250D01*
X293450Y252500D01*
X295700D01*
X299750Y255500D02*X300500Y254750D01*
X298250Y255500D02*X299750D01*
X297500Y254750D02*X298250Y255500D01*
X297500Y254750D02*Y253250D01*
X298250Y252500D01*
X300500Y255500D02*Y253250D01*
X301250Y252500D01*
X298250D02*X299750D01*
X300500Y253250D01*
X303800Y258500D02*Y253250D01*
X304550Y252500D01*
X303050Y256250D02*X304550D01*
G54D87*X306050Y257000D02*Y256850D01*
G54D86*Y254750D02*Y252500D01*
X307550Y254750D02*Y253250D01*
Y254750D02*X308300Y255500D01*
X309800D01*
X310550Y254750D01*
Y253250D01*
X309800Y252500D02*X310550Y253250D01*
X308300Y252500D02*X309800D01*
X307550Y253250D02*X308300Y252500D01*
X313100Y254750D02*Y252500D01*
Y254750D02*X313850Y255500D01*
X314600D01*
X315350Y254750D01*
Y252500D01*
X312350Y255500D02*X313100Y254750D01*
X320600Y258500D02*Y252500D01*
X322550Y258500D02*X323600Y257450D01*
Y253550D01*
X322550Y252500D02*X323600Y253550D01*
X319850Y252500D02*X322550D01*
X319850Y258500D02*X322550D01*
X326150Y254750D02*Y252500D01*
Y254750D02*X326900Y255500D01*
X328400D01*
X325400D02*X326150Y254750D01*
X332450Y255500D02*X333200Y254750D01*
X330950Y255500D02*X332450D01*
X330200Y254750D02*X330950Y255500D01*
X330200Y254750D02*Y253250D01*
X330950Y252500D01*
X333200Y255500D02*Y253250D01*
X333950Y252500D01*
X330950D02*X332450D01*
X333200Y253250D01*
X335750Y255500D02*Y253250D01*
X336500Y252500D01*
X337250D01*
X338000Y253250D01*
Y255500D02*Y253250D01*
X338750Y252500D01*
X339500D01*
X340250Y253250D01*
Y255500D02*Y253250D01*
G54D87*X342050Y257000D02*Y256850D01*
G54D86*Y254750D02*Y252500D01*
X344300Y254750D02*Y252500D01*
Y254750D02*X345050Y255500D01*
X345800D01*
X346550Y254750D01*
Y252500D01*
X343550Y255500D02*X344300Y254750D01*
X350600Y255500D02*X351350Y254750D01*
X349100Y255500D02*X350600D01*
X348350Y254750D02*X349100Y255500D01*
X348350Y254750D02*Y253250D01*
X349100Y252500D01*
X350600D01*
X351350Y253250D01*
X348350Y251000D02*X349100Y250250D01*
X350600D01*
X351350Y251000D01*
Y255500D02*Y251000D01*
M02*
