M48
INCH
T73C0.020
T72C0.035
T71C0.028
T70C0.020
T69C0.154
%
T70
X001045Y018551
X001045Y017449
X001045Y002551
X001045Y001449
X002000Y019102
X002000Y016898
X002000Y003102
X002000Y000898
X002955Y018551
X002955Y017449
X002955Y002551
X002955Y001449
X032045Y018651
X032045Y017549
X032045Y002451
X032045Y001349
X033000Y019202
X033000Y016998
X033000Y003002
X033000Y000798
X033955Y018651
X033955Y017549
X033955Y002451
X033955Y001349
T73
X012900Y015500
X015100Y014000
X016000Y018400
X016400Y013700
X018400Y019000
X019600Y009000
T71
X003000Y016250
X003000Y015250
X003000Y014250
X003000Y013250
X003000Y012250
X003000Y011250
X003000Y010250
X003000Y009250
X003000Y008250
X003000Y007250
X003000Y006250
X003000Y005250
X003000Y004250
X004000Y019250
X004000Y018250
X004000Y017250
X004000Y016250
X004000Y015250
X004000Y014250
X004000Y013250
X004000Y012250
X004000Y011250
X004000Y010250
X004000Y009250
X004000Y008250
X004000Y007250
X004000Y006250
X004000Y005250
X004000Y004250
X004000Y003250
X005000Y019250
X005000Y018250
X005000Y017250
X005000Y016250
X005000Y015250
X005000Y014250
X005000Y013250
X005000Y012250
X005000Y011250
X005000Y010250
X005000Y009250
X005000Y008250
X005000Y007250
X005000Y006250
X005000Y005250
X005000Y004250
X005000Y003250
X006000Y019250
X006000Y018250
X006000Y017250
X006000Y016250
X006000Y015250
X006000Y014250
X006000Y013250
X006000Y012250
X006000Y011250
X006000Y010250
X006000Y009250
X006000Y008250
X006000Y007250
X006000Y006250
X006000Y005250
X006000Y004250
X006000Y003250
X007000Y019250
X007000Y018250
X007000Y017250
X007000Y016250
X007000Y015250
X007000Y014250
X007000Y013250
X007000Y012250
X007000Y011250
X007000Y010250
X007000Y009250
X007000Y008250
X007000Y007250
X007000Y006250
X007000Y005250
X007000Y004250
X007000Y003250
X008000Y019250
X008000Y018250
X008000Y017250
X008000Y016250
X008000Y015250
X008000Y014250
X008000Y013250
X008000Y012250
X008000Y011250
X008000Y010250
X008000Y009250
X008000Y008250
X008000Y007250
X008000Y006250
X008000Y005250
X008000Y004250
X008000Y003250
X009000Y019250
X009000Y018250
X009000Y017250
X009000Y016250
X009000Y015250
X009000Y014250
X009000Y013250
X009000Y012250
X009000Y011250
X009000Y010250
X009000Y009250
X009000Y008250
X009000Y007250
X009000Y006250
X009000Y005250
X009000Y004250
X009000Y003250
X010000Y019250
X010000Y018250
X010000Y017250
X010000Y016250
X010000Y015250
X010000Y014250
X010000Y013250
X010000Y012250
X010000Y011250
X010000Y010250
X010000Y009250
X010000Y008250
X010000Y007250
X010000Y006250
X010000Y005250
X010000Y004250
X010000Y003250
X010900Y011200
X011000Y002050
X011000Y000850
X011800Y014100
X011800Y013100
X011800Y012100
X011800Y011100
X011800Y010100
X011800Y009100
X012250Y004000
X012250Y001000
X012500Y018300
X012800Y014100
X012800Y013100
X012800Y012100
X012800Y011100
X012800Y010100
X012800Y009100
X013250Y004000
X013250Y001000
X013500Y018300
X014250Y004000
X014250Y001000
X014500Y018300
X015100Y007400
X015100Y006400
X015200Y016800
X015200Y015800
X015250Y004000
X015250Y001000
X015500Y018300
X016100Y007400
X016100Y006400
X016200Y016800
X016200Y015800
X016250Y004000
X016250Y001000
X017100Y007400
X017100Y006400
X017200Y016800
X017200Y015800
X017250Y004000
X017250Y001000
X018100Y007400
X018100Y006400
X018200Y016800
X018200Y015800
X018250Y004000
X018250Y001000
X019100Y007400
X019100Y006400
X019200Y016800
X019200Y015800
X019600Y018500
X020100Y007400
X020100Y006400
X020200Y016800
X020200Y015800
X020600Y018500
X021600Y018500
X021600Y015500
X022600Y018500
X022600Y017500
X022600Y016500
X022600Y015500
X022600Y014000
X022600Y013000
X022600Y012000
X022600Y011000
X022600Y010000
X022600Y009000
X023600Y014000
X023600Y013000
X023600Y012000
X023600Y011000
X023600Y010000
X023600Y009000
X030500Y012000
X030500Y011000
X030500Y010000
X030500Y009000
T72
X016400Y012900
X016400Y010300
X017500Y012900
X017500Y010300
X018700Y012900
X018700Y010300
T69
X002000Y018000
X002000Y002000
X033000Y018100
X033000Y001900
M30
