G04 start of page 10 for group -4079 idx -4079 *
G04 Title: (unknown), topsilk *
G04 Creator: pcb 4.2.0 *
G04 CreationDate: Mon May  4 13:26:18 2020 UTC *
G04 For: xpi *
G04 Format: Gerber/RS-274X *
G04 PCB-Dimensions (mil): 3500.00 2000.00 *
G04 PCB-Coordinate-Origin: lower left *
%MOIN*%
%FSLAX25Y25*%
%LNTOPSILK*%
%ADD82C,0.0080*%
%ADD81C,0.0100*%
%ADD80C,0.0060*%
G54D80*X210320Y4360D02*X210760Y3920D01*
X209440Y4360D02*X210320D01*
X209000Y3920D02*X209440Y4360D01*
X209000Y3920D02*Y3040D01*
X209440Y2600D01*
X210760Y4360D02*Y3040D01*
X211200Y2600D01*
X209440D02*X210320D01*
X210760Y3040D01*
X212696Y2600D02*X214016D01*
X214456Y3040D01*
X214016Y3480D02*X214456Y3040D01*
X212696Y3480D02*X214016D01*
X212256Y3920D02*X212696Y3480D01*
X212256Y3920D02*X212696Y4360D01*
X214016D01*
X214456Y3920D01*
X212256Y3040D02*X212696Y2600D01*
X215512Y6120D02*Y2600D01*
Y3920D02*X215952Y4360D01*
X216832D01*
X217272Y3920D01*
Y2600D01*
X218328D02*X220088D01*
X221144Y6120D02*Y2600D01*
Y3040D02*X221584Y2600D01*
X222464D01*
X222904Y3040D01*
Y3920D02*Y3040D01*
X222464Y4360D02*X222904Y3920D01*
X221584Y4360D02*X222464D01*
X221144Y3920D02*X221584Y4360D01*
X223960D02*Y3040D01*
X224400Y2600D01*
X225280D01*
X225720Y3040D01*
Y4360D02*Y3040D01*
X226776Y5240D02*Y5152D01*
Y3920D02*Y2600D01*
X227656Y6120D02*Y3040D01*
X228096Y2600D01*
X230736Y6120D02*Y2600D01*
X230296D02*X230736Y3040D01*
X229416Y2600D02*X230296D01*
X228976Y3040D02*X229416Y2600D01*
X228976Y3920D02*Y3040D01*
Y3920D02*X229416Y4360D01*
X230296D01*
X230736Y3920D01*
X231792Y6120D02*Y3480D01*
X232672Y2600D01*
X235312D01*
X236192Y6120D02*Y3920D01*
Y6120D02*X235312Y7000D01*
X232672D02*X235312D01*
X232672D02*X231792Y6120D01*
X233112Y5240D02*Y4360D01*
X233552Y3920D01*
X234432D01*
X234872Y4360D01*
X235312Y3920D01*
X234872Y5680D02*Y4360D01*
Y5240D02*X234432Y5680D01*
X233552D02*X234432D01*
X233552D02*X233112Y5240D01*
X235312Y3920D02*X236192D01*
X238568Y4360D02*X239008Y3920D01*
X237688Y4360D02*X238568D01*
X237248Y3920D02*X237688Y4360D01*
X237248Y3920D02*Y3040D01*
X237688Y2600D01*
X239008Y4360D02*Y3040D01*
X239448Y2600D01*
X237688D02*X238568D01*
X239008Y3040D01*
X240944Y2600D02*X242264D01*
X240504Y3040D02*X240944Y2600D01*
X240504Y3920D02*Y3040D01*
Y3920D02*X240944Y4360D01*
X241824D01*
X242264Y3920D01*
X240504Y3480D02*X242264D01*
Y3920D02*Y3480D01*
X243760Y3920D02*Y2600D01*
Y3920D02*X244200Y4360D01*
X245080D01*
X243320D02*X243760Y3920D01*
X246136Y5240D02*Y5152D01*
Y3920D02*Y2600D01*
X248336Y4360D02*X248776Y3920D01*
X247456Y4360D02*X248336D01*
X247016Y3920D02*X247456Y4360D01*
X247016Y3920D02*Y3040D01*
X247456Y2600D01*
X248776Y4360D02*Y3040D01*
X249216Y2600D01*
X247456D02*X248336D01*
X248776Y3040D01*
X250272Y2600D02*X250712D01*
X252208Y3920D02*Y2600D01*
Y3920D02*X252648Y4360D01*
X253088D01*
X253528Y3920D01*
Y2600D01*
X251768Y4360D02*X252208Y3920D01*
X255024Y2600D02*X256344D01*
X254584Y3040D02*X255024Y2600D01*
X254584Y3920D02*Y3040D01*
Y3920D02*X255024Y4360D01*
X255904D01*
X256344Y3920D01*
X254584Y3480D02*X256344D01*
Y3920D02*Y3480D01*
X257840Y6120D02*Y3040D01*
X258280Y2600D01*
X257400Y4800D02*X258280D01*
X260744Y5680D02*X261184Y6120D01*
X262504D01*
X262944Y5680D01*
Y4800D01*
X260744Y2600D02*X262944Y4800D01*
X260744Y2600D02*X262944D01*
X264000Y3040D02*X264440Y2600D01*
X264000Y5680D02*Y3040D01*
Y5680D02*X264440Y6120D01*
X265320D01*
X265760Y5680D01*
Y3040D01*
X265320Y2600D02*X265760Y3040D01*
X264440Y2600D02*X265320D01*
X264000Y3480D02*X265760Y5240D01*
X266816Y5680D02*X267256Y6120D01*
X268576D01*
X269016Y5680D01*
Y4800D01*
X266816Y2600D02*X269016Y4800D01*
X266816Y2600D02*X269016D01*
X270072Y4360D02*X271832D01*
X272888Y3040D02*X273328Y2600D01*
X272888Y3744D02*Y3040D01*
Y3744D02*X273504Y4360D01*
X274032D01*
X274648Y3744D01*
Y3040D01*
X274208Y2600D02*X274648Y3040D01*
X273328Y2600D02*X274208D01*
X272888Y4976D02*X273504Y4360D01*
X272888Y5680D02*Y4976D01*
Y5680D02*X273328Y6120D01*
X274208D01*
X274648Y5680D01*
Y4976D01*
X274032Y4360D02*X274648Y4976D01*
X275704Y3920D02*X277464Y6120D01*
X275704Y3920D02*X277904D01*
X277464Y6120D02*Y2600D01*
X278960Y5416D02*X279664Y6120D01*
Y2600D01*
X278960D02*X280280D01*
X281336Y4360D02*X283096D01*
X284152Y3040D02*X284592Y2600D01*
X284152Y3744D02*Y3040D01*
Y3744D02*X284768Y4360D01*
X285296D01*
X285912Y3744D01*
Y3040D01*
X285472Y2600D02*X285912Y3040D01*
X284592Y2600D02*X285472D01*
X284152Y4976D02*X284768Y4360D01*
X284152Y5680D02*Y4976D01*
Y5680D02*X284592Y6120D01*
X285472D01*
X285912Y5680D01*
Y4976D01*
X285296Y4360D02*X285912Y4976D01*
X286968Y5680D02*X287408Y6120D01*
X288288D01*
X288728Y5680D01*
X288288Y2600D02*X288728Y3040D01*
X287408Y2600D02*X288288D01*
X286968Y3040D02*X287408Y2600D01*
Y4536D02*X288288D01*
X288728Y5680D02*Y4976D01*
Y4096D02*Y3040D01*
Y4096D02*X288288Y4536D01*
X288728Y4976D02*X288288Y4536D01*
X290224Y2600D02*X291544Y4360D01*
Y5680D02*Y4360D01*
X291104Y6120D02*X291544Y5680D01*
X290224Y6120D02*X291104D01*
X289784Y5680D02*X290224Y6120D01*
X289784Y5680D02*Y4800D01*
X290224Y4360D01*
X291544D01*
X293040Y2600D02*X294360Y4360D01*
Y5680D02*Y4360D01*
X293920Y6120D02*X294360Y5680D01*
X293040Y6120D02*X293920D01*
X292600Y5680D02*X293040Y6120D01*
X292600Y5680D02*Y4800D01*
X293040Y4360D01*
X294360D01*
X309000Y116360D02*X310760D01*
X309880Y117240D02*Y115480D01*
X307650Y82700D02*X308200Y82150D01*
X306550Y82700D02*X307650D01*
X306000Y82150D02*X306550Y82700D01*
X306000Y82150D02*Y81050D01*
X306550Y80500D01*
X307650D01*
X308200Y81050D01*
X306000Y79400D02*X306550Y78850D01*
X307650D01*
X308200Y79400D01*
Y82700D02*Y79400D01*
X310070Y82150D02*Y80500D01*
Y82150D02*X310620Y82700D01*
X311170D01*
X311720Y82150D01*
Y80500D01*
X309520Y82700D02*X310070Y82150D01*
X315240Y84900D02*Y80500D01*
X314690D02*X315240Y81050D01*
X313590Y80500D02*X314690D01*
X313040Y81050D02*X313590Y80500D01*
X313040Y82150D02*Y81050D01*
Y82150D02*X313590Y82700D01*
X314690D01*
X315240Y82150D01*
X239440Y125600D02*X240760D01*
X241200Y126040D01*
X240760Y126480D02*X241200Y126040D01*
X239440Y126480D02*X240760D01*
X239000Y126920D02*X239440Y126480D01*
X239000Y126920D02*X239440Y127360D01*
X240760D01*
X241200Y126920D01*
X239000Y126040D02*X239440Y125600D01*
X242256Y127360D02*Y126040D01*
X242696Y125600D01*
X243136D01*
X243576Y126040D01*
Y127360D02*Y126040D01*
X244016Y125600D01*
X244456D01*
X244896Y126040D01*
Y127360D02*Y126040D01*
X247712Y129120D02*Y125600D01*
X247272D02*X247712Y126040D01*
X246392Y125600D02*X247272D01*
X245952Y126040D02*X246392Y125600D01*
X245952Y126920D02*Y126040D01*
Y126920D02*X246392Y127360D01*
X247272D01*
X247712Y126920D01*
X248768Y128240D02*Y128152D01*
Y126920D02*Y125600D01*
X249648Y126920D02*Y126040D01*
Y126920D02*X250088Y127360D01*
X250968D01*
X251408Y126920D01*
Y126040D01*
X250968Y125600D02*X251408Y126040D01*
X250088Y125600D02*X250968D01*
X249648Y126040D02*X250088Y125600D01*
X240320Y117360D02*X240760Y116920D01*
X239440Y117360D02*X240320D01*
X239000Y116920D02*X239440Y117360D01*
X239000Y116920D02*Y116040D01*
X239440Y115600D01*
X240760Y117360D02*Y116040D01*
X241200Y115600D01*
X239440D02*X240320D01*
X240760Y116040D01*
X242256Y118416D02*X242960Y119120D01*
Y115600D01*
X242256D02*X243576D01*
X244632Y116040D02*X245072Y115600D01*
X244632Y118680D02*Y116040D01*
Y118680D02*X245072Y119120D01*
X245952D01*
X246392Y118680D01*
Y116040D01*
X245952Y115600D02*X246392Y116040D01*
X245072Y115600D02*X245952D01*
X244632Y116480D02*X246392Y118240D01*
X240320Y107360D02*X240760Y106920D01*
X239440Y107360D02*X240320D01*
X239000Y106920D02*X239440Y107360D01*
X239000Y106920D02*Y106040D01*
X239440Y105600D01*
X240760Y107360D02*Y106040D01*
X241200Y105600D01*
X239440D02*X240320D01*
X240760Y106040D01*
X242256D02*X242696Y105600D01*
X242256Y106744D02*Y106040D01*
Y106744D02*X242872Y107360D01*
X243400D01*
X244016Y106744D01*
Y106040D01*
X243576Y105600D02*X244016Y106040D01*
X242696Y105600D02*X243576D01*
X242256Y107976D02*X242872Y107360D01*
X242256Y108680D02*Y107976D01*
Y108680D02*X242696Y109120D01*
X243576D01*
X244016Y108680D01*
Y107976D01*
X243400Y107360D02*X244016Y107976D01*
X239000Y99120D02*Y95600D01*
Y96040D02*X239440Y95600D01*
X240320D01*
X240760Y96040D01*
Y96920D02*Y96040D01*
X240320Y97360D02*X240760Y96920D01*
X239440Y97360D02*X240320D01*
X239000Y96920D02*X239440Y97360D01*
X241816Y98416D02*X242520Y99120D01*
Y95600D01*
X241816D02*X243136D01*
X244192Y96920D02*X245952Y99120D01*
X244192Y96920D02*X246392D01*
X245952Y99120D02*Y95600D01*
X239000Y89120D02*Y85600D01*
Y86040D02*X239440Y85600D01*
X240320D01*
X240760Y86040D01*
Y86920D02*Y86040D01*
X240320Y87360D02*X240760Y86920D01*
X239440Y87360D02*X240320D01*
X239000Y86920D02*X239440Y87360D01*
X241816Y88416D02*X242520Y89120D01*
Y85600D01*
X241816D02*X243136D01*
X244192Y88680D02*X244632Y89120D01*
X245952D01*
X246392Y88680D01*
Y87800D01*
X244192Y85600D02*X246392Y87800D01*
X244192Y85600D02*X246392D01*
X216000Y89120D02*Y85600D01*
Y86040D02*X216440Y85600D01*
X217320D01*
X217760Y86040D01*
Y86920D02*Y86040D01*
X217320Y87360D02*X217760Y86920D01*
X216440Y87360D02*X217320D01*
X216000Y86920D02*X216440Y87360D01*
X218816Y88416D02*X219520Y89120D01*
Y85600D01*
X218816D02*X220136D01*
X221192Y88680D02*X221632Y89120D01*
X222512D01*
X222952Y88680D01*
X222512Y85600D02*X222952Y86040D01*
X221632Y85600D02*X222512D01*
X221192Y86040D02*X221632Y85600D01*
Y87536D02*X222512D01*
X222952Y88680D02*Y87976D01*
Y87096D02*Y86040D01*
Y87096D02*X222512Y87536D01*
X222952Y87976D02*X222512Y87536D01*
X216000Y99120D02*Y95600D01*
Y96040D02*X216440Y95600D01*
X217320D01*
X217760Y96040D01*
Y96920D02*Y96040D01*
X217320Y97360D02*X217760Y96920D01*
X216440Y97360D02*X217320D01*
X216000Y96920D02*X216440Y97360D01*
X218816Y98416D02*X219520Y99120D01*
Y95600D01*
X218816D02*X220136D01*
X221192Y99120D02*X222952D01*
X221192D02*Y97360D01*
X221632Y97800D01*
X222512D01*
X222952Y97360D01*
Y96040D01*
X222512Y95600D02*X222952Y96040D01*
X221632Y95600D02*X222512D01*
X221192Y96040D02*X221632Y95600D01*
X217320Y107360D02*X217760Y106920D01*
X216440Y107360D02*X217320D01*
X216000Y106920D02*X216440Y107360D01*
X216000Y106920D02*Y106040D01*
X216440Y105600D01*
X217760Y107360D02*Y106040D01*
X218200Y105600D01*
X216440D02*X217320D01*
X217760Y106040D01*
X219696Y105600D02*X221016Y107360D01*
Y108680D02*Y107360D01*
X220576Y109120D02*X221016Y108680D01*
X219696Y109120D02*X220576D01*
X219256Y108680D02*X219696Y109120D01*
X219256Y108680D02*Y107800D01*
X219696Y107360D01*
X221016D01*
X217320Y117360D02*X217760Y116920D01*
X216440Y117360D02*X217320D01*
X216000Y116920D02*X216440Y117360D01*
X216000Y116920D02*Y116040D01*
X216440Y115600D01*
X217760Y117360D02*Y116040D01*
X218200Y115600D01*
X216440D02*X217320D01*
X217760Y116040D01*
X219256Y118416D02*X219960Y119120D01*
Y115600D01*
X219256D02*X220576D01*
X221632Y118416D02*X222336Y119120D01*
Y115600D01*
X221632D02*X222952D01*
X217320Y127360D02*X217760Y126920D01*
X216440Y127360D02*X217320D01*
X216000Y126920D02*X216440Y127360D01*
X216000Y126920D02*Y126040D01*
X216440Y125600D01*
X217760Y127360D02*Y126040D01*
X218200Y125600D01*
X216440D02*X217320D01*
X217760Y126040D01*
X219256Y128416D02*X219960Y129120D01*
Y125600D01*
X219256D02*X220576D01*
X221632Y128680D02*X222072Y129120D01*
X223392D01*
X223832Y128680D01*
Y127800D01*
X221632Y125600D02*X223832Y127800D01*
X221632Y125600D02*X223832D01*
X132000Y138360D02*X133760D01*
X132880Y139240D02*Y137480D01*
X132440Y128360D02*X133760D01*
X132000Y127920D02*X132440Y128360D01*
X132000Y127920D02*Y127040D01*
X132440Y126600D01*
X133760D01*
X134816Y129416D02*X135520Y130120D01*
Y126600D01*
X134816D02*X136136D01*
X137192Y127920D02*X138952Y130120D01*
X137192Y127920D02*X139392D01*
X138952Y130120D02*Y126600D01*
X132440Y119680D02*Y116600D01*
Y119680D02*X132880Y120120D01*
X133320D01*
X132000Y118360D02*X132880D01*
X134200Y117040D02*X134640Y116600D01*
X134200Y119680D02*Y117040D01*
Y119680D02*X134640Y120120D01*
X135520D01*
X135960Y119680D01*
Y117040D01*
X135520Y116600D02*X135960Y117040D01*
X134640Y116600D02*X135520D01*
X134200Y117480D02*X135960Y119240D01*
X132440Y107920D02*Y106600D01*
Y107920D02*X132880Y108360D01*
X133760D01*
X132000D02*X132440Y107920D01*
X135256Y106600D02*X136576D01*
X137016Y107040D01*
X136576Y107480D02*X137016Y107040D01*
X135256Y107480D02*X136576D01*
X134816Y107920D02*X135256Y107480D01*
X134816Y107920D02*X135256Y108360D01*
X136576D01*
X137016Y107920D01*
X134816Y107040D02*X135256Y106600D01*
X138512Y110120D02*Y107040D01*
X138952Y106600D01*
X138072Y108800D02*X138952D01*
X132320Y98360D02*X132760Y97920D01*
X131440Y98360D02*X132320D01*
X131000Y97920D02*X131440Y98360D01*
X131000Y97920D02*Y97040D01*
X131440Y96600D01*
X132760Y98360D02*Y97040D01*
X133200Y96600D01*
X131440D02*X132320D01*
X132760Y97040D01*
X135576Y98360D02*X136016Y97920D01*
X134696Y98360D02*X135576D01*
X134256Y97920D02*X134696Y98360D01*
X134256Y97920D02*Y97040D01*
X134696Y96600D01*
X135576D01*
X136016Y97040D01*
X134256Y95720D02*X134696Y95280D01*
X135576D01*
X136016Y95720D01*
Y98360D02*Y95720D01*
X137512Y97920D02*Y96600D01*
Y97920D02*X137952Y98360D01*
X138392D01*
X138832Y97920D01*
Y96600D01*
X137072Y98360D02*X137512Y97920D01*
X141648Y100120D02*Y96600D01*
X141208D02*X141648Y97040D01*
X140328Y96600D02*X141208D01*
X139888Y97040D02*X140328Y96600D01*
X139888Y97920D02*Y97040D01*
Y97920D02*X140328Y98360D01*
X141208D01*
X141648Y97920D01*
X107440Y128360D02*X108760D01*
X107000Y127920D02*X107440Y128360D01*
X107000Y127920D02*Y127040D01*
X107440Y126600D01*
X108760D01*
X109816Y129416D02*X110520Y130120D01*
Y126600D01*
X109816D02*X111136D01*
X112192Y130120D02*X113952D01*
X112192D02*Y128360D01*
X112632Y128800D01*
X113512D01*
X113952Y128360D01*
Y127040D01*
X113512Y126600D02*X113952Y127040D01*
X112632Y126600D02*X113512D01*
X112192Y127040D02*X112632Y126600D01*
X107440Y119680D02*Y116600D01*
Y119680D02*X107880Y120120D01*
X108320D01*
X107000Y118360D02*X107880D01*
X109200Y119416D02*X109904Y120120D01*
Y116600D01*
X109200D02*X110520D01*
X108320Y108360D02*X108760Y107920D01*
X107440Y108360D02*X108320D01*
X107000Y107920D02*X107440Y108360D01*
X107000Y107920D02*Y107040D01*
X107440Y106600D01*
X108760Y108360D02*Y107040D01*
X109200Y106600D01*
X107440D02*X108320D01*
X108760Y107040D01*
X110256Y108360D02*X112016D01*
X111136Y109240D02*Y107480D01*
X108320Y98360D02*X108760Y97920D01*
X107440Y98360D02*X108320D01*
X107000Y97920D02*X107440Y98360D01*
X107000Y97920D02*Y97040D01*
X107440Y96600D01*
X108760Y98360D02*Y97040D01*
X109200Y96600D01*
X107440D02*X108320D01*
X108760Y97040D01*
X110256D02*X110696Y96600D01*
X110256Y99680D02*Y97040D01*
Y99680D02*X110696Y100120D01*
X111576D01*
X112016Y99680D01*
Y97040D01*
X111576Y96600D02*X112016Y97040D01*
X110696Y96600D02*X111576D01*
X110256Y97480D02*X112016Y99240D01*
X108320Y88360D02*X108760Y87920D01*
X107440Y88360D02*X108320D01*
X107000Y87920D02*X107440Y88360D01*
X107000Y87920D02*Y87040D01*
X107440Y86600D01*
X108760Y88360D02*Y87040D01*
X109200Y86600D01*
X107440D02*X108320D01*
X108760Y87040D01*
X110256Y89680D02*X110696Y90120D01*
X112016D01*
X112456Y89680D01*
Y88800D01*
X110256Y86600D02*X112456Y88800D01*
X110256Y86600D02*X112456D01*
X99320Y21360D02*X99760Y20920D01*
X98440Y21360D02*X99320D01*
X98000Y20920D02*X98440Y21360D01*
X98000Y20920D02*Y20040D01*
X98440Y19600D01*
X99320D01*
X99760Y20040D01*
X98000Y18720D02*X98440Y18280D01*
X99320D01*
X99760Y18720D01*
Y21360D02*Y18720D01*
X101256Y20920D02*Y19600D01*
Y20920D02*X101696Y21360D01*
X102136D01*
X102576Y20920D01*
Y19600D01*
X100816Y21360D02*X101256Y20920D01*
X105392Y23120D02*Y19600D01*
X104952D02*X105392Y20040D01*
X104072Y19600D02*X104952D01*
X103632Y20040D02*X104072Y19600D01*
X103632Y20920D02*Y20040D01*
Y20920D02*X104072Y21360D01*
X104952D01*
X105392Y20920D01*
X104000Y9360D02*X105760D01*
X104880Y10240D02*Y8480D01*
X104000Y113360D02*X105760D01*
X104880Y114240D02*Y112480D01*
X108440Y138360D02*X109760D01*
X108000Y137920D02*X108440Y138360D01*
X108000Y137920D02*Y137040D01*
X108440Y136600D01*
X109760D01*
X110816Y139416D02*X111520Y140120D01*
Y136600D01*
X110816D02*X112136D01*
X113192Y139680D02*X113632Y140120D01*
X114512D01*
X114952Y139680D01*
X114512Y136600D02*X114952Y137040D01*
X113632Y136600D02*X114512D01*
X113192Y137040D02*X113632Y136600D01*
Y138536D02*X114512D01*
X114952Y139680D02*Y138976D01*
Y138096D02*Y137040D01*
Y138096D02*X114512Y138536D01*
X114952Y138976D02*X114512Y138536D01*
X239440Y138680D02*Y135600D01*
Y138680D02*X239880Y139120D01*
X240320D01*
X239000Y137360D02*X239880D01*
X241640Y135600D02*X243400Y139120D01*
X241200D02*X243400D01*
X216440Y138680D02*Y135600D01*
Y138680D02*X216880Y139120D01*
X217320D01*
X216000Y137360D02*X216880D01*
X219520Y139120D02*X219960Y138680D01*
X218640Y139120D02*X219520D01*
X218200Y138680D02*X218640Y139120D01*
X218200Y138680D02*Y136040D01*
X218640Y135600D01*
X219520Y137536D02*X219960Y137096D01*
X218200Y137536D02*X219520D01*
X218640Y135600D02*X219520D01*
X219960Y136040D01*
Y137096D02*Y136040D01*
X148500Y174860D02*X150260D01*
X149380Y175740D02*Y173980D01*
X166500Y176620D02*Y173100D01*
Y173540D02*X166940Y173100D01*
X167820D01*
X168260Y173540D01*
Y174420D02*Y173540D01*
X167820Y174860D02*X168260Y174420D01*
X166940Y174860D02*X167820D01*
X166500Y174420D02*X166940Y174860D01*
X169316Y173540D02*X169756Y173100D01*
X169316Y176180D02*Y173540D01*
Y176180D02*X169756Y176620D01*
X170636D01*
X171076Y176180D01*
Y173540D01*
X170636Y173100D02*X171076Y173540D01*
X169756Y173100D02*X170636D01*
X169316Y173980D02*X171076Y175740D01*
X172132Y173540D02*X172572Y173100D01*
X172132Y176180D02*Y173540D01*
Y176180D02*X172572Y176620D01*
X173452D01*
X173892Y176180D01*
Y173540D01*
X173452Y173100D02*X173892Y173540D01*
X172572Y173100D02*X173452D01*
X172132Y173980D02*X173892Y175740D01*
X175388Y176620D02*Y173540D01*
X175828Y173100D01*
X174948Y175300D02*X175828D01*
X160000Y176620D02*Y173100D01*
Y173540D02*X160440Y173100D01*
X161320D01*
X161760Y173540D01*
Y174420D02*Y173540D01*
X161320Y174860D02*X161760Y174420D01*
X160440Y174860D02*X161320D01*
X160000Y174420D02*X160440Y174860D01*
X163256Y173100D02*X164576Y174860D01*
Y176180D02*Y174860D01*
X164136Y176620D02*X164576Y176180D01*
X163256Y176620D02*X164136D01*
X162816Y176180D02*X163256Y176620D01*
X162816Y176180D02*Y175300D01*
X163256Y174860D01*
X164576D01*
X160000Y154120D02*Y150600D01*
Y151040D02*X160440Y150600D01*
X161320D01*
X161760Y151040D01*
Y151920D02*Y151040D01*
X161320Y152360D02*X161760Y151920D01*
X160440Y152360D02*X161320D01*
X160000Y151920D02*X160440Y152360D01*
X162816Y151040D02*X163256Y150600D01*
X162816Y151744D02*Y151040D01*
Y151744D02*X163432Y152360D01*
X163960D01*
X164576Y151744D01*
Y151040D01*
X164136Y150600D02*X164576Y151040D01*
X163256Y150600D02*X164136D01*
X162816Y152976D02*X163432Y152360D01*
X162816Y153680D02*Y152976D01*
Y153680D02*X163256Y154120D01*
X164136D01*
X164576Y153680D01*
Y152976D01*
X163960Y152360D02*X164576Y152976D01*
X171000Y154120D02*Y150600D01*
Y151040D02*X171440Y150600D01*
X172320D01*
X172760Y151040D01*
Y151920D02*Y151040D01*
X172320Y152360D02*X172760Y151920D01*
X171440Y152360D02*X172320D01*
X171000Y151920D02*X171440Y152360D01*
X174256Y150600D02*X176016Y154120D01*
X173816D02*X176016D01*
X147820Y152360D02*X148260Y151920D01*
X146940Y152360D02*X147820D01*
X146500Y151920D02*X146940Y152360D01*
X146500Y151920D02*Y151040D01*
X146940Y150600D01*
X147820D01*
X148260Y151040D01*
X146500Y149720D02*X146940Y149280D01*
X147820D01*
X148260Y149720D01*
Y152360D02*Y149720D01*
X149756Y151920D02*Y150600D01*
Y151920D02*X150196Y152360D01*
X150636D01*
X151076Y151920D01*
Y150600D01*
X149316Y152360D02*X149756Y151920D01*
X153892Y154120D02*Y150600D01*
X153452D02*X153892Y151040D01*
X152572Y150600D02*X153452D01*
X152132Y151040D02*X152572Y150600D01*
X152132Y151920D02*Y151040D01*
Y151920D02*X152572Y152360D01*
X153452D01*
X153892Y151920D01*
X126440Y150920D02*Y149600D01*
Y150920D02*X126880Y151360D01*
X127760D01*
X126000D02*X126440Y150920D01*
X129256Y149600D02*X130576D01*
X131016Y150040D01*
X130576Y150480D02*X131016Y150040D01*
X129256Y150480D02*X130576D01*
X128816Y150920D02*X129256Y150480D01*
X128816Y150920D02*X129256Y151360D01*
X130576D01*
X131016Y150920D01*
X128816Y150040D02*X129256Y149600D01*
X132512Y153120D02*Y150040D01*
X132952Y149600D01*
X132072Y151800D02*X132952D01*
X19320Y153360D02*X19760Y152920D01*
X18440Y153360D02*X19320D01*
X18000Y152920D02*X18440Y153360D01*
X18000Y152920D02*Y152040D01*
X18440Y151600D01*
X19320D01*
X19760Y152040D01*
X18000Y150720D02*X18440Y150280D01*
X19320D01*
X19760Y150720D01*
Y153360D02*Y150720D01*
X21256Y152920D02*Y151600D01*
Y152920D02*X21696Y153360D01*
X22136D01*
X22576Y152920D01*
Y151600D01*
X20816Y153360D02*X21256Y152920D01*
X25392Y155120D02*Y151600D01*
X24952D02*X25392Y152040D01*
X24072Y151600D02*X24952D01*
X23632Y152040D02*X24072Y151600D01*
X23632Y152920D02*Y152040D01*
Y152920D02*X24072Y153360D01*
X24952D01*
X25392Y152920D01*
X231320Y152360D02*X231760Y151920D01*
X230440Y152360D02*X231320D01*
X230000Y151920D02*X230440Y152360D01*
X230000Y151920D02*Y151040D01*
X230440Y150600D01*
X231320D01*
X231760Y151040D01*
X230000Y149720D02*X230440Y149280D01*
X231320D01*
X231760Y149720D01*
Y152360D02*Y149720D01*
X233256Y151920D02*Y150600D01*
Y151920D02*X233696Y152360D01*
X234136D01*
X234576Y151920D01*
Y150600D01*
X232816Y152360D02*X233256Y151920D01*
X237392Y154120D02*Y150600D01*
X236952D02*X237392Y151040D01*
X236072Y150600D02*X236952D01*
X235632Y151040D02*X236072Y150600D01*
X235632Y151920D02*Y151040D01*
Y151920D02*X236072Y152360D01*
X236952D01*
X237392Y151920D01*
X132320Y88360D02*X132760Y87920D01*
X131440Y88360D02*X132320D01*
X131000Y87920D02*X131440Y88360D01*
X131000Y87920D02*Y87040D01*
X131440Y86600D01*
X132760Y88360D02*Y87040D01*
X133200Y86600D01*
X131440D02*X132320D01*
X132760Y87040D01*
X134256Y89416D02*X134960Y90120D01*
Y86600D01*
X134256D02*X135576D01*
X159320Y79360D02*X159760Y78920D01*
X158440Y79360D02*X159320D01*
X158000Y78920D02*X158440Y79360D01*
X158000Y78920D02*Y78040D01*
X158440Y77600D01*
X159760Y79360D02*Y78040D01*
X160200Y77600D01*
X158440D02*X159320D01*
X159760Y78040D01*
X162576Y81120D02*X163016Y80680D01*
X161696Y81120D02*X162576D01*
X161256Y80680D02*X161696Y81120D01*
X161256Y80680D02*Y78040D01*
X161696Y77600D01*
X162576Y79536D02*X163016Y79096D01*
X161256Y79536D02*X162576D01*
X161696Y77600D02*X162576D01*
X163016Y78040D01*
Y79096D02*Y78040D01*
X149320Y79360D02*X149760Y78920D01*
X148440Y79360D02*X149320D01*
X148000Y78920D02*X148440Y79360D01*
X148000Y78920D02*Y78040D01*
X148440Y77600D01*
X149760Y79360D02*Y78040D01*
X150200Y77600D01*
X148440D02*X149320D01*
X149760Y78040D01*
X151256Y78920D02*X153016Y81120D01*
X151256Y78920D02*X153456D01*
X153016Y81120D02*Y77600D01*
X150320Y58360D02*X150760Y57920D01*
X149440Y58360D02*X150320D01*
X149000Y57920D02*X149440Y58360D01*
X149000Y57920D02*Y57040D01*
X149440Y56600D01*
X150760Y58360D02*Y57040D01*
X151200Y56600D01*
X149440D02*X150320D01*
X150760Y57040D01*
X152256Y59680D02*X152696Y60120D01*
X153576D01*
X154016Y59680D01*
X153576Y56600D02*X154016Y57040D01*
X152696Y56600D02*X153576D01*
X152256Y57040D02*X152696Y56600D01*
Y58536D02*X153576D01*
X154016Y59680D02*Y58976D01*
Y58096D02*Y57040D01*
Y58096D02*X153576Y58536D01*
X154016Y58976D02*X153576Y58536D01*
X159320Y58360D02*X159760Y57920D01*
X158440Y58360D02*X159320D01*
X158000Y57920D02*X158440Y58360D01*
X158000Y57920D02*Y57040D01*
X158440Y56600D01*
X159760Y58360D02*Y57040D01*
X160200Y56600D01*
X158440D02*X159320D01*
X159760Y57040D01*
X161256Y60120D02*X163016D01*
X161256D02*Y58360D01*
X161696Y58800D01*
X162576D01*
X163016Y58360D01*
Y57040D01*
X162576Y56600D02*X163016Y57040D01*
X161696Y56600D02*X162576D01*
X161256Y57040D02*X161696Y56600D01*
X169320Y58360D02*X169760Y57920D01*
X168440Y58360D02*X169320D01*
X168000Y57920D02*X168440Y58360D01*
X168000Y57920D02*Y57040D01*
X168440Y56600D01*
X169760Y58360D02*Y57040D01*
X170200Y56600D01*
X168440D02*X169320D01*
X169760Y57040D01*
X171696Y56600D02*X173456Y60120D01*
X171256D02*X173456D01*
X178000D02*Y56600D01*
Y57040D02*X178440Y56600D01*
X179320D01*
X179760Y57040D01*
Y57920D02*Y57040D01*
X179320Y58360D02*X179760Y57920D01*
X178440Y58360D02*X179320D01*
X178000Y57920D02*X178440Y58360D01*
X180816Y59416D02*X181520Y60120D01*
Y56600D01*
X180816D02*X182136D01*
X188000Y60120D02*Y56600D01*
Y57040D02*X188440Y56600D01*
X189320D01*
X189760Y57040D01*
Y57920D02*Y57040D01*
X189320Y58360D02*X189760Y57920D01*
X188440Y58360D02*X189320D01*
X188000Y57920D02*X188440Y58360D01*
X190816Y59416D02*X191520Y60120D01*
Y56600D01*
X190816D02*X192136D01*
X193192Y57040D02*X193632Y56600D01*
X193192Y59680D02*Y57040D01*
Y59680D02*X193632Y60120D01*
X194512D01*
X194952Y59680D01*
Y57040D01*
X194512Y56600D02*X194952Y57040D01*
X193632Y56600D02*X194512D01*
X193192Y57480D02*X194952Y59240D01*
X199320Y58360D02*X199760Y57920D01*
X198440Y58360D02*X199320D01*
X198000Y57920D02*X198440Y58360D01*
X198000Y57920D02*Y57040D01*
X198440Y56600D01*
X199320D01*
X199760Y57040D01*
X198000Y55720D02*X198440Y55280D01*
X199320D01*
X199760Y55720D01*
Y58360D02*Y55720D01*
X201256Y57920D02*Y56600D01*
Y57920D02*X201696Y58360D01*
X202136D01*
X202576Y57920D01*
Y56600D01*
X200816Y58360D02*X201256Y57920D01*
X205392Y60120D02*Y56600D01*
X204952D02*X205392Y57040D01*
X204072Y56600D02*X204952D01*
X203632Y57040D02*X204072Y56600D01*
X203632Y57920D02*Y57040D01*
Y57920D02*X204072Y58360D01*
X204952D01*
X205392Y57920D01*
X188000Y81120D02*Y77600D01*
Y78040D02*X188440Y77600D01*
X189320D01*
X189760Y78040D01*
Y78920D02*Y78040D01*
X189320Y79360D02*X189760Y78920D01*
X188440Y79360D02*X189320D01*
X188000Y78920D02*X188440Y79360D01*
X190816Y80416D02*X191520Y81120D01*
Y77600D01*
X190816D02*X192136D01*
X193192Y80416D02*X193896Y81120D01*
Y77600D01*
X193192D02*X194512D01*
X178000Y81120D02*Y77600D01*
Y78040D02*X178440Y77600D01*
X179320D01*
X179760Y78040D01*
Y78920D02*Y78040D01*
X179320Y79360D02*X179760Y78920D01*
X178440Y79360D02*X179320D01*
X178000Y78920D02*X178440Y79360D01*
X180816Y80680D02*X181256Y81120D01*
X182576D01*
X183016Y80680D01*
Y79800D01*
X180816Y77600D02*X183016Y79800D01*
X180816Y77600D02*X183016D01*
X168000Y81120D02*Y77600D01*
Y78040D02*X168440Y77600D01*
X169320D01*
X169760Y78040D01*
Y78920D02*Y78040D01*
X169320Y79360D02*X169760Y78920D01*
X168440Y79360D02*X169320D01*
X168000Y78920D02*X168440Y79360D01*
X170816Y78040D02*X171256Y77600D01*
X170816Y80680D02*Y78040D01*
Y80680D02*X171256Y81120D01*
X172136D01*
X172576Y80680D01*
Y78040D01*
X172136Y77600D02*X172576Y78040D01*
X171256Y77600D02*X172136D01*
X170816Y78480D02*X172576Y80240D01*
X201000Y79360D02*X202760D01*
X201880Y80240D02*Y78480D01*
X180000Y154120D02*Y150600D01*
Y151040D02*X180440Y150600D01*
X181320D01*
X181760Y151040D01*
Y151920D02*Y151040D01*
X181320Y152360D02*X181760Y151920D01*
X180440Y152360D02*X181320D01*
X180000Y151920D02*X180440Y152360D01*
X182816Y154120D02*X184576D01*
X182816D02*Y152360D01*
X183256Y152800D01*
X184136D01*
X184576Y152360D01*
Y151040D01*
X184136Y150600D02*X184576Y151040D01*
X183256Y150600D02*X184136D01*
X182816Y151040D02*X183256Y150600D01*
X189000Y176620D02*Y173100D01*
Y173540D02*X189440Y173100D01*
X190320D01*
X190760Y173540D01*
Y174420D02*Y173540D01*
X190320Y174860D02*X190760Y174420D01*
X189440Y174860D02*X190320D01*
X189000Y174420D02*X189440Y174860D01*
X191816Y174420D02*X193576Y176620D01*
X191816Y174420D02*X194016D01*
X193576Y176620D02*Y173100D01*
X189000Y154120D02*Y150600D01*
Y151040D02*X189440Y150600D01*
X190320D01*
X190760Y151040D01*
Y151920D02*Y151040D01*
X190320Y152360D02*X190760Y151920D01*
X189440Y152360D02*X190320D01*
X189000Y151920D02*X189440Y152360D01*
X191816Y153680D02*X192256Y154120D01*
X193136D01*
X193576Y153680D01*
X193136Y150600D02*X193576Y151040D01*
X192256Y150600D02*X193136D01*
X191816Y151040D02*X192256Y150600D01*
Y152536D02*X193136D01*
X193576Y153680D02*Y152976D01*
Y152096D02*Y151040D01*
Y152096D02*X193136Y152536D01*
X193576Y152976D02*X193136Y152536D01*
X198440Y150600D02*X199760D01*
X200200Y151040D01*
X199760Y151480D02*X200200Y151040D01*
X198440Y151480D02*X199760D01*
X198000Y151920D02*X198440Y151480D01*
X198000Y151920D02*X198440Y152360D01*
X199760D01*
X200200Y151920D01*
X198000Y151040D02*X198440Y150600D01*
X201256Y152360D02*Y151040D01*
X201696Y150600D01*
X202136D01*
X202576Y151040D01*
Y152360D02*Y151040D01*
X203016Y150600D01*
X203456D01*
X203896Y151040D01*
Y152360D02*Y151040D01*
X205392Y152360D02*X206712D01*
X204952Y151920D02*X205392Y152360D01*
X204952Y151920D02*Y151040D01*
X205392Y150600D01*
X206712D01*
X207768Y154120D02*Y151040D01*
X208208Y150600D01*
X209088Y154120D02*Y150600D01*
Y151920D02*X210408Y150600D01*
X209088Y151920D02*X209968Y152800D01*
X180000Y176620D02*Y173100D01*
Y173540D02*X180440Y173100D01*
X181320D01*
X181760Y173540D01*
Y174420D02*Y173540D01*
X181320Y174860D02*X181760Y174420D01*
X180440Y174860D02*X181320D01*
X180000Y174420D02*X180440Y174860D01*
X184136Y176620D02*X184576Y176180D01*
X183256Y176620D02*X184136D01*
X182816Y176180D02*X183256Y176620D01*
X182816Y176180D02*Y173540D01*
X183256Y173100D01*
X184136Y175036D02*X184576Y174596D01*
X182816Y175036D02*X184136D01*
X183256Y173100D02*X184136D01*
X184576Y173540D01*
Y174596D02*Y173540D01*
X199320Y174860D02*X199760Y174420D01*
X198440Y174860D02*X199320D01*
X198000Y174420D02*X198440Y174860D01*
X198000Y174420D02*Y173540D01*
X198440Y173100D01*
X199760Y174860D02*Y173540D01*
X200200Y173100D01*
X198440D02*X199320D01*
X199760Y173540D01*
X201256Y175916D02*X201960Y176620D01*
Y173100D01*
X201256D02*X202576D01*
X203632Y176620D02*X205392D01*
X203632D02*Y174860D01*
X204072Y175300D01*
X204952D01*
X205392Y174860D01*
Y173540D01*
X204952Y173100D02*X205392Y173540D01*
X204072Y173100D02*X204952D01*
X203632Y173540D02*X204072Y173100D01*
X231440Y161600D02*X232760D01*
X233200Y162040D01*
X232760Y162480D02*X233200Y162040D01*
X231440Y162480D02*X232760D01*
X231000Y162920D02*X231440Y162480D01*
X231000Y162920D02*X231440Y163360D01*
X232760D01*
X233200Y162920D01*
X231000Y162040D02*X231440Y161600D01*
X234256Y163360D02*Y162040D01*
X234696Y161600D01*
X235136D01*
X235576Y162040D01*
Y163360D02*Y162040D01*
X236016Y161600D01*
X236456D01*
X236896Y162040D01*
Y163360D02*Y162040D01*
X239712Y165120D02*Y161600D01*
X239272D02*X239712Y162040D01*
X238392Y161600D02*X239272D01*
X237952Y162040D02*X238392Y161600D01*
X237952Y162920D02*Y162040D01*
Y162920D02*X238392Y163360D01*
X239272D01*
X239712Y162920D01*
X240768Y164240D02*Y164152D01*
Y162920D02*Y161600D01*
X241648Y162920D02*Y162040D01*
Y162920D02*X242088Y163360D01*
X242968D01*
X243408Y162920D01*
Y162040D01*
X242968Y161600D02*X243408Y162040D01*
X242088Y161600D02*X242968D01*
X241648Y162040D02*X242088Y161600D01*
X231440Y170600D02*X232760D01*
X233200Y171040D01*
X232760Y171480D02*X233200Y171040D01*
X231440Y171480D02*X232760D01*
X231000Y171920D02*X231440Y171480D01*
X231000Y171920D02*X231440Y172360D01*
X232760D01*
X233200Y171920D01*
X231000Y171040D02*X231440Y170600D01*
X234256Y172360D02*Y171040D01*
X234696Y170600D01*
X235136D01*
X235576Y171040D01*
Y172360D02*Y171040D01*
X236016Y170600D01*
X236456D01*
X236896Y171040D01*
Y172360D02*Y171040D01*
X238392Y172360D02*X239712D01*
X237952Y171920D02*X238392Y172360D01*
X237952Y171920D02*Y171040D01*
X238392Y170600D01*
X239712D01*
X240768Y174120D02*Y171040D01*
X241208Y170600D01*
X242088Y174120D02*Y170600D01*
Y171920D02*X243408Y170600D01*
X242088Y171920D02*X242968Y172800D01*
X229000Y181360D02*X230760D01*
X229880Y182240D02*Y180480D01*
X150320Y191360D02*X150760Y190920D01*
X149440Y191360D02*X150320D01*
X149000Y190920D02*X149440Y191360D01*
X149000Y190920D02*Y190040D01*
X149440Y189600D01*
X150320D01*
X150760Y190040D01*
X149000Y188720D02*X149440Y188280D01*
X150320D01*
X150760Y188720D01*
Y191360D02*Y188720D01*
X152256Y190920D02*Y189600D01*
Y190920D02*X152696Y191360D01*
X153136D01*
X153576Y190920D01*
Y189600D01*
X151816Y191360D02*X152256Y190920D01*
X156392Y193120D02*Y189600D01*
X155952D02*X156392Y190040D01*
X155072Y189600D02*X155952D01*
X154632Y190040D02*X155072Y189600D01*
X154632Y190920D02*Y190040D01*
Y190920D02*X155072Y191360D01*
X155952D01*
X156392Y190920D01*
X188000Y183360D02*X189760D01*
X188880Y184240D02*Y182480D01*
X94000Y196360D02*X95760D01*
X94880Y197240D02*Y195480D01*
G54D81*X314764Y19000D02*G75*G03X314764Y19000I15236J0D01*G01*
X314174Y181000D02*G75*G03X314174Y181000I15826J0D01*G01*
X316305Y9603D02*Y3603D01*
X301805Y2603D02*Y3603D01*
X314305Y6603D02*Y5103D01*
X298305Y7103D02*X299805Y5603D01*
X308305D02*X308805Y5103D01*
X311305Y8103D02*X310305D01*
Y6603D01*
X301305Y7103D02*X302805Y5603D01*
X316305Y3603D02*X304805D01*
X299805Y7103D02*X298305Y5603D01*
X313305Y6603D02*X314305D01*
X310305D02*X311305D01*
X305805Y9603D02*X316305D01*
X307305Y5603D02*Y6603D01*
X308305D01*
X298805Y3603D02*X303305D01*
X298805D02*Y2603D01*
X308305Y6603D02*Y5603D01*
X305805Y4103D02*Y9603D01*
X311305Y5103D02*X310305D01*
X311305Y6603D02*Y5103D01*
X302805Y7103D02*X301305Y5603D01*
X312805Y8103D02*Y5103D01*
G54D80*X349457Y124559D02*Y77315D01*
X302213Y124559D02*X349457D01*
X302213Y77315D02*X349457D01*
G54D81*X4764Y180000D02*G75*G03X4764Y180000I15236J0D01*G01*
X4174Y20000D02*G75*G03X4174Y20000I15826J0D01*G01*
G54D82*X154678Y139222D02*X198222D01*
Y92778D01*
X151778D01*
Y136322D01*
X154678Y139222D01*
X153678Y136322D02*G75*G03X153678Y136322I1000J0D01*G01*
G54D81*X136934Y34326D02*Y15674D01*
X168066D01*
Y34326D01*
X136934D02*X150000D01*
X168066D02*X155000D01*
X150000D02*G75*G03X155000Y34326I2500J0D01*G01*
X117500Y5000D02*X187500D01*
Y45000D02*Y5000D01*
X117500Y45000D02*X187500D01*
X117500Y20000D02*Y5000D01*
Y45000D02*Y30000D01*
Y20000D02*G75*G03X117500Y30000I0J5000D01*G01*
M02*
