G04 start of page 5 for group 5 idx 5 *
G04 Title: (unknown), bottom *
G04 Creator: pcb 4.2.0 *
G04 CreationDate: Mon May  4 13:26:18 2020 UTC *
G04 For: xpi *
G04 Format: Gerber/RS-274X *
G04 PCB-Dimensions (mil): 3500.00 2000.00 *
G04 PCB-Coordinate-Origin: lower left *
%MOIN*%
%FSLAX25Y25*%
%LNBOTTOM*%
%ADD67C,0.0197*%
%ADD66C,0.1535*%
%ADD65C,0.0200*%
%ADD64C,0.0280*%
%ADD63C,0.0360*%
%ADD62C,0.0460*%
%ADD61C,0.0600*%
%ADD60C,0.0669*%
%ADD59C,0.2874*%
%ADD58C,0.0100*%
%ADD57C,0.0350*%
%ADD56C,0.0450*%
%ADD55C,0.0250*%
%ADD54C,0.0550*%
%ADD53C,0.0001*%
G54D53*G36*
X337500Y165000D02*X290000D01*
Y192500D01*
X337500D01*
Y165000D01*
G37*
G36*
X335000Y2500D02*X287500D01*
Y35000D01*
X335000D01*
Y2500D01*
G37*
G54D54*X158000Y123000D02*X193000D01*
G54D55*X186000Y129000D02*X192000Y123000D01*
X181000D02*Y124000D01*
X176000Y129000D01*
X175000D02*X169000Y123000D01*
G54D56*X193000Y109000D02*X156000D01*
G54D55*X158000D02*Y108000D01*
G54D57*X193000Y109000D02*X181000D01*
G54D58*X128000Y110000D02*X126000D01*
X128000D02*Y111000D01*
X123000Y116000D01*
G54D55*X158000Y124000D02*X163000Y129000D01*
G54D54*X186000D01*
G54D55*X176000D02*X175000D01*
G54D58*X123000Y116000D02*Y149000D01*
X129000Y155000D01*
G54D55*X158000Y108000D02*X163000Y103000D01*
G54D54*X187000D01*
G54D55*X193000Y109000D01*
X181000D02*X175000Y103000D01*
X169000Y109000D01*
G54D59*X330000Y19000D03*
G54D60*Y7977D03*
X320453Y13489D03*
Y24511D03*
X330000Y30023D03*
X339547Y13489D03*
Y24511D03*
X20000Y191023D03*
X29547Y174489D03*
Y185511D03*
G54D59*X20000Y180000D03*
G54D60*Y168977D03*
X10453Y174489D03*
Y185511D03*
G54D59*X330000Y181000D03*
G54D60*Y169977D03*
X320453Y175489D03*
Y186511D03*
X330000Y192023D03*
X339547Y175489D03*
Y186511D03*
G54D59*X20000Y20000D03*
G54D60*Y8977D03*
X10453Y14489D03*
Y25511D03*
X20000Y31023D03*
X29547Y14489D03*
Y25511D03*
G54D53*G36*
X119500Y13000D02*Y7000D01*
X125500D01*
Y13000D01*
X119500D01*
G37*
G54D61*X132500Y10000D03*
X142500D03*
X152500D03*
X162500D03*
X172500D03*
X182500D03*
Y40000D03*
X172500D03*
X162500D03*
X152500D03*
X142500D03*
X132500D03*
X122500D03*
G54D53*G36*
X191623Y118558D02*Y116590D01*
X194377D01*
Y118558D01*
X191623D01*
G37*
G36*
Y115410D02*Y113442D01*
X194377D01*
Y115410D01*
X191623D01*
G37*
G36*
X191032Y120035D02*Y117083D01*
X194968D01*
Y120035D01*
X191032D01*
G37*
G36*
Y114917D02*Y111965D01*
X194968D01*
Y114917D01*
X191032D01*
G37*
G36*
X189260Y124464D02*Y119346D01*
X196740D01*
Y124464D01*
X189260D01*
G37*
G36*
Y112654D02*Y107536D01*
X196740D01*
Y112654D01*
X189260D01*
G37*
G36*
X179623Y118558D02*Y116590D01*
X182377D01*
Y118558D01*
X179623D01*
G37*
G36*
Y115410D02*Y113442D01*
X182377D01*
Y115410D01*
X179623D01*
G37*
G36*
X179032Y120035D02*Y117083D01*
X182968D01*
Y120035D01*
X179032D01*
G37*
G36*
Y114917D02*Y111965D01*
X182968D01*
Y114917D01*
X179032D01*
G37*
G36*
X177260Y124464D02*Y119346D01*
X184740D01*
Y124464D01*
X177260D01*
G37*
G36*
Y112654D02*Y107536D01*
X184740D01*
Y112654D01*
X177260D01*
G37*
G36*
X167623Y118558D02*Y116590D01*
X170377D01*
Y118558D01*
X167623D01*
G37*
G36*
X156623D02*Y116590D01*
X159377D01*
Y118558D01*
X156623D01*
G37*
G36*
X156032Y120035D02*Y117083D01*
X159968D01*
Y120035D01*
X156032D01*
G37*
G36*
X154260Y124464D02*Y119346D01*
X161740D01*
Y124464D01*
X154260D01*
G37*
G36*
X167623Y115410D02*Y113442D01*
X170377D01*
Y115410D01*
X167623D01*
G37*
G36*
X156623D02*Y113442D01*
X159377D01*
Y115410D01*
X156623D01*
G37*
G36*
X156032Y114917D02*Y111965D01*
X159968D01*
Y114917D01*
X156032D01*
G37*
G36*
X154260Y112654D02*Y107536D01*
X161740D01*
Y112654D01*
X154260D01*
G37*
G36*
X167032Y120035D02*Y117083D01*
X170968D01*
Y120035D01*
X167032D01*
G37*
G36*
X165260Y124464D02*Y119346D01*
X172740D01*
Y124464D01*
X165260D01*
G37*
G36*
X167032Y114917D02*Y111965D01*
X170968D01*
Y114917D01*
X167032D01*
G37*
G36*
X165260Y112654D02*Y107536D01*
X172740D01*
Y112654D01*
X165260D01*
G37*
G54D61*X128000Y111000D03*
X236000Y110000D03*
X118000Y111000D03*
X128000Y101000D03*
X118000D03*
X236000Y100000D03*
X164000Y103000D03*
X175000D03*
X187000D03*
X128000Y91000D03*
X118000D03*
X236000Y90000D03*
G54D62*X196000D03*
G54D61*X171000Y74000D03*
X201000D03*
X191000D03*
X181000D03*
X171000Y64000D03*
X161000D03*
X151000D03*
X201000D03*
X191000D03*
X181000D03*
X161000Y74000D03*
X151000D03*
X100000Y72500D03*
Y62500D03*
Y52500D03*
Y42500D03*
Y32500D03*
X90000D03*
X110000Y20500D03*
Y8500D03*
X90000Y52500D03*
Y42500D03*
X80000Y82500D03*
Y72500D03*
Y62500D03*
Y52500D03*
Y42500D03*
Y32500D03*
X305000Y110000D03*
Y100000D03*
Y90000D03*
Y120000D03*
X236000Y140000D03*
Y130000D03*
Y120000D03*
X226000Y140000D03*
Y130000D03*
Y120000D03*
Y110000D03*
Y100000D03*
Y90000D03*
X172000Y168000D03*
Y158000D03*
X162000Y168000D03*
Y158000D03*
X192000Y168000D03*
X182000D03*
X187000Y129000D03*
X175000D03*
X164000D03*
G54D62*Y137000D03*
G54D61*X152000Y168000D03*
Y158000D03*
G54D62*X151000Y140000D03*
G54D63*X160000Y184000D03*
G54D61*X155000Y183000D03*
X145000D03*
X202000Y168000D03*
G54D63*X184000Y190000D03*
G54D61*X206000Y185000D03*
X196000D03*
X202000Y158000D03*
X192000D03*
X182000D03*
X216000Y155000D03*
X226000Y185000D03*
Y175000D03*
Y165000D03*
Y155000D03*
X216000Y185000D03*
X128000Y141000D03*
Y131000D03*
Y121000D03*
X118000Y141000D03*
Y131000D03*
Y121000D03*
G54D62*X129000Y155000D03*
G54D61*X135000Y183000D03*
X125000D03*
X100000Y182500D03*
X90000D03*
X100000Y172500D03*
X90000D03*
Y162500D03*
X80000Y182500D03*
Y172500D03*
Y162500D03*
X100000Y192500D03*
X90000D03*
X80000D03*
X100000Y162500D03*
Y152500D03*
Y142500D03*
Y132500D03*
Y122500D03*
Y112500D03*
X90000Y152500D03*
Y142500D03*
Y132500D03*
Y122500D03*
X80000Y152500D03*
Y142500D03*
Y132500D03*
Y122500D03*
X109000Y112000D03*
X90000Y112500D03*
Y102500D03*
Y92500D03*
Y82500D03*
Y72500D03*
Y62500D03*
X80000Y112500D03*
Y102500D03*
Y92500D03*
X100000Y102500D03*
Y92500D03*
Y82500D03*
X50000Y112500D03*
Y102500D03*
Y92500D03*
Y82500D03*
Y72500D03*
Y62500D03*
X40000Y112500D03*
Y102500D03*
Y92500D03*
X60000Y102500D03*
Y92500D03*
Y82500D03*
Y72500D03*
Y62500D03*
Y52500D03*
Y42500D03*
Y32500D03*
X50000D03*
Y52500D03*
Y42500D03*
X40000Y82500D03*
Y72500D03*
Y62500D03*
Y52500D03*
Y42500D03*
Y32500D03*
X70000Y162500D03*
Y152500D03*
Y142500D03*
Y132500D03*
Y122500D03*
Y112500D03*
Y102500D03*
Y92500D03*
Y82500D03*
Y72500D03*
Y62500D03*
Y52500D03*
Y42500D03*
Y32500D03*
X60000Y182500D03*
X50000D03*
X60000Y172500D03*
X50000D03*
Y162500D03*
X40000Y182500D03*
Y172500D03*
Y162500D03*
Y192500D03*
X70000Y182500D03*
Y192500D03*
Y172500D03*
X60000Y192500D03*
X50000D03*
X60000Y162500D03*
Y152500D03*
Y142500D03*
Y132500D03*
Y122500D03*
Y112500D03*
X50000Y152500D03*
Y142500D03*
Y132500D03*
Y122500D03*
X40000Y152500D03*
Y142500D03*
Y132500D03*
Y122500D03*
X30000Y162500D03*
Y152500D03*
Y142500D03*
Y132500D03*
Y122500D03*
Y112500D03*
Y102500D03*
Y92500D03*
Y82500D03*
Y72500D03*
Y62500D03*
Y52500D03*
Y42500D03*
G54D64*G54D57*G54D64*G54D65*G54D64*G54D57*G54D65*G54D64*G54D65*G54D64*G54D65*G54D64*G54D65*G54D64*G54D66*G54D67*G54D66*G54D67*G54D66*G54D67*G54D66*G54D67*G54D64*M02*
